M48
;DRILL file {KiCad (5.0.2)-1} date 21.01.2019 23:15:12
;FORMAT={-:-/ absolute / inch / decimal}
FMAT,2
INCH,TZ
T1C0.0157
T2C0.0315
T3C0.0350
T4C0.0354
T5C0.0394
T6C0.0433
T7C0.0550
%
G90
G05
T1
X3.9Y-4.1
X4.Y-4.6293
X4.0551Y-5.1551
X4.0911Y-5.
X4.1Y-5.2
X4.1016Y-4.7913
X4.1197Y-4.4697
X4.1217Y-4.4217
X4.122Y-4.3713
X4.15Y-4.8
X4.35Y-4.45
X4.45Y-4.1531
X4.5969Y-4.3
X6.0785Y-4.4715
X10.75Y-2.05
X10.75Y-3.25
X10.75Y-3.85
T2
X2.95Y-5.05
X3.25Y-5.05
X3.8016Y-4.2
X3.9Y-4.2
X5.1Y-4.3
X5.1Y-4.3984
X3.9Y-5.
X3.9Y-5.0984
T3
X6.6Y-4.25
X6.7Y-4.25
X6.8Y-4.25
X7.1Y-4.55
X7.1Y-4.65
X7.1Y-4.75
T4
X6.575Y-4.95
X6.575Y-5.15
X6.825Y-4.95
X6.825Y-5.15
T5
X1.1Y-1.6
X1.1Y-1.7
X1.1Y-1.8
X5.55Y-4.45
X5.55Y-4.55
X5.55Y-4.65
X5.65Y-4.45
X5.65Y-4.55
X5.65Y-4.65
X3.5031Y-5.05
X3.6016Y-5.05
X3.7Y-5.05
T6
X5.45Y-1.55
X5.45Y-1.7272
X5.7059Y-1.55
X5.7059Y-1.7272
X2.55Y-2.656
X2.55Y-2.8332
X2.8059Y-2.656
X2.8059Y-2.8332
X6.45Y-2.65
X6.45Y-2.8272
X6.7059Y-2.65
X6.7059Y-2.8272
X1.95Y-1.55
X1.95Y-1.7272
X2.2059Y-1.55
X2.2059Y-1.7272
X8.1Y-3.85
X8.1Y-4.0272
X8.3559Y-3.85
X8.3559Y-4.0272
X2.55Y-2.05
X2.55Y-2.2272
X2.8059Y-2.05
X2.8059Y-2.2272
X1.95Y-4.45
X1.95Y-4.6272
X2.2059Y-4.45
X2.2059Y-4.6272
X4.75Y-4.45
X4.75Y-4.6272
X5.0059Y-4.45
X5.0059Y-4.6272
X9.85Y-3.85
X9.85Y-4.0272
X10.1059Y-3.85
X10.1059Y-4.0272
X3.85Y-3.25
X3.85Y-3.4272
X4.1059Y-3.25
X4.1059Y-3.4272
X2.65Y-1.55
X2.65Y-1.7272
X2.9059Y-1.55
X2.9059Y-1.7272
X8.3941Y-2.65
X8.3941Y-2.8272
X8.65Y-2.65
X8.65Y-2.8272
X5.8Y-2.656
X5.8Y-2.8332
X6.0559Y-2.656
X6.0559Y-2.8332
X1.9Y-2.05
X1.9Y-2.2272
X2.1559Y-2.05
X2.1559Y-2.2272
X6.8Y-3.85
X6.8Y-4.0272
X7.0559Y-3.85
X7.0559Y-4.0272
X1.75Y-3.85
X1.75Y-4.0272
X2.0059Y-3.85
X2.0059Y-4.0272
X7.75Y-2.05
X7.75Y-2.2272
X8.0059Y-2.05
X8.0059Y-2.2272
X5.15Y-3.25
X5.15Y-3.4272
X5.4059Y-3.25
X5.4059Y-3.4272
X3.85Y-2.656
X3.85Y-2.8332
X4.1059Y-2.656
X4.1059Y-2.8332
X5.8Y-3.25
X5.8Y-3.4272
X6.0559Y-3.25
X6.0559Y-3.4272
X4.2Y-3.85
X4.2Y-4.0272
X4.4559Y-3.85
X4.4559Y-4.0272
X9.7Y-2.65
X9.7Y-2.8272
X9.9559Y-2.65
X9.9559Y-2.8272
X4.05Y-1.55
X4.05Y-1.7272
X4.3059Y-1.55
X4.3059Y-1.7272
X7.75Y-2.65
X7.75Y-2.8272
X8.0059Y-2.65
X8.0059Y-2.8272
X4.5Y-2.05
X4.5Y-2.2272
X4.7559Y-2.05
X4.7559Y-2.2272
X9.65Y-1.55
X9.65Y-1.7272
X9.9059Y-1.55
X9.9059Y-1.7272
X7.45Y-3.85
X7.45Y-4.0272
X7.7059Y-3.85
X7.7059Y-4.0272
X8.4Y-3.25
X8.4Y-3.4272
X8.6559Y-3.25
X8.6559Y-3.4272
X6.45Y-2.05
X6.45Y-2.2272
X6.7059Y-2.05
X6.7059Y-2.2272
X3.55Y-3.85
X3.55Y-4.0272
X3.8059Y-3.85
X3.8059Y-4.0272
X1.6Y-2.65
X1.6Y-2.8272
X1.8559Y-2.65
X1.8559Y-2.8272
X7.75Y-3.25
X7.75Y-3.4272
X8.0059Y-3.25
X8.0059Y-3.4272
X3.2Y-3.25
X3.2Y-3.4272
X3.4559Y-3.25
X3.4559Y-3.4272
X9.65Y-4.45
X9.65Y-4.6272
X9.9059Y-4.45
X9.9059Y-4.6272
X4.75Y-1.55
X4.75Y-1.7272
X5.0059Y-1.55
X5.0059Y-1.7272
X7.1Y-2.65
X7.1Y-2.8272
X7.3559Y-2.65
X7.3559Y-2.8272
X3.35Y-1.55
X3.35Y-1.7272
X3.6059Y-1.55
X3.6059Y-1.7272
X1.25Y-2.05
X1.25Y-2.2272
X1.5059Y-2.05
X1.5059Y-2.2272
X6.15Y-3.85
X6.15Y-4.0272
X6.4059Y-3.85
X6.4059Y-4.0272
X10.Y-3.25
X10.Y-3.4272
X10.2559Y-3.25
X10.2559Y-3.4272
X9.05Y-2.05
X9.05Y-2.2272
X9.3059Y-2.05
X9.3059Y-2.2272
X8.4Y-2.05
X8.4Y-2.2272
X8.6559Y-2.05
X8.6559Y-2.2272
X9.05Y-3.25
X9.05Y-3.4272
X9.3059Y-3.25
X9.3059Y-3.4272
X8.25Y-4.45
X8.25Y-4.6272
X8.5059Y-4.45
X8.5059Y-4.6272
X1.6Y-3.25
X1.6Y-3.4272
X1.8559Y-3.25
X1.8559Y-3.4272
X6.15Y-1.55
X6.15Y-1.7272
X6.4059Y-1.55
X6.4059Y-1.7272
X5.15Y-2.656
X5.15Y-2.8332
X5.4059Y-2.656
X5.4059Y-2.8332
X10.35Y-1.55
X10.35Y-1.7272
X10.6059Y-1.55
X10.6059Y-1.7272
X5.15Y-2.05
X5.15Y-2.2272
X5.4059Y-2.05
X5.4059Y-2.2272
X2.65Y-4.45
X2.65Y-4.6272
X2.9059Y-4.45
X2.9059Y-4.6272
X10.35Y-2.65
X10.35Y-2.8272
X10.6059Y-2.65
X10.6059Y-2.8272
X1.25Y-1.55
X1.25Y-1.7272
X1.5059Y-1.55
X1.5059Y-1.7272
X4.5Y-3.25
X4.5Y-3.4272
X4.7559Y-3.25
X4.7559Y-3.4272
X10.35Y-4.7
X10.35Y-4.8772
X10.6059Y-4.7
X10.6059Y-4.8772
X7.1Y-2.05
X7.1Y-2.2272
X7.3559Y-2.05
X7.3559Y-2.2272
X7.1Y-3.25
X7.1Y-3.4272
X7.3559Y-3.25
X7.3559Y-3.4272
X1.25Y-4.45
X1.25Y-4.6272
X1.5059Y-4.45
X1.5059Y-4.6272
X2.55Y-3.25
X2.55Y-3.4272
X2.8059Y-3.25
X2.8059Y-3.4272
X6.85Y-1.55
X6.85Y-1.7272
X7.1059Y-1.55
X7.1059Y-1.7272
X3.2Y-2.656
X3.2Y-2.8332
X3.4559Y-2.656
X3.4559Y-2.8332
X5.5Y-3.85
X5.5Y-4.0272
X5.7559Y-3.85
X5.7559Y-4.0272
X5.8Y-2.05
X5.8Y-2.2272
X6.0559Y-2.05
X6.0559Y-2.2272
X3.85Y-2.05
X3.85Y-2.2272
X4.1059Y-2.05
X4.1059Y-2.2272
X2.9Y-3.85
X2.9Y-4.0272
X3.1559Y-3.85
X3.1559Y-4.0272
X10.Y-2.05
X10.Y-2.2272
X10.2559Y-2.05
X10.2559Y-2.2272
X6.45Y-3.25
X6.45Y-3.4272
X6.7059Y-3.25
X6.7059Y-3.4272
X8.95Y-4.7
X8.95Y-4.8772
X9.2059Y-4.7
X9.2059Y-4.8772
X3.35Y-4.45
X3.35Y-4.6272
X3.6059Y-4.45
X3.6059Y-4.6272
X9.65Y-4.95
X9.65Y-5.1272
X9.9059Y-4.95
X9.9059Y-5.1272
X7.55Y-1.55
X7.55Y-1.7272
X7.8059Y-1.55
X7.8059Y-1.7272
X4.5Y-2.656
X4.5Y-2.8332
X4.7559Y-2.656
X4.7559Y-2.8332
X8.95Y-1.55
X8.95Y-1.7272
X9.2059Y-1.55
X9.2059Y-1.7272
X8.7441Y-3.85
X8.7441Y-4.0272
X9.Y-3.85
X9.Y-4.0272
X3.2Y-2.05
X3.2Y-2.2272
X3.4559Y-2.05
X3.4559Y-2.2272
X9.05Y-2.65
X9.05Y-2.8272
X9.3059Y-2.65
X9.3059Y-2.8272
X4.85Y-3.85
X4.85Y-4.0272
X5.1059Y-3.85
X5.1059Y-4.0272
X8.25Y-1.55
X8.25Y-1.7272
X8.5059Y-1.55
X8.5059Y-1.7272
X7.55Y-4.45
X7.55Y-4.6272
X7.8059Y-4.45
X7.8059Y-4.6272
T7
X6.4Y-4.3875
X6.4Y-4.9125
X7.Y-4.3875
X7.Y-4.9125
T0
M30
