G04 #@! TF.GenerationSoftware,KiCad,Pcbnew,(5.0.2)-1*
G04 #@! TF.CreationDate,2019-01-21T23:15:36+01:00*
G04 #@! TF.ProjectId,schematic,73636865-6d61-4746-9963-2e6b69636164,rev?*
G04 #@! TF.SameCoordinates,Original*
G04 #@! TF.FileFunction,Copper,L2,Bot*
G04 #@! TF.FilePolarity,Positive*
%FSLAX46Y46*%
G04 Gerber Fmt 4.6, Leading zero omitted, Abs format (unit mm)*
G04 Created by KiCad (PCBNEW (5.0.2)-1) date 21.01.2019 23:15:36*
%MOMM*%
%LPD*%
G01*
G04 APERTURE LIST*
G04 #@! TA.AperFunction,ComponentPad*
%ADD10O,1.600000X1.600000*%
G04 #@! TD*
G04 #@! TA.AperFunction,ComponentPad*
%ADD11C,1.600000*%
G04 #@! TD*
G04 #@! TA.AperFunction,ComponentPad*
%ADD12C,2.286000*%
G04 #@! TD*
G04 #@! TA.AperFunction,ComponentPad*
%ADD13C,1.778000*%
G04 #@! TD*
G04 #@! TA.AperFunction,ComponentPad*
%ADD14C,2.000000*%
G04 #@! TD*
G04 #@! TA.AperFunction,ComponentPad*
%ADD15R,1.700000X1.700000*%
G04 #@! TD*
G04 #@! TA.AperFunction,ComponentPad*
%ADD16O,1.700000X1.700000*%
G04 #@! TD*
G04 #@! TA.AperFunction,ComponentPad*
%ADD17C,1.700000*%
G04 #@! TD*
G04 #@! TA.AperFunction,ViaPad*
%ADD18C,0.800000*%
G04 #@! TD*
G04 #@! TA.AperFunction,Conductor*
%ADD19C,0.250000*%
G04 #@! TD*
G04 APERTURE END LIST*
D10*
G04 #@! TO.P,R1,2*
G04 #@! TO.N,/RESET*
X82550000Y-128270000D03*
D11*
G04 #@! TO.P,R1,1*
G04 #@! TO.N,/+3.3V*
X74930000Y-128270000D03*
G04 #@! TD*
G04 #@! TO.P,C1,2*
G04 #@! TO.N,/GND*
X99060000Y-129500000D03*
G04 #@! TO.P,C1,1*
G04 #@! TO.N,/+3.3V*
X99060000Y-127000000D03*
G04 #@! TD*
G04 #@! TO.P,C3,2*
G04 #@! TO.N,/GND*
X96560000Y-106680000D03*
G04 #@! TO.P,C3,1*
G04 #@! TO.N,/+3.3V*
X99060000Y-106680000D03*
G04 #@! TD*
G04 #@! TO.P,C2,2*
G04 #@! TO.N,/GND*
X129540000Y-111720000D03*
G04 #@! TO.P,C2,1*
G04 #@! TO.N,/+3.3V*
X129540000Y-109220000D03*
G04 #@! TD*
D12*
G04 #@! TO.P,S1,MOUNT1*
G04 #@! TO.N,N/C*
X177800000Y-124777500D03*
G04 #@! TO.P,S1,MOUNT4*
X162560000Y-124777500D03*
G04 #@! TO.P,S1,MOUNT3*
X162560000Y-111442500D03*
G04 #@! TO.P,S1,MOUNT2*
X177800000Y-111442500D03*
D13*
G04 #@! TO.P,S1,H3*
G04 #@! TO.N,/GND*
X167640000Y-107950000D03*
G04 #@! TO.P,S1,H2*
G04 #@! TO.N,Net-(S1-PadH2)*
X170180000Y-107950000D03*
G04 #@! TO.P,S1,H1*
G04 #@! TO.N,/+3.3V*
X172720000Y-107950000D03*
G04 #@! TO.P,S1,V2*
G04 #@! TO.N,Net-(S1-PadV2)*
X180340000Y-118110000D03*
G04 #@! TO.P,S1,V3*
G04 #@! TO.N,/GND*
X180340000Y-115570000D03*
G04 #@! TO.P,S1,V1*
G04 #@! TO.N,/+3.3V*
X180340000Y-120650000D03*
G04 #@! TO.P,S1,B2B*
G04 #@! TO.N,N/C*
X167005000Y-125730000D03*
G04 #@! TO.P,S1,B2A*
G04 #@! TO.N,/GND*
X173355000Y-125730000D03*
G04 #@! TO.P,S1,B1A*
G04 #@! TO.N,Net-(S1-PadB1A)*
X173355000Y-130810000D03*
G04 #@! TO.P,S1,B1B*
G04 #@! TO.N,N/C*
X167005000Y-130810000D03*
G04 #@! TD*
D14*
G04 #@! TO.P,SW31,1*
G04 #@! TO.N,/GND*
X104290000Y-67463076D03*
G04 #@! TO.P,SW31,2*
G04 #@! TO.N,Net-(SW31-Pad2)*
X104290000Y-71963076D03*
G04 #@! TO.P,SW31,1*
G04 #@! TO.N,/GND*
X97790000Y-67463076D03*
G04 #@! TO.P,SW31,2*
G04 #@! TO.N,Net-(SW31-Pad2)*
X97790000Y-71963076D03*
G04 #@! TD*
G04 #@! TO.P,SW22,2*
G04 #@! TO.N,Net-(SW22-Pad2)*
X163830000Y-56570000D03*
G04 #@! TO.P,SW22,1*
G04 #@! TO.N,/GND*
X163830000Y-52070000D03*
G04 #@! TO.P,SW22,2*
G04 #@! TO.N,Net-(SW22-Pad2)*
X170330000Y-56570000D03*
G04 #@! TO.P,SW22,1*
G04 #@! TO.N,/GND*
X170330000Y-52070000D03*
G04 #@! TD*
G04 #@! TO.P,SW23,1*
G04 #@! TO.N,/GND*
X186840000Y-52070000D03*
G04 #@! TO.P,SW23,2*
G04 #@! TO.N,Net-(SW23-Pad2)*
X186840000Y-56570000D03*
G04 #@! TO.P,SW23,1*
G04 #@! TO.N,/GND*
X180340000Y-52070000D03*
G04 #@! TO.P,SW23,2*
G04 #@! TO.N,Net-(SW23-Pad2)*
X180340000Y-56570000D03*
G04 #@! TD*
G04 #@! TO.P,SW24,2*
G04 #@! TO.N,Net-(SW24-Pad2)*
X196850000Y-56570000D03*
G04 #@! TO.P,SW24,1*
G04 #@! TO.N,/GND*
X196850000Y-52070000D03*
G04 #@! TO.P,SW24,2*
G04 #@! TO.N,Net-(SW24-Pad2)*
X203350000Y-56570000D03*
G04 #@! TO.P,SW24,1*
G04 #@! TO.N,/GND*
X203350000Y-52070000D03*
G04 #@! TD*
G04 #@! TO.P,SW25,1*
G04 #@! TO.N,/GND*
X219860000Y-52070000D03*
G04 #@! TO.P,SW25,2*
G04 #@! TO.N,Net-(SW25-Pad2)*
X219860000Y-56570000D03*
G04 #@! TO.P,SW25,1*
G04 #@! TO.N,/GND*
X213360000Y-52070000D03*
G04 #@! TO.P,SW25,2*
G04 #@! TO.N,Net-(SW25-Pad2)*
X213360000Y-56570000D03*
G04 #@! TD*
G04 #@! TO.P,SW26,2*
G04 #@! TO.N,Net-(SW26-Pad2)*
X229870000Y-56570000D03*
G04 #@! TO.P,SW26,1*
G04 #@! TO.N,/GND*
X229870000Y-52070000D03*
G04 #@! TO.P,SW26,2*
G04 #@! TO.N,Net-(SW26-Pad2)*
X236370000Y-56570000D03*
G04 #@! TO.P,SW26,1*
G04 #@! TO.N,/GND*
X236370000Y-52070000D03*
G04 #@! TD*
G04 #@! TO.P,SW27,1*
G04 #@! TO.N,/GND*
X260500000Y-52070000D03*
G04 #@! TO.P,SW27,2*
G04 #@! TO.N,Net-(SW27-Pad2)*
X260500000Y-56570000D03*
G04 #@! TO.P,SW27,1*
G04 #@! TO.N,/GND*
X254000000Y-52070000D03*
G04 #@! TO.P,SW27,2*
G04 #@! TO.N,Net-(SW27-Pad2)*
X254000000Y-56570000D03*
G04 #@! TD*
G04 #@! TO.P,SW28,2*
G04 #@! TO.N,Net-(SW28-Pad2)*
X40640000Y-71810000D03*
G04 #@! TO.P,SW28,1*
G04 #@! TO.N,/GND*
X40640000Y-67310000D03*
G04 #@! TO.P,SW28,2*
G04 #@! TO.N,Net-(SW28-Pad2)*
X47140000Y-71810000D03*
G04 #@! TO.P,SW28,1*
G04 #@! TO.N,/GND*
X47140000Y-67310000D03*
G04 #@! TD*
G04 #@! TO.P,SW39,1*
G04 #@! TO.N,/GND*
X236370000Y-67310000D03*
G04 #@! TO.P,SW39,2*
G04 #@! TO.N,Net-(SW39-Pad2)*
X236370000Y-71810000D03*
G04 #@! TO.P,SW39,1*
G04 #@! TO.N,/GND*
X229870000Y-67310000D03*
G04 #@! TO.P,SW39,2*
G04 #@! TO.N,Net-(SW39-Pad2)*
X229870000Y-71810000D03*
G04 #@! TD*
G04 #@! TO.P,SW0,2*
G04 #@! TO.N,Net-(SW0-Pad2)*
X31750000Y-43870000D03*
G04 #@! TO.P,SW0,1*
G04 #@! TO.N,/GND*
X31750000Y-39370000D03*
G04 #@! TO.P,SW0,2*
G04 #@! TO.N,Net-(SW0-Pad2)*
X38250000Y-43870000D03*
G04 #@! TO.P,SW0,1*
G04 #@! TO.N,/GND*
X38250000Y-39370000D03*
G04 #@! TD*
G04 #@! TO.P,SW30,1*
G04 #@! TO.N,/GND*
X87780000Y-67463076D03*
G04 #@! TO.P,SW30,2*
G04 #@! TO.N,Net-(SW30-Pad2)*
X87780000Y-71963076D03*
G04 #@! TO.P,SW30,1*
G04 #@! TO.N,/GND*
X81280000Y-67463076D03*
G04 #@! TO.P,SW30,2*
G04 #@! TO.N,Net-(SW30-Pad2)*
X81280000Y-71963076D03*
G04 #@! TD*
G04 #@! TO.P,SW32,2*
G04 #@! TO.N,Net-(SW32-Pad2)*
X114300000Y-71963076D03*
G04 #@! TO.P,SW32,1*
G04 #@! TO.N,/GND*
X114300000Y-67463076D03*
G04 #@! TO.P,SW32,2*
G04 #@! TO.N,Net-(SW32-Pad2)*
X120800000Y-71963076D03*
G04 #@! TO.P,SW32,1*
G04 #@! TO.N,/GND*
X120800000Y-67463076D03*
G04 #@! TD*
G04 #@! TO.P,SW33,1*
G04 #@! TO.N,/GND*
X137310000Y-67463076D03*
G04 #@! TO.P,SW33,2*
G04 #@! TO.N,Net-(SW33-Pad2)*
X137310000Y-71963076D03*
G04 #@! TO.P,SW33,1*
G04 #@! TO.N,/GND*
X130810000Y-67463076D03*
G04 #@! TO.P,SW33,2*
G04 #@! TO.N,Net-(SW33-Pad2)*
X130810000Y-71963076D03*
G04 #@! TD*
G04 #@! TO.P,SW34,2*
G04 #@! TO.N,Net-(SW34-Pad2)*
X147320000Y-71963076D03*
G04 #@! TO.P,SW34,1*
G04 #@! TO.N,/GND*
X147320000Y-67463076D03*
G04 #@! TO.P,SW34,2*
G04 #@! TO.N,Net-(SW34-Pad2)*
X153820000Y-71963076D03*
G04 #@! TO.P,SW34,1*
G04 #@! TO.N,/GND*
X153820000Y-67463076D03*
G04 #@! TD*
G04 #@! TO.P,SW35,1*
G04 #@! TO.N,/GND*
X170330000Y-67310000D03*
G04 #@! TO.P,SW35,2*
G04 #@! TO.N,Net-(SW35-Pad2)*
X170330000Y-71810000D03*
G04 #@! TO.P,SW35,1*
G04 #@! TO.N,/GND*
X163830000Y-67310000D03*
G04 #@! TO.P,SW35,2*
G04 #@! TO.N,Net-(SW35-Pad2)*
X163830000Y-71810000D03*
G04 #@! TD*
G04 #@! TO.P,SW36,2*
G04 #@! TO.N,Net-(SW36-Pad2)*
X180340000Y-71810000D03*
G04 #@! TO.P,SW36,1*
G04 #@! TO.N,/GND*
X180340000Y-67310000D03*
G04 #@! TO.P,SW36,2*
G04 #@! TO.N,Net-(SW36-Pad2)*
X186840000Y-71810000D03*
G04 #@! TO.P,SW36,1*
G04 #@! TO.N,/GND*
X186840000Y-67310000D03*
G04 #@! TD*
G04 #@! TO.P,SW37,1*
G04 #@! TO.N,/GND*
X203350000Y-67310000D03*
G04 #@! TO.P,SW37,2*
G04 #@! TO.N,Net-(SW37-Pad2)*
X203350000Y-71810000D03*
G04 #@! TO.P,SW37,1*
G04 #@! TO.N,/GND*
X196850000Y-67310000D03*
G04 #@! TO.P,SW37,2*
G04 #@! TO.N,Net-(SW37-Pad2)*
X196850000Y-71810000D03*
G04 #@! TD*
G04 #@! TO.P,SW38,2*
G04 #@! TO.N,Net-(SW38-Pad2)*
X213210000Y-71810000D03*
G04 #@! TO.P,SW38,1*
G04 #@! TO.N,/GND*
X213210000Y-67310000D03*
G04 #@! TO.P,SW38,2*
G04 #@! TO.N,Net-(SW38-Pad2)*
X219710000Y-71810000D03*
G04 #@! TO.P,SW38,1*
G04 #@! TO.N,/GND*
X219710000Y-67310000D03*
G04 #@! TD*
G04 #@! TO.P,SW29,1*
G04 #@! TO.N,/GND*
X71270000Y-67463076D03*
G04 #@! TO.P,SW29,2*
G04 #@! TO.N,Net-(SW29-Pad2)*
X71270000Y-71963076D03*
G04 #@! TO.P,SW29,1*
G04 #@! TO.N,/GND*
X64770000Y-67463076D03*
G04 #@! TO.P,SW29,2*
G04 #@! TO.N,Net-(SW29-Pad2)*
X64770000Y-71963076D03*
G04 #@! TD*
G04 #@! TO.P,SW9,2*
G04 #@! TO.N,Net-(SW9-Pad2)*
X191770000Y-43870000D03*
G04 #@! TO.P,SW9,1*
G04 #@! TO.N,/GND*
X191770000Y-39370000D03*
G04 #@! TO.P,SW9,2*
G04 #@! TO.N,Net-(SW9-Pad2)*
X198270000Y-43870000D03*
G04 #@! TO.P,SW9,1*
G04 #@! TO.N,/GND*
X198270000Y-39370000D03*
G04 #@! TD*
G04 #@! TO.P,SW8,1*
G04 #@! TO.N,/GND*
X180490000Y-39370000D03*
G04 #@! TO.P,SW8,2*
G04 #@! TO.N,Net-(SW8-Pad2)*
X180490000Y-43870000D03*
G04 #@! TO.P,SW8,1*
G04 #@! TO.N,/GND*
X173990000Y-39370000D03*
G04 #@! TO.P,SW8,2*
G04 #@! TO.N,Net-(SW8-Pad2)*
X173990000Y-43870000D03*
G04 #@! TD*
G04 #@! TO.P,SW7,2*
G04 #@! TO.N,Net-(SW7-Pad2)*
X156210000Y-43870000D03*
G04 #@! TO.P,SW7,1*
G04 #@! TO.N,/GND*
X156210000Y-39370000D03*
G04 #@! TO.P,SW7,2*
G04 #@! TO.N,Net-(SW7-Pad2)*
X162710000Y-43870000D03*
G04 #@! TO.P,SW7,1*
G04 #@! TO.N,/GND*
X162710000Y-39370000D03*
G04 #@! TD*
G04 #@! TO.P,SW6,1*
G04 #@! TO.N,/GND*
X144930000Y-39370000D03*
G04 #@! TO.P,SW6,2*
G04 #@! TO.N,Net-(SW6-Pad2)*
X144930000Y-43870000D03*
G04 #@! TO.P,SW6,1*
G04 #@! TO.N,/GND*
X138430000Y-39370000D03*
G04 #@! TO.P,SW6,2*
G04 #@! TO.N,Net-(SW6-Pad2)*
X138430000Y-43870000D03*
G04 #@! TD*
G04 #@! TO.P,SW5,2*
G04 #@! TO.N,Net-(SW5-Pad2)*
X120650000Y-43870000D03*
G04 #@! TO.P,SW5,1*
G04 #@! TO.N,/GND*
X120650000Y-39370000D03*
G04 #@! TO.P,SW5,2*
G04 #@! TO.N,Net-(SW5-Pad2)*
X127150000Y-43870000D03*
G04 #@! TO.P,SW5,1*
G04 #@! TO.N,/GND*
X127150000Y-39370000D03*
G04 #@! TD*
G04 #@! TO.P,SW4,1*
G04 #@! TO.N,/GND*
X109370000Y-39370000D03*
G04 #@! TO.P,SW4,2*
G04 #@! TO.N,Net-(SW4-Pad2)*
X109370000Y-43870000D03*
G04 #@! TO.P,SW4,1*
G04 #@! TO.N,/GND*
X102870000Y-39370000D03*
G04 #@! TO.P,SW4,2*
G04 #@! TO.N,Net-(SW4-Pad2)*
X102870000Y-43870000D03*
G04 #@! TD*
G04 #@! TO.P,SW3,2*
G04 #@! TO.N,Net-(SW3-Pad2)*
X85090000Y-43870000D03*
G04 #@! TO.P,SW3,1*
G04 #@! TO.N,/GND*
X85090000Y-39370000D03*
G04 #@! TO.P,SW3,2*
G04 #@! TO.N,Net-(SW3-Pad2)*
X91590000Y-43870000D03*
G04 #@! TO.P,SW3,1*
G04 #@! TO.N,/GND*
X91590000Y-39370000D03*
G04 #@! TD*
G04 #@! TO.P,SW2,1*
G04 #@! TO.N,/GND*
X73810000Y-39370000D03*
G04 #@! TO.P,SW2,2*
G04 #@! TO.N,Net-(SW2-Pad2)*
X73810000Y-43870000D03*
G04 #@! TO.P,SW2,1*
G04 #@! TO.N,/GND*
X67310000Y-39370000D03*
G04 #@! TO.P,SW2,2*
G04 #@! TO.N,Net-(SW2-Pad2)*
X67310000Y-43870000D03*
G04 #@! TD*
G04 #@! TO.P,SW19,2*
G04 #@! TO.N,Net-(SW19-Pad2)*
X114300000Y-56570000D03*
G04 #@! TO.P,SW19,1*
G04 #@! TO.N,/GND*
X114300000Y-52070000D03*
G04 #@! TO.P,SW19,2*
G04 #@! TO.N,Net-(SW19-Pad2)*
X120800000Y-56570000D03*
G04 #@! TO.P,SW19,1*
G04 #@! TO.N,/GND*
X120800000Y-52070000D03*
G04 #@! TD*
G04 #@! TO.P,SW21,1*
G04 #@! TO.N,/GND*
X153820000Y-52070000D03*
G04 #@! TO.P,SW21,2*
G04 #@! TO.N,Net-(SW21-Pad2)*
X153820000Y-56570000D03*
G04 #@! TO.P,SW21,1*
G04 #@! TO.N,/GND*
X147320000Y-52070000D03*
G04 #@! TO.P,SW21,2*
G04 #@! TO.N,Net-(SW21-Pad2)*
X147320000Y-56570000D03*
G04 #@! TD*
G04 #@! TO.P,SW20,2*
G04 #@! TO.N,Net-(SW20-Pad2)*
X130810000Y-56570000D03*
G04 #@! TO.P,SW20,1*
G04 #@! TO.N,/GND*
X130810000Y-52070000D03*
G04 #@! TO.P,SW20,2*
G04 #@! TO.N,Net-(SW20-Pad2)*
X137310000Y-56570000D03*
G04 #@! TO.P,SW20,1*
G04 #@! TO.N,/GND*
X137310000Y-52070000D03*
G04 #@! TD*
G04 #@! TO.P,SW11,1*
G04 #@! TO.N,/GND*
X233830000Y-39370000D03*
G04 #@! TO.P,SW11,2*
G04 #@! TO.N,Net-(SW11-Pad2)*
X233830000Y-43870000D03*
G04 #@! TO.P,SW11,1*
G04 #@! TO.N,/GND*
X227330000Y-39370000D03*
G04 #@! TO.P,SW11,2*
G04 #@! TO.N,Net-(SW11-Pad2)*
X227330000Y-43870000D03*
G04 #@! TD*
G04 #@! TO.P,SW12,2*
G04 #@! TO.N,Net-(SW12-Pad2)*
X245110000Y-43870000D03*
G04 #@! TO.P,SW12,1*
G04 #@! TO.N,/GND*
X245110000Y-39370000D03*
G04 #@! TO.P,SW12,2*
G04 #@! TO.N,Net-(SW12-Pad2)*
X251610000Y-43870000D03*
G04 #@! TO.P,SW12,1*
G04 #@! TO.N,/GND*
X251610000Y-39370000D03*
G04 #@! TD*
G04 #@! TO.P,SW13,1*
G04 #@! TO.N,/GND*
X269390000Y-39370000D03*
G04 #@! TO.P,SW13,2*
G04 #@! TO.N,Net-(SW13-Pad2)*
X269390000Y-43870000D03*
G04 #@! TO.P,SW13,1*
G04 #@! TO.N,/GND*
X262890000Y-39370000D03*
G04 #@! TO.P,SW13,2*
G04 #@! TO.N,Net-(SW13-Pad2)*
X262890000Y-43870000D03*
G04 #@! TD*
G04 #@! TO.P,SW14,2*
G04 #@! TO.N,Net-(SW14-Pad2)*
X31750000Y-56570000D03*
G04 #@! TO.P,SW14,1*
G04 #@! TO.N,/GND*
X31750000Y-52070000D03*
G04 #@! TO.P,SW14,2*
G04 #@! TO.N,Net-(SW14-Pad2)*
X38250000Y-56570000D03*
G04 #@! TO.P,SW14,1*
G04 #@! TO.N,/GND*
X38250000Y-52070000D03*
G04 #@! TD*
G04 #@! TO.P,SW15,1*
G04 #@! TO.N,/GND*
X54760000Y-52070000D03*
G04 #@! TO.P,SW15,2*
G04 #@! TO.N,/PB3*
X54760000Y-56570000D03*
G04 #@! TO.P,SW15,1*
G04 #@! TO.N,/GND*
X48260000Y-52070000D03*
G04 #@! TO.P,SW15,2*
G04 #@! TO.N,/PB3*
X48260000Y-56570000D03*
G04 #@! TD*
G04 #@! TO.P,SW16,2*
G04 #@! TO.N,Net-(SW16-Pad2)*
X64770000Y-56570000D03*
G04 #@! TO.P,SW16,1*
G04 #@! TO.N,/GND*
X64770000Y-52070000D03*
G04 #@! TO.P,SW16,2*
G04 #@! TO.N,Net-(SW16-Pad2)*
X71270000Y-56570000D03*
G04 #@! TO.P,SW16,1*
G04 #@! TO.N,/GND*
X71270000Y-52070000D03*
G04 #@! TD*
G04 #@! TO.P,SW17,1*
G04 #@! TO.N,/GND*
X87780000Y-52070000D03*
G04 #@! TO.P,SW17,2*
G04 #@! TO.N,Net-(SW17-Pad2)*
X87780000Y-56570000D03*
G04 #@! TO.P,SW17,1*
G04 #@! TO.N,/GND*
X81280000Y-52070000D03*
G04 #@! TO.P,SW17,2*
G04 #@! TO.N,Net-(SW17-Pad2)*
X81280000Y-56570000D03*
G04 #@! TD*
G04 #@! TO.P,SW18,2*
G04 #@! TO.N,Net-(SW18-Pad2)*
X97790000Y-56570000D03*
G04 #@! TO.P,SW18,1*
G04 #@! TO.N,/GND*
X97790000Y-52070000D03*
G04 #@! TO.P,SW18,2*
G04 #@! TO.N,Net-(SW18-Pad2)*
X104290000Y-56570000D03*
G04 #@! TO.P,SW18,1*
G04 #@! TO.N,/GND*
X104290000Y-52070000D03*
G04 #@! TD*
G04 #@! TO.P,SW1,1*
G04 #@! TO.N,/GND*
X56030000Y-39370000D03*
G04 #@! TO.P,SW1,2*
G04 #@! TO.N,Net-(SW1-Pad2)*
X56030000Y-43870000D03*
G04 #@! TO.P,SW1,1*
G04 #@! TO.N,/GND*
X49530000Y-39370000D03*
G04 #@! TO.P,SW1,2*
G04 #@! TO.N,Net-(SW1-Pad2)*
X49530000Y-43870000D03*
G04 #@! TD*
G04 #@! TO.P,SW69,2*
G04 #@! TO.N,/PB1*
X67310000Y-117530000D03*
G04 #@! TO.P,SW69,1*
G04 #@! TO.N,/GND*
X67310000Y-113030000D03*
G04 #@! TO.P,SW69,2*
G04 #@! TO.N,/PB1*
X73810000Y-117530000D03*
G04 #@! TO.P,SW69,1*
G04 #@! TO.N,/GND*
X73810000Y-113030000D03*
G04 #@! TD*
G04 #@! TO.P,SW60,1*
G04 #@! TO.N,/GND*
X146200000Y-97790000D03*
G04 #@! TO.P,SW60,2*
G04 #@! TO.N,Net-(SW60-Pad2)*
X146200000Y-102290000D03*
G04 #@! TO.P,SW60,1*
G04 #@! TO.N,/GND*
X139700000Y-97790000D03*
G04 #@! TO.P,SW60,2*
G04 #@! TO.N,Net-(SW60-Pad2)*
X139700000Y-102290000D03*
G04 #@! TD*
G04 #@! TO.P,SW61,2*
G04 #@! TO.N,Net-(SW61-Pad2)*
X156210000Y-102290000D03*
G04 #@! TO.P,SW61,1*
G04 #@! TO.N,/GND*
X156210000Y-97790000D03*
G04 #@! TO.P,SW61,2*
G04 #@! TO.N,Net-(SW61-Pad2)*
X162710000Y-102290000D03*
G04 #@! TO.P,SW61,1*
G04 #@! TO.N,/GND*
X162710000Y-97790000D03*
G04 #@! TD*
G04 #@! TO.P,SW62,1*
G04 #@! TO.N,/GND*
X179220000Y-97790000D03*
G04 #@! TO.P,SW62,2*
G04 #@! TO.N,Net-(SW62-Pad2)*
X179220000Y-102290000D03*
G04 #@! TO.P,SW62,1*
G04 #@! TO.N,/GND*
X172720000Y-97790000D03*
G04 #@! TO.P,SW62,2*
G04 #@! TO.N,Net-(SW62-Pad2)*
X172720000Y-102290000D03*
G04 #@! TD*
G04 #@! TO.P,SW63,2*
G04 #@! TO.N,Net-(SW63-Pad2)*
X189230000Y-102290000D03*
G04 #@! TO.P,SW63,1*
G04 #@! TO.N,/GND*
X189230000Y-97790000D03*
G04 #@! TO.P,SW63,2*
G04 #@! TO.N,Net-(SW63-Pad2)*
X195730000Y-102290000D03*
G04 #@! TO.P,SW63,1*
G04 #@! TO.N,/GND*
X195730000Y-97790000D03*
G04 #@! TD*
G04 #@! TO.P,SW64,1*
G04 #@! TO.N,/GND*
X212240000Y-97790000D03*
G04 #@! TO.P,SW64,2*
G04 #@! TO.N,Net-(SW64-Pad2)*
X212240000Y-102290000D03*
G04 #@! TO.P,SW64,1*
G04 #@! TO.N,/GND*
X205740000Y-97790000D03*
G04 #@! TO.P,SW64,2*
G04 #@! TO.N,Net-(SW64-Pad2)*
X205740000Y-102290000D03*
G04 #@! TD*
G04 #@! TO.P,SW65,2*
G04 #@! TO.N,Net-(SW65-Pad2)*
X222100000Y-102290000D03*
G04 #@! TO.P,SW65,1*
G04 #@! TO.N,/GND*
X222100000Y-97790000D03*
G04 #@! TO.P,SW65,2*
G04 #@! TO.N,Net-(SW65-Pad2)*
X228600000Y-102290000D03*
G04 #@! TO.P,SW65,1*
G04 #@! TO.N,/GND*
X228600000Y-97790000D03*
G04 #@! TD*
G04 #@! TO.P,SW66,1*
G04 #@! TO.N,/GND*
X256690000Y-97790000D03*
G04 #@! TO.P,SW66,2*
G04 #@! TO.N,Net-(SW66-Pad2)*
X256690000Y-102290000D03*
G04 #@! TO.P,SW66,1*
G04 #@! TO.N,/GND*
X250190000Y-97790000D03*
G04 #@! TO.P,SW66,2*
G04 #@! TO.N,Net-(SW66-Pad2)*
X250190000Y-102290000D03*
G04 #@! TD*
G04 #@! TO.P,SW58,2*
G04 #@! TO.N,Net-(SW58-Pad2)*
X106680000Y-102290000D03*
G04 #@! TO.P,SW58,1*
G04 #@! TO.N,/GND*
X106680000Y-97790000D03*
G04 #@! TO.P,SW58,2*
G04 #@! TO.N,Net-(SW58-Pad2)*
X113180000Y-102290000D03*
G04 #@! TO.P,SW58,1*
G04 #@! TO.N,/GND*
X113180000Y-97790000D03*
G04 #@! TD*
G04 #@! TO.P,SW59,1*
G04 #@! TO.N,/GND*
X129690000Y-97790000D03*
G04 #@! TO.P,SW59,2*
G04 #@! TO.N,Net-(SW59-Pad2)*
X129690000Y-102290000D03*
G04 #@! TO.P,SW59,1*
G04 #@! TO.N,/GND*
X123190000Y-97790000D03*
G04 #@! TO.P,SW59,2*
G04 #@! TO.N,Net-(SW59-Pad2)*
X123190000Y-102290000D03*
G04 #@! TD*
G04 #@! TO.P,SW10,2*
G04 #@! TO.N,Net-(SW10-Pad2)*
X209550000Y-43870000D03*
G04 #@! TO.P,SW10,1*
G04 #@! TO.N,/GND*
X209550000Y-39370000D03*
G04 #@! TO.P,SW10,2*
G04 #@! TO.N,Net-(SW10-Pad2)*
X216050000Y-43870000D03*
G04 #@! TO.P,SW10,1*
G04 #@! TO.N,/GND*
X216050000Y-39370000D03*
G04 #@! TD*
G04 #@! TO.P,SW70,1*
G04 #@! TO.N,/GND*
X91590000Y-113030000D03*
G04 #@! TO.P,SW70,2*
G04 #@! TO.N,Net-(SW70-Pad2)*
X91590000Y-117530000D03*
G04 #@! TO.P,SW70,1*
G04 #@! TO.N,/GND*
X85090000Y-113030000D03*
G04 #@! TO.P,SW70,2*
G04 #@! TO.N,Net-(SW70-Pad2)*
X85090000Y-117530000D03*
G04 #@! TD*
G04 #@! TO.P,SW71,2*
G04 #@! TO.N,/GND*
X120650000Y-117530000D03*
G04 #@! TO.P,SW71,1*
G04 #@! TO.N,Net-(SW71-Pad1)*
X120650000Y-113030000D03*
G04 #@! TO.P,SW71,2*
G04 #@! TO.N,/GND*
X127150000Y-117530000D03*
G04 #@! TO.P,SW71,1*
G04 #@! TO.N,Net-(SW71-Pad1)*
X127150000Y-113030000D03*
G04 #@! TD*
G04 #@! TO.P,SW72,1*
G04 #@! TO.N,/GND*
X198270000Y-113030000D03*
G04 #@! TO.P,SW72,2*
G04 #@! TO.N,Net-(SW72-Pad2)*
X198270000Y-117530000D03*
G04 #@! TO.P,SW72,1*
G04 #@! TO.N,/GND*
X191770000Y-113030000D03*
G04 #@! TO.P,SW72,2*
G04 #@! TO.N,Net-(SW72-Pad2)*
X191770000Y-117530000D03*
G04 #@! TD*
G04 #@! TO.P,SW73,2*
G04 #@! TO.N,Net-(SW73-Pad2)*
X209550000Y-117530000D03*
G04 #@! TO.P,SW73,1*
G04 #@! TO.N,/GND*
X209550000Y-113030000D03*
G04 #@! TO.P,SW73,2*
G04 #@! TO.N,Net-(SW73-Pad2)*
X216050000Y-117530000D03*
G04 #@! TO.P,SW73,1*
G04 #@! TO.N,/GND*
X216050000Y-113030000D03*
G04 #@! TD*
G04 #@! TO.P,SW74,1*
G04 #@! TO.N,/GND*
X233830000Y-119380000D03*
G04 #@! TO.P,SW74,2*
G04 #@! TO.N,Net-(SW74-Pad2)*
X233830000Y-123880000D03*
G04 #@! TO.P,SW74,1*
G04 #@! TO.N,/GND*
X227330000Y-119380000D03*
G04 #@! TO.P,SW74,2*
G04 #@! TO.N,Net-(SW74-Pad2)*
X227330000Y-123880000D03*
G04 #@! TD*
G04 #@! TO.P,SW75,2*
G04 #@! TO.N,Net-(SW75-Pad2)*
X245110000Y-117530000D03*
G04 #@! TO.P,SW75,1*
G04 #@! TO.N,/GND*
X245110000Y-113030000D03*
G04 #@! TO.P,SW75,2*
G04 #@! TO.N,Net-(SW75-Pad2)*
X251610000Y-117530000D03*
G04 #@! TO.P,SW75,1*
G04 #@! TO.N,/GND*
X251610000Y-113030000D03*
G04 #@! TD*
G04 #@! TO.P,SW76,1*
G04 #@! TO.N,Net-(SW76-Pad1)*
X251610000Y-125730000D03*
G04 #@! TO.P,SW76,2*
G04 #@! TO.N,/GND*
X251610000Y-130230000D03*
G04 #@! TO.P,SW76,1*
G04 #@! TO.N,Net-(SW76-Pad1)*
X245110000Y-125730000D03*
G04 #@! TO.P,SW76,2*
G04 #@! TO.N,/GND*
X245110000Y-130230000D03*
G04 #@! TD*
G04 #@! TO.P,SW67,2*
G04 #@! TO.N,Net-(SW67-Pad2)*
X31750000Y-117530000D03*
G04 #@! TO.P,SW67,1*
G04 #@! TO.N,/GND*
X31750000Y-113030000D03*
G04 #@! TO.P,SW67,2*
G04 #@! TO.N,Net-(SW67-Pad2)*
X38250000Y-117530000D03*
G04 #@! TO.P,SW67,1*
G04 #@! TO.N,/GND*
X38250000Y-113030000D03*
G04 #@! TD*
G04 #@! TO.P,SW77,1*
G04 #@! TO.N,/GND*
X269390000Y-119380000D03*
G04 #@! TO.P,SW77,2*
G04 #@! TO.N,Net-(SW77-Pad2)*
X269390000Y-123880000D03*
G04 #@! TO.P,SW77,1*
G04 #@! TO.N,/GND*
X262890000Y-119380000D03*
G04 #@! TO.P,SW77,2*
G04 #@! TO.N,Net-(SW77-Pad2)*
X262890000Y-123880000D03*
G04 #@! TD*
G04 #@! TO.P,SW40,2*
G04 #@! TO.N,Net-(SW40-Pad2)*
X246380000Y-71810000D03*
G04 #@! TO.P,SW40,1*
G04 #@! TO.N,/GND*
X246380000Y-67310000D03*
G04 #@! TO.P,SW40,2*
G04 #@! TO.N,Net-(SW40-Pad2)*
X252880000Y-71810000D03*
G04 #@! TO.P,SW40,1*
G04 #@! TO.N,/GND*
X252880000Y-67310000D03*
G04 #@! TD*
G04 #@! TO.P,SW42,1*
G04 #@! TO.N,/GND*
X47140000Y-82550000D03*
G04 #@! TO.P,SW42,2*
G04 #@! TO.N,Net-(SW42-Pad2)*
X47140000Y-87050000D03*
G04 #@! TO.P,SW42,1*
G04 #@! TO.N,/GND*
X40640000Y-82550000D03*
G04 #@! TO.P,SW42,2*
G04 #@! TO.N,Net-(SW42-Pad2)*
X40640000Y-87050000D03*
G04 #@! TD*
G04 #@! TO.P,SW43,2*
G04 #@! TO.N,Net-(SW43-Pad2)*
X64770000Y-87050000D03*
G04 #@! TO.P,SW43,1*
G04 #@! TO.N,/GND*
X64770000Y-82550000D03*
G04 #@! TO.P,SW43,2*
G04 #@! TO.N,Net-(SW43-Pad2)*
X71270000Y-87050000D03*
G04 #@! TO.P,SW43,1*
G04 #@! TO.N,/GND*
X71270000Y-82550000D03*
G04 #@! TD*
G04 #@! TO.P,SW44,1*
G04 #@! TO.N,/GND*
X87780000Y-82550000D03*
G04 #@! TO.P,SW44,2*
G04 #@! TO.N,Net-(SW44-Pad2)*
X87780000Y-87050000D03*
G04 #@! TO.P,SW44,1*
G04 #@! TO.N,/GND*
X81280000Y-82550000D03*
G04 #@! TO.P,SW44,2*
G04 #@! TO.N,Net-(SW44-Pad2)*
X81280000Y-87050000D03*
G04 #@! TD*
G04 #@! TO.P,SW45,2*
G04 #@! TO.N,Net-(SW45-Pad2)*
X97790000Y-87050000D03*
G04 #@! TO.P,SW45,1*
G04 #@! TO.N,/GND*
X97790000Y-82550000D03*
G04 #@! TO.P,SW45,2*
G04 #@! TO.N,Net-(SW45-Pad2)*
X104290000Y-87050000D03*
G04 #@! TO.P,SW45,1*
G04 #@! TO.N,/GND*
X104290000Y-82550000D03*
G04 #@! TD*
G04 #@! TO.P,SW46,1*
G04 #@! TO.N,/GND*
X120800000Y-82550000D03*
G04 #@! TO.P,SW46,2*
G04 #@! TO.N,Net-(SW46-Pad2)*
X120800000Y-87050000D03*
G04 #@! TO.P,SW46,1*
G04 #@! TO.N,/GND*
X114300000Y-82550000D03*
G04 #@! TO.P,SW46,2*
G04 #@! TO.N,Net-(SW46-Pad2)*
X114300000Y-87050000D03*
G04 #@! TD*
G04 #@! TO.P,SW47,2*
G04 #@! TO.N,Net-(SW47-Pad2)*
X130810000Y-87050000D03*
G04 #@! TO.P,SW47,1*
G04 #@! TO.N,/GND*
X130810000Y-82550000D03*
G04 #@! TO.P,SW47,2*
G04 #@! TO.N,Net-(SW47-Pad2)*
X137310000Y-87050000D03*
G04 #@! TO.P,SW47,1*
G04 #@! TO.N,/GND*
X137310000Y-82550000D03*
G04 #@! TD*
G04 #@! TO.P,SW48,1*
G04 #@! TO.N,/GND*
X153820000Y-82550000D03*
G04 #@! TO.P,SW48,2*
G04 #@! TO.N,Net-(SW48-Pad2)*
X153820000Y-87050000D03*
G04 #@! TO.P,SW48,1*
G04 #@! TO.N,/GND*
X147320000Y-82550000D03*
G04 #@! TO.P,SW48,2*
G04 #@! TO.N,Net-(SW48-Pad2)*
X147320000Y-87050000D03*
G04 #@! TD*
G04 #@! TO.P,SW49,2*
G04 #@! TO.N,Net-(SW49-Pad2)*
X163830000Y-87050000D03*
G04 #@! TO.P,SW49,1*
G04 #@! TO.N,/GND*
X163830000Y-82550000D03*
G04 #@! TO.P,SW49,2*
G04 #@! TO.N,Net-(SW49-Pad2)*
X170330000Y-87050000D03*
G04 #@! TO.P,SW49,1*
G04 #@! TO.N,/GND*
X170330000Y-82550000D03*
G04 #@! TD*
G04 #@! TO.P,SW41,1*
G04 #@! TO.N,/GND*
X269390000Y-67310000D03*
G04 #@! TO.P,SW41,2*
G04 #@! TO.N,Net-(SW41-Pad2)*
X269390000Y-71810000D03*
G04 #@! TO.P,SW41,1*
G04 #@! TO.N,/GND*
X262890000Y-67310000D03*
G04 #@! TO.P,SW41,2*
G04 #@! TO.N,Net-(SW41-Pad2)*
X262890000Y-71810000D03*
G04 #@! TD*
G04 #@! TO.P,SW50,2*
G04 #@! TO.N,Net-(SW50-Pad2)*
X180340000Y-87050000D03*
G04 #@! TO.P,SW50,1*
G04 #@! TO.N,/GND*
X180340000Y-82550000D03*
G04 #@! TO.P,SW50,2*
G04 #@! TO.N,Net-(SW50-Pad2)*
X186840000Y-87050000D03*
G04 #@! TO.P,SW50,1*
G04 #@! TO.N,/GND*
X186840000Y-82550000D03*
G04 #@! TD*
G04 #@! TO.P,SW57,1*
G04 #@! TO.N,/GND*
X96670000Y-97790000D03*
G04 #@! TO.P,SW57,2*
G04 #@! TO.N,Net-(SW57-Pad2)*
X96670000Y-102290000D03*
G04 #@! TO.P,SW57,1*
G04 #@! TO.N,/GND*
X90170000Y-97790000D03*
G04 #@! TO.P,SW57,2*
G04 #@! TO.N,Net-(SW57-Pad2)*
X90170000Y-102290000D03*
G04 #@! TD*
G04 #@! TO.P,SW56,2*
G04 #@! TO.N,Net-(SW56-Pad2)*
X73660000Y-102290000D03*
G04 #@! TO.P,SW56,1*
G04 #@! TO.N,/GND*
X73660000Y-97790000D03*
G04 #@! TO.P,SW56,2*
G04 #@! TO.N,Net-(SW56-Pad2)*
X80160000Y-102290000D03*
G04 #@! TO.P,SW56,1*
G04 #@! TO.N,/GND*
X80160000Y-97790000D03*
G04 #@! TD*
G04 #@! TO.P,SW55,1*
G04 #@! TO.N,/GND*
X50950000Y-97790000D03*
G04 #@! TO.P,SW55,2*
G04 #@! TO.N,Net-(SW55-Pad2)*
X50950000Y-102290000D03*
G04 #@! TO.P,SW55,1*
G04 #@! TO.N,/GND*
X44450000Y-97790000D03*
G04 #@! TO.P,SW55,2*
G04 #@! TO.N,Net-(SW55-Pad2)*
X44450000Y-102290000D03*
G04 #@! TD*
G04 #@! TO.P,SW54,2*
G04 #@! TO.N,Net-(SW54-Pad2)*
X254000000Y-87050000D03*
G04 #@! TO.P,SW54,1*
G04 #@! TO.N,/GND*
X254000000Y-82550000D03*
G04 #@! TO.P,SW54,2*
G04 #@! TO.N,Net-(SW54-Pad2)*
X260500000Y-87050000D03*
G04 #@! TO.P,SW54,1*
G04 #@! TO.N,/GND*
X260500000Y-82550000D03*
G04 #@! TD*
G04 #@! TO.P,SW53,1*
G04 #@! TO.N,/GND*
X236370000Y-82550000D03*
G04 #@! TO.P,SW53,2*
G04 #@! TO.N,Net-(SW53-Pad2)*
X236370000Y-87050000D03*
G04 #@! TO.P,SW53,1*
G04 #@! TO.N,/GND*
X229870000Y-82550000D03*
G04 #@! TO.P,SW53,2*
G04 #@! TO.N,Net-(SW53-Pad2)*
X229870000Y-87050000D03*
G04 #@! TD*
G04 #@! TO.P,SW52,2*
G04 #@! TO.N,Net-(SW52-Pad2)*
X213360000Y-87050000D03*
G04 #@! TO.P,SW52,1*
G04 #@! TO.N,/GND*
X213360000Y-82550000D03*
G04 #@! TO.P,SW52,2*
G04 #@! TO.N,Net-(SW52-Pad2)*
X219860000Y-87050000D03*
G04 #@! TO.P,SW52,1*
G04 #@! TO.N,/GND*
X219860000Y-82550000D03*
G04 #@! TD*
G04 #@! TO.P,SW51,1*
G04 #@! TO.N,/GND*
X203350000Y-82550000D03*
G04 #@! TO.P,SW51,2*
G04 #@! TO.N,Net-(SW51-Pad2)*
X203350000Y-87050000D03*
G04 #@! TO.P,SW51,1*
G04 #@! TO.N,/GND*
X196850000Y-82550000D03*
G04 #@! TO.P,SW51,2*
G04 #@! TO.N,Net-(SW51-Pad2)*
X196850000Y-87050000D03*
G04 #@! TD*
G04 #@! TO.P,SW68,2*
G04 #@! TO.N,/PB2*
X49530000Y-117530000D03*
G04 #@! TO.P,SW68,1*
G04 #@! TO.N,/GND*
X49530000Y-113030000D03*
G04 #@! TO.P,SW68,2*
G04 #@! TO.N,/PB2*
X56030000Y-117530000D03*
G04 #@! TO.P,SW68,1*
G04 #@! TO.N,/GND*
X56030000Y-113030000D03*
G04 #@! TD*
D15*
G04 #@! TO.P,J2,1*
G04 #@! TO.N,/+3.3V*
X27940000Y-45720000D03*
D16*
G04 #@! TO.P,J2,2*
G04 #@! TO.N,/GND*
X27940000Y-43180000D03*
G04 #@! TO.P,J2,3*
G04 #@! TO.N,/DATA*
X27940000Y-40640000D03*
G04 #@! TD*
D15*
G04 #@! TO.P,J1,1*
G04 #@! TO.N,/PB3*
X140970000Y-113030000D03*
D16*
G04 #@! TO.P,J1,2*
G04 #@! TO.N,Net-(J1-Pad2)*
X143510000Y-113030000D03*
G04 #@! TO.P,J1,3*
G04 #@! TO.N,/PB1*
X140970000Y-115570000D03*
G04 #@! TO.P,J1,4*
G04 #@! TO.N,/PB2*
X143510000Y-115570000D03*
G04 #@! TO.P,J1,5*
G04 #@! TO.N,/RESET*
X140970000Y-118110000D03*
G04 #@! TO.P,J1,6*
G04 #@! TO.N,/GND*
X143510000Y-118110000D03*
G04 #@! TD*
D17*
G04 #@! TO.P,Y1,1*
G04 #@! TO.N,Net-(U1-Pad34)*
X93980000Y-128270000D03*
G04 #@! TO.P,Y1,2*
G04 #@! TO.N,/GND*
X91480000Y-128270000D03*
G04 #@! TO.P,Y1,3*
G04 #@! TO.N,Net-(U1-Pad33)*
X88980000Y-128270000D03*
G04 #@! TD*
D18*
G04 #@! TO.N,/+3.3V*
X154395001Y-113574999D03*
X104140000Y-132080000D03*
G04 #@! TO.N,/RESET*
X103000000Y-130940000D03*
G04 #@! TO.N,/GND*
X103915000Y-127000000D03*
X101600000Y-117585000D03*
X99060000Y-104140000D03*
X113030000Y-105490000D03*
X273050000Y-52070000D03*
X273050000Y-82550000D03*
X273050000Y-97790000D03*
X116760000Y-109220000D03*
G04 #@! TO.N,Net-(SW76-Pad1)*
X110490000Y-113030000D03*
G04 #@! TO.N,Net-(U1-Pad33)*
X104180000Y-121700000D03*
G04 #@! TO.N,Net-(U1-Pad34)*
X105410000Y-121920000D03*
G04 #@! TO.N,Net-(S1-PadB1A)*
X104700000Y-111030000D03*
G04 #@! TO.N,Net-(S1-PadH2)*
X104690000Y-112310000D03*
G04 #@! TO.N,Net-(S1-PadV2)*
X104640000Y-113530000D03*
G04 #@! TD*
D19*
G04 #@! TO.N,/+3.3V*
X172720000Y-107950000D02*
X172720000Y-113030000D01*
X154395001Y-113574999D02*
X173264999Y-113574999D01*
X173264999Y-113574999D02*
X172720000Y-113030000D01*
X172140999Y-125147279D02*
X172140999Y-126312721D01*
X172772279Y-126944001D02*
X190817001Y-126944001D01*
X199595001Y-112393999D02*
X198906001Y-111704999D01*
X179710143Y-111704999D02*
X178385142Y-113030000D01*
X198906001Y-111704999D02*
X179710143Y-111704999D01*
X175749279Y-121538999D02*
X172140999Y-125147279D01*
X179451001Y-121538999D02*
X175749279Y-121538999D01*
X180340000Y-120650000D02*
X179451001Y-121538999D01*
X178385142Y-113030000D02*
X172720000Y-113030000D01*
X172140999Y-126312721D02*
X172772279Y-126944001D01*
X190817001Y-126944001D02*
X199595001Y-118166001D01*
X199595001Y-118166001D02*
X199595001Y-112393999D01*
X27940000Y-132080000D02*
X27940000Y-45720000D01*
X102870000Y-132080000D02*
X104140000Y-132080000D01*
X74930000Y-128270000D02*
X74930000Y-132080000D01*
X102870000Y-132080000D02*
X74930000Y-132080000D01*
X74930000Y-132080000D02*
X27940000Y-132080000D01*
G04 #@! TO.N,/RESET*
X131015001Y-108155001D02*
X131015001Y-106680000D01*
X140970000Y-118110000D02*
X131015001Y-108155001D01*
X131015001Y-106680000D02*
X131015001Y-106885001D01*
X85220000Y-130940000D02*
X103000000Y-130940000D01*
X88844999Y-102495001D02*
X77470000Y-113870000D01*
X88844999Y-97153999D02*
X88844999Y-102495001D01*
X131015001Y-101653999D02*
X130326001Y-100964999D01*
X131015001Y-106680000D02*
X131015001Y-101653999D01*
X130326001Y-100964999D02*
X103308003Y-100964999D01*
X103308003Y-100964999D02*
X98808003Y-96464999D01*
X98808003Y-96464999D02*
X89533999Y-96464999D01*
X77470000Y-123190000D02*
X85220000Y-130940000D01*
X77470000Y-113870000D02*
X77470000Y-123190000D01*
X89533999Y-96464999D02*
X88844999Y-97153999D01*
G04 #@! TO.N,/GND*
X31750000Y-39370000D02*
X38250000Y-39370000D01*
X49530000Y-39370000D02*
X56030000Y-39370000D01*
X67310000Y-39370000D02*
X73810000Y-39370000D01*
X85090000Y-39370000D02*
X91590000Y-39370000D01*
X102870000Y-39370000D02*
X109370000Y-39370000D01*
X120650000Y-39370000D02*
X127150000Y-39370000D01*
X138430000Y-39370000D02*
X144930000Y-39370000D01*
X156210000Y-39370000D02*
X162710000Y-39370000D01*
X180490000Y-39370000D02*
X173990000Y-39370000D01*
X191770000Y-39370000D02*
X198270000Y-39370000D01*
X209550000Y-39370000D02*
X216050000Y-39370000D01*
X227330000Y-39370000D02*
X233830000Y-39370000D01*
X245110000Y-39370000D02*
X251610000Y-39370000D01*
X262890000Y-39370000D02*
X269390000Y-39370000D01*
X254000000Y-52070000D02*
X260500000Y-52070000D01*
X229870000Y-52070000D02*
X236370000Y-52070000D01*
X219860000Y-52070000D02*
X213360000Y-52070000D01*
X203350000Y-52070000D02*
X196850000Y-52070000D01*
X186840000Y-52070000D02*
X180340000Y-52070000D01*
X170330000Y-52070000D02*
X163830000Y-52070000D01*
X153820000Y-52070000D02*
X147320000Y-52070000D01*
X137310000Y-52070000D02*
X130810000Y-52070000D01*
X120800000Y-52070000D02*
X114300000Y-52070000D01*
X104290000Y-52070000D02*
X97790000Y-52070000D01*
X87780000Y-52070000D02*
X81280000Y-52070000D01*
X71270000Y-52070000D02*
X64770000Y-52070000D01*
X54760000Y-52070000D02*
X48260000Y-52070000D01*
X31750000Y-52070000D02*
X38250000Y-52070000D01*
X40640000Y-67310000D02*
X47140000Y-67310000D01*
X64770000Y-67463076D02*
X71270000Y-67463076D01*
X81280000Y-67463076D02*
X87780000Y-67463076D01*
X97790000Y-67463076D02*
X104290000Y-67463076D01*
X114300000Y-67463076D02*
X120800000Y-67463076D01*
X130810000Y-67463076D02*
X137310000Y-67463076D01*
X147320000Y-67463076D02*
X153820000Y-67463076D01*
X163830000Y-67310000D02*
X170330000Y-67310000D01*
X186840000Y-67310000D02*
X180340000Y-67310000D01*
X196850000Y-67310000D02*
X203350000Y-67310000D01*
X213210000Y-67310000D02*
X219710000Y-67310000D01*
X229870000Y-67310000D02*
X236370000Y-67310000D01*
X246380000Y-67310000D02*
X252880000Y-67310000D01*
X262890000Y-67310000D02*
X267970000Y-67310000D01*
X267970000Y-67310000D02*
X269390000Y-67310000D01*
X260500000Y-82550000D02*
X254000000Y-82550000D01*
X236370000Y-82550000D02*
X229870000Y-82550000D01*
X219860000Y-82550000D02*
X213360000Y-82550000D01*
X203350000Y-82550000D02*
X196850000Y-82550000D01*
X180340000Y-82550000D02*
X186840000Y-82550000D01*
X163830000Y-82550000D02*
X170330000Y-82550000D01*
X153820000Y-82550000D02*
X147320000Y-82550000D01*
X137310000Y-82550000D02*
X130810000Y-82550000D01*
X120800000Y-82550000D02*
X114300000Y-82550000D01*
X97790000Y-82550000D02*
X104290000Y-82550000D01*
X87780000Y-82550000D02*
X81280000Y-82550000D01*
X71270000Y-82550000D02*
X64770000Y-82550000D01*
X47140000Y-82550000D02*
X40640000Y-82550000D01*
X50950000Y-97790000D02*
X44450000Y-97790000D01*
X73660000Y-97790000D02*
X80160000Y-97790000D01*
X90170000Y-97790000D02*
X96670000Y-97790000D01*
X106680000Y-97790000D02*
X113180000Y-97790000D01*
X123190000Y-97790000D02*
X129690000Y-97790000D01*
X139700000Y-97790000D02*
X146200000Y-97790000D01*
X156210000Y-97790000D02*
X162710000Y-97790000D01*
X172720000Y-97790000D02*
X179220000Y-97790000D01*
X189230000Y-97790000D02*
X195730000Y-97790000D01*
X205740000Y-97790000D02*
X212240000Y-97790000D01*
X222100000Y-97790000D02*
X228600000Y-97790000D01*
X250190000Y-97790000D02*
X256690000Y-97790000D01*
X262890000Y-119380000D02*
X269390000Y-119380000D01*
X245110000Y-130230000D02*
X251610000Y-130230000D01*
X245110000Y-113030000D02*
X251610000Y-113030000D01*
X233830000Y-119380000D02*
X227330000Y-119380000D01*
X216050000Y-113030000D02*
X209550000Y-113030000D01*
X198270000Y-113030000D02*
X191770000Y-113030000D01*
X120650000Y-117530000D02*
X127150000Y-117530000D01*
X91590000Y-113030000D02*
X85090000Y-113030000D01*
X73810000Y-113030000D02*
X67310000Y-113030000D01*
X56030000Y-113030000D02*
X49530000Y-113030000D01*
X38250000Y-113030000D02*
X31750000Y-113030000D01*
X92329999Y-129119999D02*
X91480000Y-128270000D01*
X92655001Y-129445001D02*
X92329999Y-129119999D01*
X101469999Y-129445001D02*
X92655001Y-129445001D01*
X103915000Y-127000000D02*
X101469999Y-129445001D01*
X97045000Y-113030000D02*
X101600000Y-117585000D01*
X91590000Y-113030000D02*
X97045000Y-113030000D01*
X99060000Y-100180000D02*
X96670000Y-97790000D01*
X99060000Y-104140000D02*
X99060000Y-100180000D01*
X116760000Y-109220000D02*
X116760000Y-109220000D01*
X116760000Y-113640000D02*
X116760000Y-109220000D01*
X120650000Y-117530000D02*
X116760000Y-113640000D01*
X101999999Y-117984999D02*
X101600000Y-117585000D01*
X102548001Y-117984999D02*
X101999999Y-117984999D01*
X106680000Y-122116998D02*
X102548001Y-117984999D01*
X106680000Y-124235000D02*
X106680000Y-122116998D01*
X103915000Y-127000000D02*
X106680000Y-124235000D01*
X189230000Y-115570000D02*
X191770000Y-113030000D01*
X180340000Y-115570000D02*
X189230000Y-115570000D01*
X167640000Y-102870000D02*
X172720000Y-97790000D01*
X167640000Y-107950000D02*
X167640000Y-102870000D01*
X181610000Y-116840000D02*
X180340000Y-115570000D01*
X181610000Y-123140142D02*
X181610000Y-116840000D01*
X178504641Y-126245501D02*
X181610000Y-123140142D01*
X177095359Y-126245501D02*
X178504641Y-126245501D01*
X173355000Y-125730000D02*
X176579858Y-125730000D01*
X176579858Y-125730000D02*
X177095359Y-126245501D01*
X91590000Y-111610000D02*
X99060000Y-104140000D01*
X91590000Y-113030000D02*
X91590000Y-111610000D01*
X113030000Y-106680000D02*
X113030000Y-105490000D01*
X101600000Y-117585000D02*
X102125000Y-117585000D01*
X102125000Y-117585000D02*
X113030000Y-106680000D01*
X260500000Y-82550000D02*
X273050000Y-82550000D01*
X256690000Y-97790000D02*
X273050000Y-97790000D01*
X260500000Y-52070000D02*
X273050000Y-52070000D01*
X273050000Y-97790000D02*
X273050000Y-97790000D01*
X262460000Y-119380000D02*
X262890000Y-119380000D01*
X251610000Y-130230000D02*
X262460000Y-119380000D01*
X147320000Y-118110000D02*
X143510000Y-118110000D01*
X156210000Y-109220000D02*
X147320000Y-118110000D01*
X166370000Y-109220000D02*
X156210000Y-109220000D01*
X167640000Y-107950000D02*
X166370000Y-109220000D01*
X116760000Y-109220000D02*
X113030000Y-105490000D01*
G04 #@! TO.N,/PB1*
X67310000Y-117530000D02*
X73810000Y-117530000D01*
X131465010Y-101467598D02*
X131465011Y-106698601D01*
X130512401Y-100514989D02*
X131465010Y-101467598D01*
X103494403Y-100514989D02*
X130512401Y-100514989D01*
X131465011Y-106698601D02*
X140336410Y-115570000D01*
X98994403Y-96014989D02*
X103494403Y-100514989D01*
X74809999Y-116530001D02*
X74809999Y-115893591D01*
X73810000Y-117530000D02*
X74809999Y-116530001D01*
X74809999Y-115893591D02*
X88394989Y-102308601D01*
X88394989Y-102308601D02*
X88394989Y-96967599D01*
X140336410Y-115570000D02*
X140970000Y-115570000D01*
X88394989Y-96967599D02*
X89347598Y-96014990D01*
X89347598Y-96014990D02*
X98994403Y-96014989D01*
G04 #@! TO.N,/PB2*
X49530000Y-117530000D02*
X56030000Y-117530000D01*
X73862181Y-116204999D02*
X57355001Y-116204999D01*
X87944989Y-96781189D02*
X87944989Y-102122191D01*
X99180802Y-95564980D02*
X89161197Y-95564981D01*
X57355001Y-116204999D02*
X56030000Y-117530000D01*
X89161197Y-95564981D02*
X87944989Y-96781189D01*
X142334999Y-114394999D02*
X139797819Y-114394999D01*
X143510000Y-115570000D02*
X142334999Y-114394999D01*
X139797819Y-114394999D02*
X131915019Y-106512199D01*
X103680803Y-100064979D02*
X99180802Y-95564980D01*
X131915019Y-106512199D02*
X131915019Y-101281197D01*
X131915019Y-101281197D02*
X130698801Y-100064979D01*
X87944989Y-102122191D02*
X73862181Y-116204999D01*
X130698801Y-100064979D02*
X103680803Y-100064979D01*
G04 #@! TO.N,/PB3*
X48260000Y-56570000D02*
X54760000Y-56570000D01*
X56085001Y-55244999D02*
X55759999Y-55570001D01*
X88416001Y-55244999D02*
X56085001Y-55244999D01*
X55759999Y-55570001D02*
X54760000Y-56570000D01*
X89105001Y-55933999D02*
X88416001Y-55244999D01*
X89105001Y-87835001D02*
X89105001Y-55933999D01*
X96384971Y-95114971D02*
X89105001Y-87835001D01*
X99367203Y-95114971D02*
X96384971Y-95114971D01*
X140970000Y-113030000D02*
X139069230Y-113030000D01*
X139069230Y-113030000D02*
X132365029Y-106325799D01*
X132365029Y-101094797D02*
X130810000Y-99539768D01*
X130810000Y-99539768D02*
X103792002Y-99539768D01*
X132365029Y-106325799D02*
X132365029Y-101094797D01*
X103792002Y-99539768D02*
X99367203Y-95114971D01*
G04 #@! TO.N,Net-(SW76-Pad1)*
X245110000Y-125730000D02*
X251610000Y-125730000D01*
X245110000Y-125730000D02*
X242970010Y-127869990D01*
X242970010Y-127869990D02*
X242970010Y-132949990D01*
X242970010Y-132949990D02*
X113899990Y-132949990D01*
X113899990Y-132949990D02*
X110490000Y-129540000D01*
X110490000Y-129540000D02*
X110490000Y-113030000D01*
X110490000Y-113030000D02*
X110490000Y-113030000D01*
G04 #@! TO.N,Net-(U1-Pad33)*
X95550000Y-121700000D02*
X88980000Y-128270000D01*
X104180000Y-121700000D02*
X95550000Y-121700000D01*
G04 #@! TO.N,Net-(U1-Pad34)*
X93980000Y-124690010D02*
X93980000Y-128270000D01*
X104904999Y-122425001D02*
X103831999Y-122425001D01*
X105410000Y-121920000D02*
X104904999Y-122425001D01*
X103831999Y-122425001D02*
X103557008Y-122150010D01*
X103557008Y-122150010D02*
X95736400Y-122150010D01*
X95736400Y-122150010D02*
X93980000Y-123906410D01*
X93980000Y-123906410D02*
X93980000Y-124690010D01*
G04 #@! TO.N,Net-(SW71-Pad1)*
X120650000Y-113030000D02*
X127150000Y-113030000D01*
G04 #@! TO.N,Net-(S1-PadB1A)*
X176541221Y-109974499D02*
X178504641Y-109974499D01*
X173302721Y-106735999D02*
X176541221Y-109974499D01*
X169597279Y-106735999D02*
X173302721Y-106735999D01*
X200045011Y-112207599D02*
X200045010Y-118352402D01*
X178504641Y-109974499D02*
X179020142Y-110490000D01*
X187587412Y-130810000D02*
X173355000Y-130810000D01*
X168965999Y-108532721D02*
X168965999Y-107367279D01*
X198327412Y-110490000D02*
X200045011Y-112207599D01*
X168965999Y-107367279D02*
X169597279Y-106735999D01*
X179020142Y-110490000D02*
X198327412Y-110490000D01*
X200045010Y-118352402D02*
X187587412Y-130810000D01*
X168334719Y-109164001D02*
X168910000Y-108588720D01*
X168910000Y-108588720D02*
X168965999Y-108532721D01*
X114014548Y-104128590D02*
X114014548Y-104128593D01*
X126141199Y-115304980D02*
X128158802Y-115304980D01*
X125876177Y-115570001D02*
X126141199Y-115304980D01*
X128158802Y-115304980D02*
X133053811Y-120199989D01*
X133053811Y-120199989D02*
X146060599Y-120199989D01*
X167828709Y-109670011D02*
X168910000Y-108588720D01*
X118560011Y-108674191D02*
X118560010Y-108748751D01*
X121923823Y-115570001D02*
X125876177Y-115570001D01*
X156590577Y-109670011D02*
X167828709Y-109670011D01*
X146060599Y-120199989D02*
X156590577Y-109670011D01*
X121658801Y-115304978D02*
X121923823Y-115570001D01*
X120387798Y-115304978D02*
X121658801Y-115304978D01*
X118560010Y-113477190D02*
X120387798Y-115304978D01*
X114014548Y-104128593D02*
X118560011Y-108674191D01*
X113750937Y-103864979D02*
X114014548Y-104128590D01*
X111865021Y-103864979D02*
X113750937Y-103864979D01*
X118560010Y-108748751D02*
X118560010Y-113477190D01*
X104700000Y-111030000D02*
X111865021Y-103864979D01*
G04 #@! TO.N,Net-(S1-PadH2)*
X170180000Y-107950000D02*
X170180000Y-110490000D01*
X167759499Y-112910501D02*
X161855359Y-112910501D01*
X170180000Y-110490000D02*
X167759499Y-112910501D01*
X154047000Y-112849998D02*
X153670000Y-113226998D01*
X153670000Y-120650000D02*
X132867412Y-120650000D01*
X126327598Y-115754990D02*
X126062576Y-116020012D01*
X121472401Y-115754989D02*
X120201398Y-115754989D01*
X112495597Y-104314990D02*
X111760000Y-105050587D01*
X111760000Y-105050587D02*
X111760000Y-105410000D01*
X121737424Y-116020012D02*
X121472401Y-115754989D01*
X127972401Y-115754989D02*
X126327598Y-115754990D01*
X113564537Y-104314990D02*
X112495597Y-104314990D01*
X118109999Y-108860586D02*
X113564537Y-104314990D01*
X161794856Y-112849998D02*
X154047000Y-112849998D01*
X132867412Y-120650000D02*
X127972401Y-115754989D01*
X118109999Y-113663590D02*
X118109999Y-108860586D01*
X161855359Y-112910501D02*
X161794856Y-112849998D01*
X120201398Y-115754989D02*
X118109999Y-113663590D01*
X111760000Y-105410000D02*
X104860000Y-112310000D01*
X104860000Y-112310000D02*
X104690000Y-112310000D01*
X126062576Y-116020012D02*
X121737424Y-116020012D01*
X153670000Y-113226998D02*
X153670000Y-120650000D01*
G04 #@! TO.N,Net-(S1-PadV2)*
X121551024Y-116470022D02*
X121286001Y-116204999D01*
X113378001Y-104764999D02*
X112681999Y-104764999D01*
X132681012Y-121100011D02*
X127786001Y-116204999D01*
X105039999Y-113130001D02*
X104640000Y-113530000D01*
X112681999Y-104764999D02*
X112210011Y-105236987D01*
X180340000Y-118110000D02*
X156846411Y-118110000D01*
X117485001Y-108871999D02*
X113378001Y-104764999D01*
X112210011Y-105959989D02*
X105039999Y-113130001D01*
X156846411Y-118110000D02*
X153856400Y-121100011D01*
X112210011Y-105236987D02*
X112210011Y-105959989D01*
X126513999Y-116204999D02*
X126248976Y-116470022D01*
X126248976Y-116470022D02*
X121551024Y-116470022D01*
X121286001Y-116204999D02*
X120015000Y-116204999D01*
X127786001Y-116204999D02*
X126513999Y-116204999D01*
X153856400Y-121100011D02*
X132681012Y-121100011D01*
X120015000Y-116204999D02*
X117485001Y-113675000D01*
X117485001Y-113675000D02*
X117485001Y-108871999D01*
G04 #@! TO.N,Net-(SW56-Pad2)*
X73660000Y-102290000D02*
X80160000Y-102290000D01*
G04 #@! TO.N,Net-(SW41-Pad2)*
X267975787Y-71810000D02*
X262890000Y-71810000D01*
X269390000Y-71810000D02*
X267975787Y-71810000D01*
G04 #@! TO.N,Net-(SW57-Pad2)*
X90170000Y-102290000D02*
X96670000Y-102290000D01*
G04 #@! TO.N,Net-(SW77-Pad2)*
X262890000Y-123880000D02*
X269390000Y-123880000D01*
G04 #@! TO.N,Net-(SW58-Pad2)*
X111765787Y-102290000D02*
X106680000Y-102290000D01*
X113180000Y-102290000D02*
X111765787Y-102290000D01*
G04 #@! TO.N,Net-(SW13-Pad2)*
X262890000Y-43870000D02*
X269390000Y-43870000D01*
G04 #@! TO.N,Net-(SW27-Pad2)*
X259085787Y-56570000D02*
X254000000Y-56570000D01*
X260500000Y-56570000D02*
X259085787Y-56570000D01*
G04 #@! TO.N,Net-(SW59-Pad2)*
X123190000Y-102290000D02*
X129690000Y-102290000D01*
G04 #@! TO.N,Net-(SW54-Pad2)*
X254000000Y-87050000D02*
X260500000Y-87050000D01*
G04 #@! TO.N,Net-(SW60-Pad2)*
X139700000Y-102290000D02*
X146200000Y-102290000D01*
G04 #@! TO.N,Net-(SW66-Pad2)*
X250190000Y-102290000D02*
X256690000Y-102290000D01*
G04 #@! TO.N,Net-(SW63-Pad2)*
X189230000Y-102290000D02*
X195730000Y-102290000D01*
G04 #@! TO.N,Net-(SW62-Pad2)*
X172720000Y-102290000D02*
X179220000Y-102290000D01*
G04 #@! TO.N,Net-(SW61-Pad2)*
X156210000Y-102290000D02*
X162710000Y-102290000D01*
G04 #@! TO.N,Net-(SW40-Pad2)*
X246380000Y-71810000D02*
X252880000Y-71810000D01*
G04 #@! TO.N,Net-(SW12-Pad2)*
X245110000Y-43870000D02*
X251610000Y-43870000D01*
G04 #@! TO.N,Net-(SW29-Pad2)*
X64770000Y-71963076D02*
X71270000Y-71963076D01*
G04 #@! TO.N,Net-(SW30-Pad2)*
X86365787Y-71963076D02*
X81280000Y-71963076D01*
X87780000Y-71963076D02*
X86365787Y-71963076D01*
G04 #@! TO.N,Net-(SW28-Pad2)*
X40640000Y-71810000D02*
X47140000Y-71810000D01*
G04 #@! TO.N,Net-(SW26-Pad2)*
X234955787Y-56570000D02*
X229870000Y-56570000D01*
X236370000Y-56570000D02*
X234955787Y-56570000D01*
G04 #@! TO.N,Net-(SW25-Pad2)*
X213360000Y-56570000D02*
X219860000Y-56570000D01*
G04 #@! TO.N,Net-(SW24-Pad2)*
X196850000Y-56570000D02*
X203350000Y-56570000D01*
G04 #@! TO.N,Net-(SW31-Pad2)*
X102875787Y-71963076D02*
X97790000Y-71963076D01*
X104290000Y-71963076D02*
X102875787Y-71963076D01*
G04 #@! TO.N,Net-(SW75-Pad2)*
X245110000Y-117530000D02*
X251610000Y-117530000D01*
G04 #@! TO.N,Net-(SW11-Pad2)*
X227330000Y-43870000D02*
X233830000Y-43870000D01*
G04 #@! TO.N,Net-(SW74-Pad2)*
X227330000Y-123880000D02*
X233830000Y-123880000D01*
G04 #@! TO.N,Net-(SW39-Pad2)*
X229870000Y-71810000D02*
X236370000Y-71810000D01*
G04 #@! TO.N,Net-(SW53-Pad2)*
X229870000Y-87050000D02*
X236370000Y-87050000D01*
G04 #@! TO.N,Net-(SW65-Pad2)*
X223514213Y-102290000D02*
X228600000Y-102290000D01*
X222100000Y-102290000D02*
X223514213Y-102290000D01*
G04 #@! TO.N,Net-(SW10-Pad2)*
X209550000Y-43870000D02*
X216050000Y-43870000D01*
G04 #@! TO.N,Net-(SW73-Pad2)*
X209550000Y-117530000D02*
X216050000Y-117530000D01*
G04 #@! TO.N,Net-(SW72-Pad2)*
X191770000Y-117530000D02*
X198270000Y-117530000D01*
G04 #@! TO.N,Net-(SW38-Pad2)*
X219710000Y-71810000D02*
X213210000Y-71810000D01*
G04 #@! TO.N,Net-(SW52-Pad2)*
X213360000Y-87050000D02*
X219860000Y-87050000D01*
G04 #@! TO.N,Net-(SW16-Pad2)*
X64770000Y-56570000D02*
X71270000Y-56570000D01*
G04 #@! TO.N,Net-(SW18-Pad2)*
X97790000Y-56570000D02*
X104290000Y-56570000D01*
G04 #@! TO.N,Net-(SW17-Pad2)*
X81280000Y-56570000D02*
X87780000Y-56570000D01*
G04 #@! TO.N,Net-(SW19-Pad2)*
X114300000Y-56570000D02*
X120800000Y-56570000D01*
G04 #@! TO.N,Net-(SW64-Pad2)*
X210825787Y-102290000D02*
X205740000Y-102290000D01*
X212240000Y-102290000D02*
X210825787Y-102290000D01*
G04 #@! TO.N,Net-(SW20-Pad2)*
X130810000Y-56570000D02*
X137310000Y-56570000D01*
G04 #@! TO.N,Net-(SW21-Pad2)*
X147320000Y-56570000D02*
X153820000Y-56570000D01*
G04 #@! TO.N,Net-(SW23-Pad2)*
X180340000Y-56570000D02*
X186840000Y-56570000D01*
G04 #@! TO.N,Net-(SW22-Pad2)*
X163830000Y-56570000D02*
X170330000Y-56570000D01*
G04 #@! TO.N,Net-(SW47-Pad2)*
X130810000Y-87050000D02*
X137310000Y-87050000D01*
G04 #@! TO.N,Net-(SW46-Pad2)*
X114300000Y-87050000D02*
X120800000Y-87050000D01*
G04 #@! TO.N,Net-(SW45-Pad2)*
X97790000Y-87050000D02*
X104290000Y-87050000D01*
G04 #@! TO.N,Net-(SW44-Pad2)*
X81280000Y-87050000D02*
X87780000Y-87050000D01*
G04 #@! TO.N,Net-(SW43-Pad2)*
X64770000Y-87050000D02*
X71270000Y-87050000D01*
G04 #@! TO.N,Net-(SW42-Pad2)*
X40640000Y-87050000D02*
X47140000Y-87050000D01*
G04 #@! TO.N,Net-(SW37-Pad2)*
X201935787Y-71810000D02*
X196850000Y-71810000D01*
X203350000Y-71810000D02*
X201935787Y-71810000D01*
G04 #@! TO.N,Net-(SW36-Pad2)*
X180340000Y-71810000D02*
X186840000Y-71810000D01*
G04 #@! TO.N,Net-(SW35-Pad2)*
X163830000Y-71810000D02*
X170330000Y-71810000D01*
G04 #@! TO.N,Net-(SW34-Pad2)*
X152405787Y-71963076D02*
X147320000Y-71963076D01*
X153820000Y-71963076D02*
X152405787Y-71963076D01*
G04 #@! TO.N,Net-(SW33-Pad2)*
X135895787Y-71963076D02*
X130810000Y-71963076D01*
X137310000Y-71963076D02*
X135895787Y-71963076D01*
G04 #@! TO.N,Net-(SW32-Pad2)*
X114300000Y-71963076D02*
X120800000Y-71963076D01*
G04 #@! TO.N,Net-(SW51-Pad2)*
X196850000Y-87050000D02*
X203350000Y-87050000D01*
G04 #@! TO.N,Net-(SW9-Pad2)*
X191770000Y-43870000D02*
X198270000Y-43870000D01*
G04 #@! TO.N,Net-(SW50-Pad2)*
X180340000Y-87050000D02*
X186840000Y-87050000D01*
G04 #@! TO.N,Net-(SW49-Pad2)*
X163830000Y-87050000D02*
X170330000Y-87050000D01*
G04 #@! TO.N,Net-(SW48-Pad2)*
X147320000Y-87050000D02*
X153820000Y-87050000D01*
G04 #@! TO.N,Net-(SW8-Pad2)*
X173990000Y-43870000D02*
X180490000Y-43870000D01*
G04 #@! TO.N,Net-(SW55-Pad2)*
X44450000Y-102290000D02*
X50950000Y-102290000D01*
G04 #@! TO.N,Net-(SW70-Pad2)*
X85090000Y-117530000D02*
X91590000Y-117530000D01*
G04 #@! TO.N,Net-(SW7-Pad2)*
X156210000Y-43870000D02*
X162710000Y-43870000D01*
G04 #@! TO.N,Net-(SW6-Pad2)*
X138430000Y-43870000D02*
X144930000Y-43870000D01*
G04 #@! TO.N,Net-(SW5-Pad2)*
X120650000Y-43870000D02*
X127150000Y-43870000D01*
G04 #@! TO.N,Net-(SW1-Pad2)*
X49530000Y-43870000D02*
X56030000Y-43870000D01*
G04 #@! TO.N,Net-(SW2-Pad2)*
X67310000Y-43870000D02*
X73810000Y-43870000D01*
G04 #@! TO.N,Net-(SW3-Pad2)*
X85090000Y-43870000D02*
X91590000Y-43870000D01*
G04 #@! TO.N,Net-(SW4-Pad2)*
X102870000Y-43870000D02*
X109370000Y-43870000D01*
G04 #@! TO.N,Net-(SW0-Pad2)*
X31750000Y-43870000D02*
X38250000Y-43870000D01*
G04 #@! TO.N,Net-(SW67-Pad2)*
X31750000Y-117530000D02*
X38250000Y-117530000D01*
G04 #@! TO.N,Net-(SW14-Pad2)*
X36835787Y-56570000D02*
X31750000Y-56570000D01*
X38250000Y-56570000D02*
X36835787Y-56570000D01*
G04 #@! TD*
M02*
