G04 #@! TF.GenerationSoftware,KiCad,Pcbnew,(5.0.2)-1*
G04 #@! TF.CreationDate,2019-01-21T23:15:36+01:00*
G04 #@! TF.ProjectId,schematic,73636865-6d61-4746-9963-2e6b69636164,rev?*
G04 #@! TF.SameCoordinates,Original*
G04 #@! TF.FileFunction,Paste,Top*
G04 #@! TF.FilePolarity,Positive*
%FSLAX46Y46*%
G04 Gerber Fmt 4.6, Leading zero omitted, Abs format (unit mm)*
G04 Created by KiCad (PCBNEW (5.0.2)-1) date 21.01.2019 23:15:36*
%MOMM*%
%LPD*%
G01*
G04 APERTURE LIST*
%ADD10C,0.100000*%
%ADD11C,0.300000*%
G04 APERTURE END LIST*
D10*
G04 #@! TO.C,U1*
G36*
X99687351Y-110690361D02*
X99694632Y-110691441D01*
X99701771Y-110693229D01*
X99708701Y-110695709D01*
X99715355Y-110698856D01*
X99721668Y-110702640D01*
X99727579Y-110707024D01*
X99733033Y-110711967D01*
X99737976Y-110717421D01*
X99742360Y-110723332D01*
X99746144Y-110729645D01*
X99749291Y-110736299D01*
X99751771Y-110743229D01*
X99753559Y-110750368D01*
X99754639Y-110757649D01*
X99755000Y-110765000D01*
X99755000Y-110915000D01*
X99754639Y-110922351D01*
X99753559Y-110929632D01*
X99751771Y-110936771D01*
X99749291Y-110943701D01*
X99746144Y-110950355D01*
X99742360Y-110956668D01*
X99737976Y-110962579D01*
X99733033Y-110968033D01*
X99727579Y-110972976D01*
X99721668Y-110977360D01*
X99715355Y-110981144D01*
X99708701Y-110984291D01*
X99701771Y-110986771D01*
X99694632Y-110988559D01*
X99687351Y-110989639D01*
X99680000Y-110990000D01*
X98355000Y-110990000D01*
X98347649Y-110989639D01*
X98340368Y-110988559D01*
X98333229Y-110986771D01*
X98326299Y-110984291D01*
X98319645Y-110981144D01*
X98313332Y-110977360D01*
X98307421Y-110972976D01*
X98301967Y-110968033D01*
X98297024Y-110962579D01*
X98292640Y-110956668D01*
X98288856Y-110950355D01*
X98285709Y-110943701D01*
X98283229Y-110936771D01*
X98281441Y-110929632D01*
X98280361Y-110922351D01*
X98280000Y-110915000D01*
X98280000Y-110765000D01*
X98280361Y-110757649D01*
X98281441Y-110750368D01*
X98283229Y-110743229D01*
X98285709Y-110736299D01*
X98288856Y-110729645D01*
X98292640Y-110723332D01*
X98297024Y-110717421D01*
X98301967Y-110711967D01*
X98307421Y-110707024D01*
X98313332Y-110702640D01*
X98319645Y-110698856D01*
X98326299Y-110695709D01*
X98333229Y-110693229D01*
X98340368Y-110691441D01*
X98347649Y-110690361D01*
X98355000Y-110690000D01*
X99680000Y-110690000D01*
X99687351Y-110690361D01*
X99687351Y-110690361D01*
G37*
D11*
X99017500Y-110840000D03*
D10*
G36*
X99687351Y-111190361D02*
X99694632Y-111191441D01*
X99701771Y-111193229D01*
X99708701Y-111195709D01*
X99715355Y-111198856D01*
X99721668Y-111202640D01*
X99727579Y-111207024D01*
X99733033Y-111211967D01*
X99737976Y-111217421D01*
X99742360Y-111223332D01*
X99746144Y-111229645D01*
X99749291Y-111236299D01*
X99751771Y-111243229D01*
X99753559Y-111250368D01*
X99754639Y-111257649D01*
X99755000Y-111265000D01*
X99755000Y-111415000D01*
X99754639Y-111422351D01*
X99753559Y-111429632D01*
X99751771Y-111436771D01*
X99749291Y-111443701D01*
X99746144Y-111450355D01*
X99742360Y-111456668D01*
X99737976Y-111462579D01*
X99733033Y-111468033D01*
X99727579Y-111472976D01*
X99721668Y-111477360D01*
X99715355Y-111481144D01*
X99708701Y-111484291D01*
X99701771Y-111486771D01*
X99694632Y-111488559D01*
X99687351Y-111489639D01*
X99680000Y-111490000D01*
X98355000Y-111490000D01*
X98347649Y-111489639D01*
X98340368Y-111488559D01*
X98333229Y-111486771D01*
X98326299Y-111484291D01*
X98319645Y-111481144D01*
X98313332Y-111477360D01*
X98307421Y-111472976D01*
X98301967Y-111468033D01*
X98297024Y-111462579D01*
X98292640Y-111456668D01*
X98288856Y-111450355D01*
X98285709Y-111443701D01*
X98283229Y-111436771D01*
X98281441Y-111429632D01*
X98280361Y-111422351D01*
X98280000Y-111415000D01*
X98280000Y-111265000D01*
X98280361Y-111257649D01*
X98281441Y-111250368D01*
X98283229Y-111243229D01*
X98285709Y-111236299D01*
X98288856Y-111229645D01*
X98292640Y-111223332D01*
X98297024Y-111217421D01*
X98301967Y-111211967D01*
X98307421Y-111207024D01*
X98313332Y-111202640D01*
X98319645Y-111198856D01*
X98326299Y-111195709D01*
X98333229Y-111193229D01*
X98340368Y-111191441D01*
X98347649Y-111190361D01*
X98355000Y-111190000D01*
X99680000Y-111190000D01*
X99687351Y-111190361D01*
X99687351Y-111190361D01*
G37*
D11*
X99017500Y-111340000D03*
D10*
G36*
X99687351Y-111690361D02*
X99694632Y-111691441D01*
X99701771Y-111693229D01*
X99708701Y-111695709D01*
X99715355Y-111698856D01*
X99721668Y-111702640D01*
X99727579Y-111707024D01*
X99733033Y-111711967D01*
X99737976Y-111717421D01*
X99742360Y-111723332D01*
X99746144Y-111729645D01*
X99749291Y-111736299D01*
X99751771Y-111743229D01*
X99753559Y-111750368D01*
X99754639Y-111757649D01*
X99755000Y-111765000D01*
X99755000Y-111915000D01*
X99754639Y-111922351D01*
X99753559Y-111929632D01*
X99751771Y-111936771D01*
X99749291Y-111943701D01*
X99746144Y-111950355D01*
X99742360Y-111956668D01*
X99737976Y-111962579D01*
X99733033Y-111968033D01*
X99727579Y-111972976D01*
X99721668Y-111977360D01*
X99715355Y-111981144D01*
X99708701Y-111984291D01*
X99701771Y-111986771D01*
X99694632Y-111988559D01*
X99687351Y-111989639D01*
X99680000Y-111990000D01*
X98355000Y-111990000D01*
X98347649Y-111989639D01*
X98340368Y-111988559D01*
X98333229Y-111986771D01*
X98326299Y-111984291D01*
X98319645Y-111981144D01*
X98313332Y-111977360D01*
X98307421Y-111972976D01*
X98301967Y-111968033D01*
X98297024Y-111962579D01*
X98292640Y-111956668D01*
X98288856Y-111950355D01*
X98285709Y-111943701D01*
X98283229Y-111936771D01*
X98281441Y-111929632D01*
X98280361Y-111922351D01*
X98280000Y-111915000D01*
X98280000Y-111765000D01*
X98280361Y-111757649D01*
X98281441Y-111750368D01*
X98283229Y-111743229D01*
X98285709Y-111736299D01*
X98288856Y-111729645D01*
X98292640Y-111723332D01*
X98297024Y-111717421D01*
X98301967Y-111711967D01*
X98307421Y-111707024D01*
X98313332Y-111702640D01*
X98319645Y-111698856D01*
X98326299Y-111695709D01*
X98333229Y-111693229D01*
X98340368Y-111691441D01*
X98347649Y-111690361D01*
X98355000Y-111690000D01*
X99680000Y-111690000D01*
X99687351Y-111690361D01*
X99687351Y-111690361D01*
G37*
D11*
X99017500Y-111840000D03*
D10*
G36*
X99687351Y-112190361D02*
X99694632Y-112191441D01*
X99701771Y-112193229D01*
X99708701Y-112195709D01*
X99715355Y-112198856D01*
X99721668Y-112202640D01*
X99727579Y-112207024D01*
X99733033Y-112211967D01*
X99737976Y-112217421D01*
X99742360Y-112223332D01*
X99746144Y-112229645D01*
X99749291Y-112236299D01*
X99751771Y-112243229D01*
X99753559Y-112250368D01*
X99754639Y-112257649D01*
X99755000Y-112265000D01*
X99755000Y-112415000D01*
X99754639Y-112422351D01*
X99753559Y-112429632D01*
X99751771Y-112436771D01*
X99749291Y-112443701D01*
X99746144Y-112450355D01*
X99742360Y-112456668D01*
X99737976Y-112462579D01*
X99733033Y-112468033D01*
X99727579Y-112472976D01*
X99721668Y-112477360D01*
X99715355Y-112481144D01*
X99708701Y-112484291D01*
X99701771Y-112486771D01*
X99694632Y-112488559D01*
X99687351Y-112489639D01*
X99680000Y-112490000D01*
X98355000Y-112490000D01*
X98347649Y-112489639D01*
X98340368Y-112488559D01*
X98333229Y-112486771D01*
X98326299Y-112484291D01*
X98319645Y-112481144D01*
X98313332Y-112477360D01*
X98307421Y-112472976D01*
X98301967Y-112468033D01*
X98297024Y-112462579D01*
X98292640Y-112456668D01*
X98288856Y-112450355D01*
X98285709Y-112443701D01*
X98283229Y-112436771D01*
X98281441Y-112429632D01*
X98280361Y-112422351D01*
X98280000Y-112415000D01*
X98280000Y-112265000D01*
X98280361Y-112257649D01*
X98281441Y-112250368D01*
X98283229Y-112243229D01*
X98285709Y-112236299D01*
X98288856Y-112229645D01*
X98292640Y-112223332D01*
X98297024Y-112217421D01*
X98301967Y-112211967D01*
X98307421Y-112207024D01*
X98313332Y-112202640D01*
X98319645Y-112198856D01*
X98326299Y-112195709D01*
X98333229Y-112193229D01*
X98340368Y-112191441D01*
X98347649Y-112190361D01*
X98355000Y-112190000D01*
X99680000Y-112190000D01*
X99687351Y-112190361D01*
X99687351Y-112190361D01*
G37*
D11*
X99017500Y-112340000D03*
D10*
G36*
X99687351Y-112690361D02*
X99694632Y-112691441D01*
X99701771Y-112693229D01*
X99708701Y-112695709D01*
X99715355Y-112698856D01*
X99721668Y-112702640D01*
X99727579Y-112707024D01*
X99733033Y-112711967D01*
X99737976Y-112717421D01*
X99742360Y-112723332D01*
X99746144Y-112729645D01*
X99749291Y-112736299D01*
X99751771Y-112743229D01*
X99753559Y-112750368D01*
X99754639Y-112757649D01*
X99755000Y-112765000D01*
X99755000Y-112915000D01*
X99754639Y-112922351D01*
X99753559Y-112929632D01*
X99751771Y-112936771D01*
X99749291Y-112943701D01*
X99746144Y-112950355D01*
X99742360Y-112956668D01*
X99737976Y-112962579D01*
X99733033Y-112968033D01*
X99727579Y-112972976D01*
X99721668Y-112977360D01*
X99715355Y-112981144D01*
X99708701Y-112984291D01*
X99701771Y-112986771D01*
X99694632Y-112988559D01*
X99687351Y-112989639D01*
X99680000Y-112990000D01*
X98355000Y-112990000D01*
X98347649Y-112989639D01*
X98340368Y-112988559D01*
X98333229Y-112986771D01*
X98326299Y-112984291D01*
X98319645Y-112981144D01*
X98313332Y-112977360D01*
X98307421Y-112972976D01*
X98301967Y-112968033D01*
X98297024Y-112962579D01*
X98292640Y-112956668D01*
X98288856Y-112950355D01*
X98285709Y-112943701D01*
X98283229Y-112936771D01*
X98281441Y-112929632D01*
X98280361Y-112922351D01*
X98280000Y-112915000D01*
X98280000Y-112765000D01*
X98280361Y-112757649D01*
X98281441Y-112750368D01*
X98283229Y-112743229D01*
X98285709Y-112736299D01*
X98288856Y-112729645D01*
X98292640Y-112723332D01*
X98297024Y-112717421D01*
X98301967Y-112711967D01*
X98307421Y-112707024D01*
X98313332Y-112702640D01*
X98319645Y-112698856D01*
X98326299Y-112695709D01*
X98333229Y-112693229D01*
X98340368Y-112691441D01*
X98347649Y-112690361D01*
X98355000Y-112690000D01*
X99680000Y-112690000D01*
X99687351Y-112690361D01*
X99687351Y-112690361D01*
G37*
D11*
X99017500Y-112840000D03*
D10*
G36*
X99687351Y-113190361D02*
X99694632Y-113191441D01*
X99701771Y-113193229D01*
X99708701Y-113195709D01*
X99715355Y-113198856D01*
X99721668Y-113202640D01*
X99727579Y-113207024D01*
X99733033Y-113211967D01*
X99737976Y-113217421D01*
X99742360Y-113223332D01*
X99746144Y-113229645D01*
X99749291Y-113236299D01*
X99751771Y-113243229D01*
X99753559Y-113250368D01*
X99754639Y-113257649D01*
X99755000Y-113265000D01*
X99755000Y-113415000D01*
X99754639Y-113422351D01*
X99753559Y-113429632D01*
X99751771Y-113436771D01*
X99749291Y-113443701D01*
X99746144Y-113450355D01*
X99742360Y-113456668D01*
X99737976Y-113462579D01*
X99733033Y-113468033D01*
X99727579Y-113472976D01*
X99721668Y-113477360D01*
X99715355Y-113481144D01*
X99708701Y-113484291D01*
X99701771Y-113486771D01*
X99694632Y-113488559D01*
X99687351Y-113489639D01*
X99680000Y-113490000D01*
X98355000Y-113490000D01*
X98347649Y-113489639D01*
X98340368Y-113488559D01*
X98333229Y-113486771D01*
X98326299Y-113484291D01*
X98319645Y-113481144D01*
X98313332Y-113477360D01*
X98307421Y-113472976D01*
X98301967Y-113468033D01*
X98297024Y-113462579D01*
X98292640Y-113456668D01*
X98288856Y-113450355D01*
X98285709Y-113443701D01*
X98283229Y-113436771D01*
X98281441Y-113429632D01*
X98280361Y-113422351D01*
X98280000Y-113415000D01*
X98280000Y-113265000D01*
X98280361Y-113257649D01*
X98281441Y-113250368D01*
X98283229Y-113243229D01*
X98285709Y-113236299D01*
X98288856Y-113229645D01*
X98292640Y-113223332D01*
X98297024Y-113217421D01*
X98301967Y-113211967D01*
X98307421Y-113207024D01*
X98313332Y-113202640D01*
X98319645Y-113198856D01*
X98326299Y-113195709D01*
X98333229Y-113193229D01*
X98340368Y-113191441D01*
X98347649Y-113190361D01*
X98355000Y-113190000D01*
X99680000Y-113190000D01*
X99687351Y-113190361D01*
X99687351Y-113190361D01*
G37*
D11*
X99017500Y-113340000D03*
D10*
G36*
X99687351Y-113690361D02*
X99694632Y-113691441D01*
X99701771Y-113693229D01*
X99708701Y-113695709D01*
X99715355Y-113698856D01*
X99721668Y-113702640D01*
X99727579Y-113707024D01*
X99733033Y-113711967D01*
X99737976Y-113717421D01*
X99742360Y-113723332D01*
X99746144Y-113729645D01*
X99749291Y-113736299D01*
X99751771Y-113743229D01*
X99753559Y-113750368D01*
X99754639Y-113757649D01*
X99755000Y-113765000D01*
X99755000Y-113915000D01*
X99754639Y-113922351D01*
X99753559Y-113929632D01*
X99751771Y-113936771D01*
X99749291Y-113943701D01*
X99746144Y-113950355D01*
X99742360Y-113956668D01*
X99737976Y-113962579D01*
X99733033Y-113968033D01*
X99727579Y-113972976D01*
X99721668Y-113977360D01*
X99715355Y-113981144D01*
X99708701Y-113984291D01*
X99701771Y-113986771D01*
X99694632Y-113988559D01*
X99687351Y-113989639D01*
X99680000Y-113990000D01*
X98355000Y-113990000D01*
X98347649Y-113989639D01*
X98340368Y-113988559D01*
X98333229Y-113986771D01*
X98326299Y-113984291D01*
X98319645Y-113981144D01*
X98313332Y-113977360D01*
X98307421Y-113972976D01*
X98301967Y-113968033D01*
X98297024Y-113962579D01*
X98292640Y-113956668D01*
X98288856Y-113950355D01*
X98285709Y-113943701D01*
X98283229Y-113936771D01*
X98281441Y-113929632D01*
X98280361Y-113922351D01*
X98280000Y-113915000D01*
X98280000Y-113765000D01*
X98280361Y-113757649D01*
X98281441Y-113750368D01*
X98283229Y-113743229D01*
X98285709Y-113736299D01*
X98288856Y-113729645D01*
X98292640Y-113723332D01*
X98297024Y-113717421D01*
X98301967Y-113711967D01*
X98307421Y-113707024D01*
X98313332Y-113702640D01*
X98319645Y-113698856D01*
X98326299Y-113695709D01*
X98333229Y-113693229D01*
X98340368Y-113691441D01*
X98347649Y-113690361D01*
X98355000Y-113690000D01*
X99680000Y-113690000D01*
X99687351Y-113690361D01*
X99687351Y-113690361D01*
G37*
D11*
X99017500Y-113840000D03*
D10*
G36*
X99687351Y-114190361D02*
X99694632Y-114191441D01*
X99701771Y-114193229D01*
X99708701Y-114195709D01*
X99715355Y-114198856D01*
X99721668Y-114202640D01*
X99727579Y-114207024D01*
X99733033Y-114211967D01*
X99737976Y-114217421D01*
X99742360Y-114223332D01*
X99746144Y-114229645D01*
X99749291Y-114236299D01*
X99751771Y-114243229D01*
X99753559Y-114250368D01*
X99754639Y-114257649D01*
X99755000Y-114265000D01*
X99755000Y-114415000D01*
X99754639Y-114422351D01*
X99753559Y-114429632D01*
X99751771Y-114436771D01*
X99749291Y-114443701D01*
X99746144Y-114450355D01*
X99742360Y-114456668D01*
X99737976Y-114462579D01*
X99733033Y-114468033D01*
X99727579Y-114472976D01*
X99721668Y-114477360D01*
X99715355Y-114481144D01*
X99708701Y-114484291D01*
X99701771Y-114486771D01*
X99694632Y-114488559D01*
X99687351Y-114489639D01*
X99680000Y-114490000D01*
X98355000Y-114490000D01*
X98347649Y-114489639D01*
X98340368Y-114488559D01*
X98333229Y-114486771D01*
X98326299Y-114484291D01*
X98319645Y-114481144D01*
X98313332Y-114477360D01*
X98307421Y-114472976D01*
X98301967Y-114468033D01*
X98297024Y-114462579D01*
X98292640Y-114456668D01*
X98288856Y-114450355D01*
X98285709Y-114443701D01*
X98283229Y-114436771D01*
X98281441Y-114429632D01*
X98280361Y-114422351D01*
X98280000Y-114415000D01*
X98280000Y-114265000D01*
X98280361Y-114257649D01*
X98281441Y-114250368D01*
X98283229Y-114243229D01*
X98285709Y-114236299D01*
X98288856Y-114229645D01*
X98292640Y-114223332D01*
X98297024Y-114217421D01*
X98301967Y-114211967D01*
X98307421Y-114207024D01*
X98313332Y-114202640D01*
X98319645Y-114198856D01*
X98326299Y-114195709D01*
X98333229Y-114193229D01*
X98340368Y-114191441D01*
X98347649Y-114190361D01*
X98355000Y-114190000D01*
X99680000Y-114190000D01*
X99687351Y-114190361D01*
X99687351Y-114190361D01*
G37*
D11*
X99017500Y-114340000D03*
D10*
G36*
X99687351Y-114690361D02*
X99694632Y-114691441D01*
X99701771Y-114693229D01*
X99708701Y-114695709D01*
X99715355Y-114698856D01*
X99721668Y-114702640D01*
X99727579Y-114707024D01*
X99733033Y-114711967D01*
X99737976Y-114717421D01*
X99742360Y-114723332D01*
X99746144Y-114729645D01*
X99749291Y-114736299D01*
X99751771Y-114743229D01*
X99753559Y-114750368D01*
X99754639Y-114757649D01*
X99755000Y-114765000D01*
X99755000Y-114915000D01*
X99754639Y-114922351D01*
X99753559Y-114929632D01*
X99751771Y-114936771D01*
X99749291Y-114943701D01*
X99746144Y-114950355D01*
X99742360Y-114956668D01*
X99737976Y-114962579D01*
X99733033Y-114968033D01*
X99727579Y-114972976D01*
X99721668Y-114977360D01*
X99715355Y-114981144D01*
X99708701Y-114984291D01*
X99701771Y-114986771D01*
X99694632Y-114988559D01*
X99687351Y-114989639D01*
X99680000Y-114990000D01*
X98355000Y-114990000D01*
X98347649Y-114989639D01*
X98340368Y-114988559D01*
X98333229Y-114986771D01*
X98326299Y-114984291D01*
X98319645Y-114981144D01*
X98313332Y-114977360D01*
X98307421Y-114972976D01*
X98301967Y-114968033D01*
X98297024Y-114962579D01*
X98292640Y-114956668D01*
X98288856Y-114950355D01*
X98285709Y-114943701D01*
X98283229Y-114936771D01*
X98281441Y-114929632D01*
X98280361Y-114922351D01*
X98280000Y-114915000D01*
X98280000Y-114765000D01*
X98280361Y-114757649D01*
X98281441Y-114750368D01*
X98283229Y-114743229D01*
X98285709Y-114736299D01*
X98288856Y-114729645D01*
X98292640Y-114723332D01*
X98297024Y-114717421D01*
X98301967Y-114711967D01*
X98307421Y-114707024D01*
X98313332Y-114702640D01*
X98319645Y-114698856D01*
X98326299Y-114695709D01*
X98333229Y-114693229D01*
X98340368Y-114691441D01*
X98347649Y-114690361D01*
X98355000Y-114690000D01*
X99680000Y-114690000D01*
X99687351Y-114690361D01*
X99687351Y-114690361D01*
G37*
D11*
X99017500Y-114840000D03*
D10*
G36*
X99687351Y-115190361D02*
X99694632Y-115191441D01*
X99701771Y-115193229D01*
X99708701Y-115195709D01*
X99715355Y-115198856D01*
X99721668Y-115202640D01*
X99727579Y-115207024D01*
X99733033Y-115211967D01*
X99737976Y-115217421D01*
X99742360Y-115223332D01*
X99746144Y-115229645D01*
X99749291Y-115236299D01*
X99751771Y-115243229D01*
X99753559Y-115250368D01*
X99754639Y-115257649D01*
X99755000Y-115265000D01*
X99755000Y-115415000D01*
X99754639Y-115422351D01*
X99753559Y-115429632D01*
X99751771Y-115436771D01*
X99749291Y-115443701D01*
X99746144Y-115450355D01*
X99742360Y-115456668D01*
X99737976Y-115462579D01*
X99733033Y-115468033D01*
X99727579Y-115472976D01*
X99721668Y-115477360D01*
X99715355Y-115481144D01*
X99708701Y-115484291D01*
X99701771Y-115486771D01*
X99694632Y-115488559D01*
X99687351Y-115489639D01*
X99680000Y-115490000D01*
X98355000Y-115490000D01*
X98347649Y-115489639D01*
X98340368Y-115488559D01*
X98333229Y-115486771D01*
X98326299Y-115484291D01*
X98319645Y-115481144D01*
X98313332Y-115477360D01*
X98307421Y-115472976D01*
X98301967Y-115468033D01*
X98297024Y-115462579D01*
X98292640Y-115456668D01*
X98288856Y-115450355D01*
X98285709Y-115443701D01*
X98283229Y-115436771D01*
X98281441Y-115429632D01*
X98280361Y-115422351D01*
X98280000Y-115415000D01*
X98280000Y-115265000D01*
X98280361Y-115257649D01*
X98281441Y-115250368D01*
X98283229Y-115243229D01*
X98285709Y-115236299D01*
X98288856Y-115229645D01*
X98292640Y-115223332D01*
X98297024Y-115217421D01*
X98301967Y-115211967D01*
X98307421Y-115207024D01*
X98313332Y-115202640D01*
X98319645Y-115198856D01*
X98326299Y-115195709D01*
X98333229Y-115193229D01*
X98340368Y-115191441D01*
X98347649Y-115190361D01*
X98355000Y-115190000D01*
X99680000Y-115190000D01*
X99687351Y-115190361D01*
X99687351Y-115190361D01*
G37*
D11*
X99017500Y-115340000D03*
D10*
G36*
X99687351Y-115690361D02*
X99694632Y-115691441D01*
X99701771Y-115693229D01*
X99708701Y-115695709D01*
X99715355Y-115698856D01*
X99721668Y-115702640D01*
X99727579Y-115707024D01*
X99733033Y-115711967D01*
X99737976Y-115717421D01*
X99742360Y-115723332D01*
X99746144Y-115729645D01*
X99749291Y-115736299D01*
X99751771Y-115743229D01*
X99753559Y-115750368D01*
X99754639Y-115757649D01*
X99755000Y-115765000D01*
X99755000Y-115915000D01*
X99754639Y-115922351D01*
X99753559Y-115929632D01*
X99751771Y-115936771D01*
X99749291Y-115943701D01*
X99746144Y-115950355D01*
X99742360Y-115956668D01*
X99737976Y-115962579D01*
X99733033Y-115968033D01*
X99727579Y-115972976D01*
X99721668Y-115977360D01*
X99715355Y-115981144D01*
X99708701Y-115984291D01*
X99701771Y-115986771D01*
X99694632Y-115988559D01*
X99687351Y-115989639D01*
X99680000Y-115990000D01*
X98355000Y-115990000D01*
X98347649Y-115989639D01*
X98340368Y-115988559D01*
X98333229Y-115986771D01*
X98326299Y-115984291D01*
X98319645Y-115981144D01*
X98313332Y-115977360D01*
X98307421Y-115972976D01*
X98301967Y-115968033D01*
X98297024Y-115962579D01*
X98292640Y-115956668D01*
X98288856Y-115950355D01*
X98285709Y-115943701D01*
X98283229Y-115936771D01*
X98281441Y-115929632D01*
X98280361Y-115922351D01*
X98280000Y-115915000D01*
X98280000Y-115765000D01*
X98280361Y-115757649D01*
X98281441Y-115750368D01*
X98283229Y-115743229D01*
X98285709Y-115736299D01*
X98288856Y-115729645D01*
X98292640Y-115723332D01*
X98297024Y-115717421D01*
X98301967Y-115711967D01*
X98307421Y-115707024D01*
X98313332Y-115702640D01*
X98319645Y-115698856D01*
X98326299Y-115695709D01*
X98333229Y-115693229D01*
X98340368Y-115691441D01*
X98347649Y-115690361D01*
X98355000Y-115690000D01*
X99680000Y-115690000D01*
X99687351Y-115690361D01*
X99687351Y-115690361D01*
G37*
D11*
X99017500Y-115840000D03*
D10*
G36*
X99687351Y-116190361D02*
X99694632Y-116191441D01*
X99701771Y-116193229D01*
X99708701Y-116195709D01*
X99715355Y-116198856D01*
X99721668Y-116202640D01*
X99727579Y-116207024D01*
X99733033Y-116211967D01*
X99737976Y-116217421D01*
X99742360Y-116223332D01*
X99746144Y-116229645D01*
X99749291Y-116236299D01*
X99751771Y-116243229D01*
X99753559Y-116250368D01*
X99754639Y-116257649D01*
X99755000Y-116265000D01*
X99755000Y-116415000D01*
X99754639Y-116422351D01*
X99753559Y-116429632D01*
X99751771Y-116436771D01*
X99749291Y-116443701D01*
X99746144Y-116450355D01*
X99742360Y-116456668D01*
X99737976Y-116462579D01*
X99733033Y-116468033D01*
X99727579Y-116472976D01*
X99721668Y-116477360D01*
X99715355Y-116481144D01*
X99708701Y-116484291D01*
X99701771Y-116486771D01*
X99694632Y-116488559D01*
X99687351Y-116489639D01*
X99680000Y-116490000D01*
X98355000Y-116490000D01*
X98347649Y-116489639D01*
X98340368Y-116488559D01*
X98333229Y-116486771D01*
X98326299Y-116484291D01*
X98319645Y-116481144D01*
X98313332Y-116477360D01*
X98307421Y-116472976D01*
X98301967Y-116468033D01*
X98297024Y-116462579D01*
X98292640Y-116456668D01*
X98288856Y-116450355D01*
X98285709Y-116443701D01*
X98283229Y-116436771D01*
X98281441Y-116429632D01*
X98280361Y-116422351D01*
X98280000Y-116415000D01*
X98280000Y-116265000D01*
X98280361Y-116257649D01*
X98281441Y-116250368D01*
X98283229Y-116243229D01*
X98285709Y-116236299D01*
X98288856Y-116229645D01*
X98292640Y-116223332D01*
X98297024Y-116217421D01*
X98301967Y-116211967D01*
X98307421Y-116207024D01*
X98313332Y-116202640D01*
X98319645Y-116198856D01*
X98326299Y-116195709D01*
X98333229Y-116193229D01*
X98340368Y-116191441D01*
X98347649Y-116190361D01*
X98355000Y-116190000D01*
X99680000Y-116190000D01*
X99687351Y-116190361D01*
X99687351Y-116190361D01*
G37*
D11*
X99017500Y-116340000D03*
D10*
G36*
X99687351Y-116690361D02*
X99694632Y-116691441D01*
X99701771Y-116693229D01*
X99708701Y-116695709D01*
X99715355Y-116698856D01*
X99721668Y-116702640D01*
X99727579Y-116707024D01*
X99733033Y-116711967D01*
X99737976Y-116717421D01*
X99742360Y-116723332D01*
X99746144Y-116729645D01*
X99749291Y-116736299D01*
X99751771Y-116743229D01*
X99753559Y-116750368D01*
X99754639Y-116757649D01*
X99755000Y-116765000D01*
X99755000Y-116915000D01*
X99754639Y-116922351D01*
X99753559Y-116929632D01*
X99751771Y-116936771D01*
X99749291Y-116943701D01*
X99746144Y-116950355D01*
X99742360Y-116956668D01*
X99737976Y-116962579D01*
X99733033Y-116968033D01*
X99727579Y-116972976D01*
X99721668Y-116977360D01*
X99715355Y-116981144D01*
X99708701Y-116984291D01*
X99701771Y-116986771D01*
X99694632Y-116988559D01*
X99687351Y-116989639D01*
X99680000Y-116990000D01*
X98355000Y-116990000D01*
X98347649Y-116989639D01*
X98340368Y-116988559D01*
X98333229Y-116986771D01*
X98326299Y-116984291D01*
X98319645Y-116981144D01*
X98313332Y-116977360D01*
X98307421Y-116972976D01*
X98301967Y-116968033D01*
X98297024Y-116962579D01*
X98292640Y-116956668D01*
X98288856Y-116950355D01*
X98285709Y-116943701D01*
X98283229Y-116936771D01*
X98281441Y-116929632D01*
X98280361Y-116922351D01*
X98280000Y-116915000D01*
X98280000Y-116765000D01*
X98280361Y-116757649D01*
X98281441Y-116750368D01*
X98283229Y-116743229D01*
X98285709Y-116736299D01*
X98288856Y-116729645D01*
X98292640Y-116723332D01*
X98297024Y-116717421D01*
X98301967Y-116711967D01*
X98307421Y-116707024D01*
X98313332Y-116702640D01*
X98319645Y-116698856D01*
X98326299Y-116695709D01*
X98333229Y-116693229D01*
X98340368Y-116691441D01*
X98347649Y-116690361D01*
X98355000Y-116690000D01*
X99680000Y-116690000D01*
X99687351Y-116690361D01*
X99687351Y-116690361D01*
G37*
D11*
X99017500Y-116840000D03*
D10*
G36*
X99687351Y-117190361D02*
X99694632Y-117191441D01*
X99701771Y-117193229D01*
X99708701Y-117195709D01*
X99715355Y-117198856D01*
X99721668Y-117202640D01*
X99727579Y-117207024D01*
X99733033Y-117211967D01*
X99737976Y-117217421D01*
X99742360Y-117223332D01*
X99746144Y-117229645D01*
X99749291Y-117236299D01*
X99751771Y-117243229D01*
X99753559Y-117250368D01*
X99754639Y-117257649D01*
X99755000Y-117265000D01*
X99755000Y-117415000D01*
X99754639Y-117422351D01*
X99753559Y-117429632D01*
X99751771Y-117436771D01*
X99749291Y-117443701D01*
X99746144Y-117450355D01*
X99742360Y-117456668D01*
X99737976Y-117462579D01*
X99733033Y-117468033D01*
X99727579Y-117472976D01*
X99721668Y-117477360D01*
X99715355Y-117481144D01*
X99708701Y-117484291D01*
X99701771Y-117486771D01*
X99694632Y-117488559D01*
X99687351Y-117489639D01*
X99680000Y-117490000D01*
X98355000Y-117490000D01*
X98347649Y-117489639D01*
X98340368Y-117488559D01*
X98333229Y-117486771D01*
X98326299Y-117484291D01*
X98319645Y-117481144D01*
X98313332Y-117477360D01*
X98307421Y-117472976D01*
X98301967Y-117468033D01*
X98297024Y-117462579D01*
X98292640Y-117456668D01*
X98288856Y-117450355D01*
X98285709Y-117443701D01*
X98283229Y-117436771D01*
X98281441Y-117429632D01*
X98280361Y-117422351D01*
X98280000Y-117415000D01*
X98280000Y-117265000D01*
X98280361Y-117257649D01*
X98281441Y-117250368D01*
X98283229Y-117243229D01*
X98285709Y-117236299D01*
X98288856Y-117229645D01*
X98292640Y-117223332D01*
X98297024Y-117217421D01*
X98301967Y-117211967D01*
X98307421Y-117207024D01*
X98313332Y-117202640D01*
X98319645Y-117198856D01*
X98326299Y-117195709D01*
X98333229Y-117193229D01*
X98340368Y-117191441D01*
X98347649Y-117190361D01*
X98355000Y-117190000D01*
X99680000Y-117190000D01*
X99687351Y-117190361D01*
X99687351Y-117190361D01*
G37*
D11*
X99017500Y-117340000D03*
D10*
G36*
X99687351Y-117690361D02*
X99694632Y-117691441D01*
X99701771Y-117693229D01*
X99708701Y-117695709D01*
X99715355Y-117698856D01*
X99721668Y-117702640D01*
X99727579Y-117707024D01*
X99733033Y-117711967D01*
X99737976Y-117717421D01*
X99742360Y-117723332D01*
X99746144Y-117729645D01*
X99749291Y-117736299D01*
X99751771Y-117743229D01*
X99753559Y-117750368D01*
X99754639Y-117757649D01*
X99755000Y-117765000D01*
X99755000Y-117915000D01*
X99754639Y-117922351D01*
X99753559Y-117929632D01*
X99751771Y-117936771D01*
X99749291Y-117943701D01*
X99746144Y-117950355D01*
X99742360Y-117956668D01*
X99737976Y-117962579D01*
X99733033Y-117968033D01*
X99727579Y-117972976D01*
X99721668Y-117977360D01*
X99715355Y-117981144D01*
X99708701Y-117984291D01*
X99701771Y-117986771D01*
X99694632Y-117988559D01*
X99687351Y-117989639D01*
X99680000Y-117990000D01*
X98355000Y-117990000D01*
X98347649Y-117989639D01*
X98340368Y-117988559D01*
X98333229Y-117986771D01*
X98326299Y-117984291D01*
X98319645Y-117981144D01*
X98313332Y-117977360D01*
X98307421Y-117972976D01*
X98301967Y-117968033D01*
X98297024Y-117962579D01*
X98292640Y-117956668D01*
X98288856Y-117950355D01*
X98285709Y-117943701D01*
X98283229Y-117936771D01*
X98281441Y-117929632D01*
X98280361Y-117922351D01*
X98280000Y-117915000D01*
X98280000Y-117765000D01*
X98280361Y-117757649D01*
X98281441Y-117750368D01*
X98283229Y-117743229D01*
X98285709Y-117736299D01*
X98288856Y-117729645D01*
X98292640Y-117723332D01*
X98297024Y-117717421D01*
X98301967Y-117711967D01*
X98307421Y-117707024D01*
X98313332Y-117702640D01*
X98319645Y-117698856D01*
X98326299Y-117695709D01*
X98333229Y-117693229D01*
X98340368Y-117691441D01*
X98347649Y-117690361D01*
X98355000Y-117690000D01*
X99680000Y-117690000D01*
X99687351Y-117690361D01*
X99687351Y-117690361D01*
G37*
D11*
X99017500Y-117840000D03*
D10*
G36*
X99687351Y-118190361D02*
X99694632Y-118191441D01*
X99701771Y-118193229D01*
X99708701Y-118195709D01*
X99715355Y-118198856D01*
X99721668Y-118202640D01*
X99727579Y-118207024D01*
X99733033Y-118211967D01*
X99737976Y-118217421D01*
X99742360Y-118223332D01*
X99746144Y-118229645D01*
X99749291Y-118236299D01*
X99751771Y-118243229D01*
X99753559Y-118250368D01*
X99754639Y-118257649D01*
X99755000Y-118265000D01*
X99755000Y-118415000D01*
X99754639Y-118422351D01*
X99753559Y-118429632D01*
X99751771Y-118436771D01*
X99749291Y-118443701D01*
X99746144Y-118450355D01*
X99742360Y-118456668D01*
X99737976Y-118462579D01*
X99733033Y-118468033D01*
X99727579Y-118472976D01*
X99721668Y-118477360D01*
X99715355Y-118481144D01*
X99708701Y-118484291D01*
X99701771Y-118486771D01*
X99694632Y-118488559D01*
X99687351Y-118489639D01*
X99680000Y-118490000D01*
X98355000Y-118490000D01*
X98347649Y-118489639D01*
X98340368Y-118488559D01*
X98333229Y-118486771D01*
X98326299Y-118484291D01*
X98319645Y-118481144D01*
X98313332Y-118477360D01*
X98307421Y-118472976D01*
X98301967Y-118468033D01*
X98297024Y-118462579D01*
X98292640Y-118456668D01*
X98288856Y-118450355D01*
X98285709Y-118443701D01*
X98283229Y-118436771D01*
X98281441Y-118429632D01*
X98280361Y-118422351D01*
X98280000Y-118415000D01*
X98280000Y-118265000D01*
X98280361Y-118257649D01*
X98281441Y-118250368D01*
X98283229Y-118243229D01*
X98285709Y-118236299D01*
X98288856Y-118229645D01*
X98292640Y-118223332D01*
X98297024Y-118217421D01*
X98301967Y-118211967D01*
X98307421Y-118207024D01*
X98313332Y-118202640D01*
X98319645Y-118198856D01*
X98326299Y-118195709D01*
X98333229Y-118193229D01*
X98340368Y-118191441D01*
X98347649Y-118190361D01*
X98355000Y-118190000D01*
X99680000Y-118190000D01*
X99687351Y-118190361D01*
X99687351Y-118190361D01*
G37*
D11*
X99017500Y-118340000D03*
D10*
G36*
X99687351Y-118690361D02*
X99694632Y-118691441D01*
X99701771Y-118693229D01*
X99708701Y-118695709D01*
X99715355Y-118698856D01*
X99721668Y-118702640D01*
X99727579Y-118707024D01*
X99733033Y-118711967D01*
X99737976Y-118717421D01*
X99742360Y-118723332D01*
X99746144Y-118729645D01*
X99749291Y-118736299D01*
X99751771Y-118743229D01*
X99753559Y-118750368D01*
X99754639Y-118757649D01*
X99755000Y-118765000D01*
X99755000Y-118915000D01*
X99754639Y-118922351D01*
X99753559Y-118929632D01*
X99751771Y-118936771D01*
X99749291Y-118943701D01*
X99746144Y-118950355D01*
X99742360Y-118956668D01*
X99737976Y-118962579D01*
X99733033Y-118968033D01*
X99727579Y-118972976D01*
X99721668Y-118977360D01*
X99715355Y-118981144D01*
X99708701Y-118984291D01*
X99701771Y-118986771D01*
X99694632Y-118988559D01*
X99687351Y-118989639D01*
X99680000Y-118990000D01*
X98355000Y-118990000D01*
X98347649Y-118989639D01*
X98340368Y-118988559D01*
X98333229Y-118986771D01*
X98326299Y-118984291D01*
X98319645Y-118981144D01*
X98313332Y-118977360D01*
X98307421Y-118972976D01*
X98301967Y-118968033D01*
X98297024Y-118962579D01*
X98292640Y-118956668D01*
X98288856Y-118950355D01*
X98285709Y-118943701D01*
X98283229Y-118936771D01*
X98281441Y-118929632D01*
X98280361Y-118922351D01*
X98280000Y-118915000D01*
X98280000Y-118765000D01*
X98280361Y-118757649D01*
X98281441Y-118750368D01*
X98283229Y-118743229D01*
X98285709Y-118736299D01*
X98288856Y-118729645D01*
X98292640Y-118723332D01*
X98297024Y-118717421D01*
X98301967Y-118711967D01*
X98307421Y-118707024D01*
X98313332Y-118702640D01*
X98319645Y-118698856D01*
X98326299Y-118695709D01*
X98333229Y-118693229D01*
X98340368Y-118691441D01*
X98347649Y-118690361D01*
X98355000Y-118690000D01*
X99680000Y-118690000D01*
X99687351Y-118690361D01*
X99687351Y-118690361D01*
G37*
D11*
X99017500Y-118840000D03*
D10*
G36*
X99687351Y-119190361D02*
X99694632Y-119191441D01*
X99701771Y-119193229D01*
X99708701Y-119195709D01*
X99715355Y-119198856D01*
X99721668Y-119202640D01*
X99727579Y-119207024D01*
X99733033Y-119211967D01*
X99737976Y-119217421D01*
X99742360Y-119223332D01*
X99746144Y-119229645D01*
X99749291Y-119236299D01*
X99751771Y-119243229D01*
X99753559Y-119250368D01*
X99754639Y-119257649D01*
X99755000Y-119265000D01*
X99755000Y-119415000D01*
X99754639Y-119422351D01*
X99753559Y-119429632D01*
X99751771Y-119436771D01*
X99749291Y-119443701D01*
X99746144Y-119450355D01*
X99742360Y-119456668D01*
X99737976Y-119462579D01*
X99733033Y-119468033D01*
X99727579Y-119472976D01*
X99721668Y-119477360D01*
X99715355Y-119481144D01*
X99708701Y-119484291D01*
X99701771Y-119486771D01*
X99694632Y-119488559D01*
X99687351Y-119489639D01*
X99680000Y-119490000D01*
X98355000Y-119490000D01*
X98347649Y-119489639D01*
X98340368Y-119488559D01*
X98333229Y-119486771D01*
X98326299Y-119484291D01*
X98319645Y-119481144D01*
X98313332Y-119477360D01*
X98307421Y-119472976D01*
X98301967Y-119468033D01*
X98297024Y-119462579D01*
X98292640Y-119456668D01*
X98288856Y-119450355D01*
X98285709Y-119443701D01*
X98283229Y-119436771D01*
X98281441Y-119429632D01*
X98280361Y-119422351D01*
X98280000Y-119415000D01*
X98280000Y-119265000D01*
X98280361Y-119257649D01*
X98281441Y-119250368D01*
X98283229Y-119243229D01*
X98285709Y-119236299D01*
X98288856Y-119229645D01*
X98292640Y-119223332D01*
X98297024Y-119217421D01*
X98301967Y-119211967D01*
X98307421Y-119207024D01*
X98313332Y-119202640D01*
X98319645Y-119198856D01*
X98326299Y-119195709D01*
X98333229Y-119193229D01*
X98340368Y-119191441D01*
X98347649Y-119190361D01*
X98355000Y-119190000D01*
X99680000Y-119190000D01*
X99687351Y-119190361D01*
X99687351Y-119190361D01*
G37*
D11*
X99017500Y-119340000D03*
D10*
G36*
X99687351Y-119690361D02*
X99694632Y-119691441D01*
X99701771Y-119693229D01*
X99708701Y-119695709D01*
X99715355Y-119698856D01*
X99721668Y-119702640D01*
X99727579Y-119707024D01*
X99733033Y-119711967D01*
X99737976Y-119717421D01*
X99742360Y-119723332D01*
X99746144Y-119729645D01*
X99749291Y-119736299D01*
X99751771Y-119743229D01*
X99753559Y-119750368D01*
X99754639Y-119757649D01*
X99755000Y-119765000D01*
X99755000Y-119915000D01*
X99754639Y-119922351D01*
X99753559Y-119929632D01*
X99751771Y-119936771D01*
X99749291Y-119943701D01*
X99746144Y-119950355D01*
X99742360Y-119956668D01*
X99737976Y-119962579D01*
X99733033Y-119968033D01*
X99727579Y-119972976D01*
X99721668Y-119977360D01*
X99715355Y-119981144D01*
X99708701Y-119984291D01*
X99701771Y-119986771D01*
X99694632Y-119988559D01*
X99687351Y-119989639D01*
X99680000Y-119990000D01*
X98355000Y-119990000D01*
X98347649Y-119989639D01*
X98340368Y-119988559D01*
X98333229Y-119986771D01*
X98326299Y-119984291D01*
X98319645Y-119981144D01*
X98313332Y-119977360D01*
X98307421Y-119972976D01*
X98301967Y-119968033D01*
X98297024Y-119962579D01*
X98292640Y-119956668D01*
X98288856Y-119950355D01*
X98285709Y-119943701D01*
X98283229Y-119936771D01*
X98281441Y-119929632D01*
X98280361Y-119922351D01*
X98280000Y-119915000D01*
X98280000Y-119765000D01*
X98280361Y-119757649D01*
X98281441Y-119750368D01*
X98283229Y-119743229D01*
X98285709Y-119736299D01*
X98288856Y-119729645D01*
X98292640Y-119723332D01*
X98297024Y-119717421D01*
X98301967Y-119711967D01*
X98307421Y-119707024D01*
X98313332Y-119702640D01*
X98319645Y-119698856D01*
X98326299Y-119695709D01*
X98333229Y-119693229D01*
X98340368Y-119691441D01*
X98347649Y-119690361D01*
X98355000Y-119690000D01*
X99680000Y-119690000D01*
X99687351Y-119690361D01*
X99687351Y-119690361D01*
G37*
D11*
X99017500Y-119840000D03*
D10*
G36*
X99687351Y-120190361D02*
X99694632Y-120191441D01*
X99701771Y-120193229D01*
X99708701Y-120195709D01*
X99715355Y-120198856D01*
X99721668Y-120202640D01*
X99727579Y-120207024D01*
X99733033Y-120211967D01*
X99737976Y-120217421D01*
X99742360Y-120223332D01*
X99746144Y-120229645D01*
X99749291Y-120236299D01*
X99751771Y-120243229D01*
X99753559Y-120250368D01*
X99754639Y-120257649D01*
X99755000Y-120265000D01*
X99755000Y-120415000D01*
X99754639Y-120422351D01*
X99753559Y-120429632D01*
X99751771Y-120436771D01*
X99749291Y-120443701D01*
X99746144Y-120450355D01*
X99742360Y-120456668D01*
X99737976Y-120462579D01*
X99733033Y-120468033D01*
X99727579Y-120472976D01*
X99721668Y-120477360D01*
X99715355Y-120481144D01*
X99708701Y-120484291D01*
X99701771Y-120486771D01*
X99694632Y-120488559D01*
X99687351Y-120489639D01*
X99680000Y-120490000D01*
X98355000Y-120490000D01*
X98347649Y-120489639D01*
X98340368Y-120488559D01*
X98333229Y-120486771D01*
X98326299Y-120484291D01*
X98319645Y-120481144D01*
X98313332Y-120477360D01*
X98307421Y-120472976D01*
X98301967Y-120468033D01*
X98297024Y-120462579D01*
X98292640Y-120456668D01*
X98288856Y-120450355D01*
X98285709Y-120443701D01*
X98283229Y-120436771D01*
X98281441Y-120429632D01*
X98280361Y-120422351D01*
X98280000Y-120415000D01*
X98280000Y-120265000D01*
X98280361Y-120257649D01*
X98281441Y-120250368D01*
X98283229Y-120243229D01*
X98285709Y-120236299D01*
X98288856Y-120229645D01*
X98292640Y-120223332D01*
X98297024Y-120217421D01*
X98301967Y-120211967D01*
X98307421Y-120207024D01*
X98313332Y-120202640D01*
X98319645Y-120198856D01*
X98326299Y-120195709D01*
X98333229Y-120193229D01*
X98340368Y-120191441D01*
X98347649Y-120190361D01*
X98355000Y-120190000D01*
X99680000Y-120190000D01*
X99687351Y-120190361D01*
X99687351Y-120190361D01*
G37*
D11*
X99017500Y-120340000D03*
D10*
G36*
X99687351Y-120690361D02*
X99694632Y-120691441D01*
X99701771Y-120693229D01*
X99708701Y-120695709D01*
X99715355Y-120698856D01*
X99721668Y-120702640D01*
X99727579Y-120707024D01*
X99733033Y-120711967D01*
X99737976Y-120717421D01*
X99742360Y-120723332D01*
X99746144Y-120729645D01*
X99749291Y-120736299D01*
X99751771Y-120743229D01*
X99753559Y-120750368D01*
X99754639Y-120757649D01*
X99755000Y-120765000D01*
X99755000Y-120915000D01*
X99754639Y-120922351D01*
X99753559Y-120929632D01*
X99751771Y-120936771D01*
X99749291Y-120943701D01*
X99746144Y-120950355D01*
X99742360Y-120956668D01*
X99737976Y-120962579D01*
X99733033Y-120968033D01*
X99727579Y-120972976D01*
X99721668Y-120977360D01*
X99715355Y-120981144D01*
X99708701Y-120984291D01*
X99701771Y-120986771D01*
X99694632Y-120988559D01*
X99687351Y-120989639D01*
X99680000Y-120990000D01*
X98355000Y-120990000D01*
X98347649Y-120989639D01*
X98340368Y-120988559D01*
X98333229Y-120986771D01*
X98326299Y-120984291D01*
X98319645Y-120981144D01*
X98313332Y-120977360D01*
X98307421Y-120972976D01*
X98301967Y-120968033D01*
X98297024Y-120962579D01*
X98292640Y-120956668D01*
X98288856Y-120950355D01*
X98285709Y-120943701D01*
X98283229Y-120936771D01*
X98281441Y-120929632D01*
X98280361Y-120922351D01*
X98280000Y-120915000D01*
X98280000Y-120765000D01*
X98280361Y-120757649D01*
X98281441Y-120750368D01*
X98283229Y-120743229D01*
X98285709Y-120736299D01*
X98288856Y-120729645D01*
X98292640Y-120723332D01*
X98297024Y-120717421D01*
X98301967Y-120711967D01*
X98307421Y-120707024D01*
X98313332Y-120702640D01*
X98319645Y-120698856D01*
X98326299Y-120695709D01*
X98333229Y-120693229D01*
X98340368Y-120691441D01*
X98347649Y-120690361D01*
X98355000Y-120690000D01*
X99680000Y-120690000D01*
X99687351Y-120690361D01*
X99687351Y-120690361D01*
G37*
D11*
X99017500Y-120840000D03*
D10*
G36*
X99687351Y-121190361D02*
X99694632Y-121191441D01*
X99701771Y-121193229D01*
X99708701Y-121195709D01*
X99715355Y-121198856D01*
X99721668Y-121202640D01*
X99727579Y-121207024D01*
X99733033Y-121211967D01*
X99737976Y-121217421D01*
X99742360Y-121223332D01*
X99746144Y-121229645D01*
X99749291Y-121236299D01*
X99751771Y-121243229D01*
X99753559Y-121250368D01*
X99754639Y-121257649D01*
X99755000Y-121265000D01*
X99755000Y-121415000D01*
X99754639Y-121422351D01*
X99753559Y-121429632D01*
X99751771Y-121436771D01*
X99749291Y-121443701D01*
X99746144Y-121450355D01*
X99742360Y-121456668D01*
X99737976Y-121462579D01*
X99733033Y-121468033D01*
X99727579Y-121472976D01*
X99721668Y-121477360D01*
X99715355Y-121481144D01*
X99708701Y-121484291D01*
X99701771Y-121486771D01*
X99694632Y-121488559D01*
X99687351Y-121489639D01*
X99680000Y-121490000D01*
X98355000Y-121490000D01*
X98347649Y-121489639D01*
X98340368Y-121488559D01*
X98333229Y-121486771D01*
X98326299Y-121484291D01*
X98319645Y-121481144D01*
X98313332Y-121477360D01*
X98307421Y-121472976D01*
X98301967Y-121468033D01*
X98297024Y-121462579D01*
X98292640Y-121456668D01*
X98288856Y-121450355D01*
X98285709Y-121443701D01*
X98283229Y-121436771D01*
X98281441Y-121429632D01*
X98280361Y-121422351D01*
X98280000Y-121415000D01*
X98280000Y-121265000D01*
X98280361Y-121257649D01*
X98281441Y-121250368D01*
X98283229Y-121243229D01*
X98285709Y-121236299D01*
X98288856Y-121229645D01*
X98292640Y-121223332D01*
X98297024Y-121217421D01*
X98301967Y-121211967D01*
X98307421Y-121207024D01*
X98313332Y-121202640D01*
X98319645Y-121198856D01*
X98326299Y-121195709D01*
X98333229Y-121193229D01*
X98340368Y-121191441D01*
X98347649Y-121190361D01*
X98355000Y-121190000D01*
X99680000Y-121190000D01*
X99687351Y-121190361D01*
X99687351Y-121190361D01*
G37*
D11*
X99017500Y-121340000D03*
D10*
G36*
X99687351Y-121690361D02*
X99694632Y-121691441D01*
X99701771Y-121693229D01*
X99708701Y-121695709D01*
X99715355Y-121698856D01*
X99721668Y-121702640D01*
X99727579Y-121707024D01*
X99733033Y-121711967D01*
X99737976Y-121717421D01*
X99742360Y-121723332D01*
X99746144Y-121729645D01*
X99749291Y-121736299D01*
X99751771Y-121743229D01*
X99753559Y-121750368D01*
X99754639Y-121757649D01*
X99755000Y-121765000D01*
X99755000Y-121915000D01*
X99754639Y-121922351D01*
X99753559Y-121929632D01*
X99751771Y-121936771D01*
X99749291Y-121943701D01*
X99746144Y-121950355D01*
X99742360Y-121956668D01*
X99737976Y-121962579D01*
X99733033Y-121968033D01*
X99727579Y-121972976D01*
X99721668Y-121977360D01*
X99715355Y-121981144D01*
X99708701Y-121984291D01*
X99701771Y-121986771D01*
X99694632Y-121988559D01*
X99687351Y-121989639D01*
X99680000Y-121990000D01*
X98355000Y-121990000D01*
X98347649Y-121989639D01*
X98340368Y-121988559D01*
X98333229Y-121986771D01*
X98326299Y-121984291D01*
X98319645Y-121981144D01*
X98313332Y-121977360D01*
X98307421Y-121972976D01*
X98301967Y-121968033D01*
X98297024Y-121962579D01*
X98292640Y-121956668D01*
X98288856Y-121950355D01*
X98285709Y-121943701D01*
X98283229Y-121936771D01*
X98281441Y-121929632D01*
X98280361Y-121922351D01*
X98280000Y-121915000D01*
X98280000Y-121765000D01*
X98280361Y-121757649D01*
X98281441Y-121750368D01*
X98283229Y-121743229D01*
X98285709Y-121736299D01*
X98288856Y-121729645D01*
X98292640Y-121723332D01*
X98297024Y-121717421D01*
X98301967Y-121711967D01*
X98307421Y-121707024D01*
X98313332Y-121702640D01*
X98319645Y-121698856D01*
X98326299Y-121695709D01*
X98333229Y-121693229D01*
X98340368Y-121691441D01*
X98347649Y-121690361D01*
X98355000Y-121690000D01*
X99680000Y-121690000D01*
X99687351Y-121690361D01*
X99687351Y-121690361D01*
G37*
D11*
X99017500Y-121840000D03*
D10*
G36*
X99687351Y-122190361D02*
X99694632Y-122191441D01*
X99701771Y-122193229D01*
X99708701Y-122195709D01*
X99715355Y-122198856D01*
X99721668Y-122202640D01*
X99727579Y-122207024D01*
X99733033Y-122211967D01*
X99737976Y-122217421D01*
X99742360Y-122223332D01*
X99746144Y-122229645D01*
X99749291Y-122236299D01*
X99751771Y-122243229D01*
X99753559Y-122250368D01*
X99754639Y-122257649D01*
X99755000Y-122265000D01*
X99755000Y-122415000D01*
X99754639Y-122422351D01*
X99753559Y-122429632D01*
X99751771Y-122436771D01*
X99749291Y-122443701D01*
X99746144Y-122450355D01*
X99742360Y-122456668D01*
X99737976Y-122462579D01*
X99733033Y-122468033D01*
X99727579Y-122472976D01*
X99721668Y-122477360D01*
X99715355Y-122481144D01*
X99708701Y-122484291D01*
X99701771Y-122486771D01*
X99694632Y-122488559D01*
X99687351Y-122489639D01*
X99680000Y-122490000D01*
X98355000Y-122490000D01*
X98347649Y-122489639D01*
X98340368Y-122488559D01*
X98333229Y-122486771D01*
X98326299Y-122484291D01*
X98319645Y-122481144D01*
X98313332Y-122477360D01*
X98307421Y-122472976D01*
X98301967Y-122468033D01*
X98297024Y-122462579D01*
X98292640Y-122456668D01*
X98288856Y-122450355D01*
X98285709Y-122443701D01*
X98283229Y-122436771D01*
X98281441Y-122429632D01*
X98280361Y-122422351D01*
X98280000Y-122415000D01*
X98280000Y-122265000D01*
X98280361Y-122257649D01*
X98281441Y-122250368D01*
X98283229Y-122243229D01*
X98285709Y-122236299D01*
X98288856Y-122229645D01*
X98292640Y-122223332D01*
X98297024Y-122217421D01*
X98301967Y-122211967D01*
X98307421Y-122207024D01*
X98313332Y-122202640D01*
X98319645Y-122198856D01*
X98326299Y-122195709D01*
X98333229Y-122193229D01*
X98340368Y-122191441D01*
X98347649Y-122190361D01*
X98355000Y-122190000D01*
X99680000Y-122190000D01*
X99687351Y-122190361D01*
X99687351Y-122190361D01*
G37*
D11*
X99017500Y-122340000D03*
D10*
G36*
X99687351Y-122690361D02*
X99694632Y-122691441D01*
X99701771Y-122693229D01*
X99708701Y-122695709D01*
X99715355Y-122698856D01*
X99721668Y-122702640D01*
X99727579Y-122707024D01*
X99733033Y-122711967D01*
X99737976Y-122717421D01*
X99742360Y-122723332D01*
X99746144Y-122729645D01*
X99749291Y-122736299D01*
X99751771Y-122743229D01*
X99753559Y-122750368D01*
X99754639Y-122757649D01*
X99755000Y-122765000D01*
X99755000Y-122915000D01*
X99754639Y-122922351D01*
X99753559Y-122929632D01*
X99751771Y-122936771D01*
X99749291Y-122943701D01*
X99746144Y-122950355D01*
X99742360Y-122956668D01*
X99737976Y-122962579D01*
X99733033Y-122968033D01*
X99727579Y-122972976D01*
X99721668Y-122977360D01*
X99715355Y-122981144D01*
X99708701Y-122984291D01*
X99701771Y-122986771D01*
X99694632Y-122988559D01*
X99687351Y-122989639D01*
X99680000Y-122990000D01*
X98355000Y-122990000D01*
X98347649Y-122989639D01*
X98340368Y-122988559D01*
X98333229Y-122986771D01*
X98326299Y-122984291D01*
X98319645Y-122981144D01*
X98313332Y-122977360D01*
X98307421Y-122972976D01*
X98301967Y-122968033D01*
X98297024Y-122962579D01*
X98292640Y-122956668D01*
X98288856Y-122950355D01*
X98285709Y-122943701D01*
X98283229Y-122936771D01*
X98281441Y-122929632D01*
X98280361Y-122922351D01*
X98280000Y-122915000D01*
X98280000Y-122765000D01*
X98280361Y-122757649D01*
X98281441Y-122750368D01*
X98283229Y-122743229D01*
X98285709Y-122736299D01*
X98288856Y-122729645D01*
X98292640Y-122723332D01*
X98297024Y-122717421D01*
X98301967Y-122711967D01*
X98307421Y-122707024D01*
X98313332Y-122702640D01*
X98319645Y-122698856D01*
X98326299Y-122695709D01*
X98333229Y-122693229D01*
X98340368Y-122691441D01*
X98347649Y-122690361D01*
X98355000Y-122690000D01*
X99680000Y-122690000D01*
X99687351Y-122690361D01*
X99687351Y-122690361D01*
G37*
D11*
X99017500Y-122840000D03*
D10*
G36*
X100762351Y-123765361D02*
X100769632Y-123766441D01*
X100776771Y-123768229D01*
X100783701Y-123770709D01*
X100790355Y-123773856D01*
X100796668Y-123777640D01*
X100802579Y-123782024D01*
X100808033Y-123786967D01*
X100812976Y-123792421D01*
X100817360Y-123798332D01*
X100821144Y-123804645D01*
X100824291Y-123811299D01*
X100826771Y-123818229D01*
X100828559Y-123825368D01*
X100829639Y-123832649D01*
X100830000Y-123840000D01*
X100830000Y-125165000D01*
X100829639Y-125172351D01*
X100828559Y-125179632D01*
X100826771Y-125186771D01*
X100824291Y-125193701D01*
X100821144Y-125200355D01*
X100817360Y-125206668D01*
X100812976Y-125212579D01*
X100808033Y-125218033D01*
X100802579Y-125222976D01*
X100796668Y-125227360D01*
X100790355Y-125231144D01*
X100783701Y-125234291D01*
X100776771Y-125236771D01*
X100769632Y-125238559D01*
X100762351Y-125239639D01*
X100755000Y-125240000D01*
X100605000Y-125240000D01*
X100597649Y-125239639D01*
X100590368Y-125238559D01*
X100583229Y-125236771D01*
X100576299Y-125234291D01*
X100569645Y-125231144D01*
X100563332Y-125227360D01*
X100557421Y-125222976D01*
X100551967Y-125218033D01*
X100547024Y-125212579D01*
X100542640Y-125206668D01*
X100538856Y-125200355D01*
X100535709Y-125193701D01*
X100533229Y-125186771D01*
X100531441Y-125179632D01*
X100530361Y-125172351D01*
X100530000Y-125165000D01*
X100530000Y-123840000D01*
X100530361Y-123832649D01*
X100531441Y-123825368D01*
X100533229Y-123818229D01*
X100535709Y-123811299D01*
X100538856Y-123804645D01*
X100542640Y-123798332D01*
X100547024Y-123792421D01*
X100551967Y-123786967D01*
X100557421Y-123782024D01*
X100563332Y-123777640D01*
X100569645Y-123773856D01*
X100576299Y-123770709D01*
X100583229Y-123768229D01*
X100590368Y-123766441D01*
X100597649Y-123765361D01*
X100605000Y-123765000D01*
X100755000Y-123765000D01*
X100762351Y-123765361D01*
X100762351Y-123765361D01*
G37*
D11*
X100680000Y-124502500D03*
D10*
G36*
X101262351Y-123765361D02*
X101269632Y-123766441D01*
X101276771Y-123768229D01*
X101283701Y-123770709D01*
X101290355Y-123773856D01*
X101296668Y-123777640D01*
X101302579Y-123782024D01*
X101308033Y-123786967D01*
X101312976Y-123792421D01*
X101317360Y-123798332D01*
X101321144Y-123804645D01*
X101324291Y-123811299D01*
X101326771Y-123818229D01*
X101328559Y-123825368D01*
X101329639Y-123832649D01*
X101330000Y-123840000D01*
X101330000Y-125165000D01*
X101329639Y-125172351D01*
X101328559Y-125179632D01*
X101326771Y-125186771D01*
X101324291Y-125193701D01*
X101321144Y-125200355D01*
X101317360Y-125206668D01*
X101312976Y-125212579D01*
X101308033Y-125218033D01*
X101302579Y-125222976D01*
X101296668Y-125227360D01*
X101290355Y-125231144D01*
X101283701Y-125234291D01*
X101276771Y-125236771D01*
X101269632Y-125238559D01*
X101262351Y-125239639D01*
X101255000Y-125240000D01*
X101105000Y-125240000D01*
X101097649Y-125239639D01*
X101090368Y-125238559D01*
X101083229Y-125236771D01*
X101076299Y-125234291D01*
X101069645Y-125231144D01*
X101063332Y-125227360D01*
X101057421Y-125222976D01*
X101051967Y-125218033D01*
X101047024Y-125212579D01*
X101042640Y-125206668D01*
X101038856Y-125200355D01*
X101035709Y-125193701D01*
X101033229Y-125186771D01*
X101031441Y-125179632D01*
X101030361Y-125172351D01*
X101030000Y-125165000D01*
X101030000Y-123840000D01*
X101030361Y-123832649D01*
X101031441Y-123825368D01*
X101033229Y-123818229D01*
X101035709Y-123811299D01*
X101038856Y-123804645D01*
X101042640Y-123798332D01*
X101047024Y-123792421D01*
X101051967Y-123786967D01*
X101057421Y-123782024D01*
X101063332Y-123777640D01*
X101069645Y-123773856D01*
X101076299Y-123770709D01*
X101083229Y-123768229D01*
X101090368Y-123766441D01*
X101097649Y-123765361D01*
X101105000Y-123765000D01*
X101255000Y-123765000D01*
X101262351Y-123765361D01*
X101262351Y-123765361D01*
G37*
D11*
X101180000Y-124502500D03*
D10*
G36*
X101762351Y-123765361D02*
X101769632Y-123766441D01*
X101776771Y-123768229D01*
X101783701Y-123770709D01*
X101790355Y-123773856D01*
X101796668Y-123777640D01*
X101802579Y-123782024D01*
X101808033Y-123786967D01*
X101812976Y-123792421D01*
X101817360Y-123798332D01*
X101821144Y-123804645D01*
X101824291Y-123811299D01*
X101826771Y-123818229D01*
X101828559Y-123825368D01*
X101829639Y-123832649D01*
X101830000Y-123840000D01*
X101830000Y-125165000D01*
X101829639Y-125172351D01*
X101828559Y-125179632D01*
X101826771Y-125186771D01*
X101824291Y-125193701D01*
X101821144Y-125200355D01*
X101817360Y-125206668D01*
X101812976Y-125212579D01*
X101808033Y-125218033D01*
X101802579Y-125222976D01*
X101796668Y-125227360D01*
X101790355Y-125231144D01*
X101783701Y-125234291D01*
X101776771Y-125236771D01*
X101769632Y-125238559D01*
X101762351Y-125239639D01*
X101755000Y-125240000D01*
X101605000Y-125240000D01*
X101597649Y-125239639D01*
X101590368Y-125238559D01*
X101583229Y-125236771D01*
X101576299Y-125234291D01*
X101569645Y-125231144D01*
X101563332Y-125227360D01*
X101557421Y-125222976D01*
X101551967Y-125218033D01*
X101547024Y-125212579D01*
X101542640Y-125206668D01*
X101538856Y-125200355D01*
X101535709Y-125193701D01*
X101533229Y-125186771D01*
X101531441Y-125179632D01*
X101530361Y-125172351D01*
X101530000Y-125165000D01*
X101530000Y-123840000D01*
X101530361Y-123832649D01*
X101531441Y-123825368D01*
X101533229Y-123818229D01*
X101535709Y-123811299D01*
X101538856Y-123804645D01*
X101542640Y-123798332D01*
X101547024Y-123792421D01*
X101551967Y-123786967D01*
X101557421Y-123782024D01*
X101563332Y-123777640D01*
X101569645Y-123773856D01*
X101576299Y-123770709D01*
X101583229Y-123768229D01*
X101590368Y-123766441D01*
X101597649Y-123765361D01*
X101605000Y-123765000D01*
X101755000Y-123765000D01*
X101762351Y-123765361D01*
X101762351Y-123765361D01*
G37*
D11*
X101680000Y-124502500D03*
D10*
G36*
X102262351Y-123765361D02*
X102269632Y-123766441D01*
X102276771Y-123768229D01*
X102283701Y-123770709D01*
X102290355Y-123773856D01*
X102296668Y-123777640D01*
X102302579Y-123782024D01*
X102308033Y-123786967D01*
X102312976Y-123792421D01*
X102317360Y-123798332D01*
X102321144Y-123804645D01*
X102324291Y-123811299D01*
X102326771Y-123818229D01*
X102328559Y-123825368D01*
X102329639Y-123832649D01*
X102330000Y-123840000D01*
X102330000Y-125165000D01*
X102329639Y-125172351D01*
X102328559Y-125179632D01*
X102326771Y-125186771D01*
X102324291Y-125193701D01*
X102321144Y-125200355D01*
X102317360Y-125206668D01*
X102312976Y-125212579D01*
X102308033Y-125218033D01*
X102302579Y-125222976D01*
X102296668Y-125227360D01*
X102290355Y-125231144D01*
X102283701Y-125234291D01*
X102276771Y-125236771D01*
X102269632Y-125238559D01*
X102262351Y-125239639D01*
X102255000Y-125240000D01*
X102105000Y-125240000D01*
X102097649Y-125239639D01*
X102090368Y-125238559D01*
X102083229Y-125236771D01*
X102076299Y-125234291D01*
X102069645Y-125231144D01*
X102063332Y-125227360D01*
X102057421Y-125222976D01*
X102051967Y-125218033D01*
X102047024Y-125212579D01*
X102042640Y-125206668D01*
X102038856Y-125200355D01*
X102035709Y-125193701D01*
X102033229Y-125186771D01*
X102031441Y-125179632D01*
X102030361Y-125172351D01*
X102030000Y-125165000D01*
X102030000Y-123840000D01*
X102030361Y-123832649D01*
X102031441Y-123825368D01*
X102033229Y-123818229D01*
X102035709Y-123811299D01*
X102038856Y-123804645D01*
X102042640Y-123798332D01*
X102047024Y-123792421D01*
X102051967Y-123786967D01*
X102057421Y-123782024D01*
X102063332Y-123777640D01*
X102069645Y-123773856D01*
X102076299Y-123770709D01*
X102083229Y-123768229D01*
X102090368Y-123766441D01*
X102097649Y-123765361D01*
X102105000Y-123765000D01*
X102255000Y-123765000D01*
X102262351Y-123765361D01*
X102262351Y-123765361D01*
G37*
D11*
X102180000Y-124502500D03*
D10*
G36*
X102762351Y-123765361D02*
X102769632Y-123766441D01*
X102776771Y-123768229D01*
X102783701Y-123770709D01*
X102790355Y-123773856D01*
X102796668Y-123777640D01*
X102802579Y-123782024D01*
X102808033Y-123786967D01*
X102812976Y-123792421D01*
X102817360Y-123798332D01*
X102821144Y-123804645D01*
X102824291Y-123811299D01*
X102826771Y-123818229D01*
X102828559Y-123825368D01*
X102829639Y-123832649D01*
X102830000Y-123840000D01*
X102830000Y-125165000D01*
X102829639Y-125172351D01*
X102828559Y-125179632D01*
X102826771Y-125186771D01*
X102824291Y-125193701D01*
X102821144Y-125200355D01*
X102817360Y-125206668D01*
X102812976Y-125212579D01*
X102808033Y-125218033D01*
X102802579Y-125222976D01*
X102796668Y-125227360D01*
X102790355Y-125231144D01*
X102783701Y-125234291D01*
X102776771Y-125236771D01*
X102769632Y-125238559D01*
X102762351Y-125239639D01*
X102755000Y-125240000D01*
X102605000Y-125240000D01*
X102597649Y-125239639D01*
X102590368Y-125238559D01*
X102583229Y-125236771D01*
X102576299Y-125234291D01*
X102569645Y-125231144D01*
X102563332Y-125227360D01*
X102557421Y-125222976D01*
X102551967Y-125218033D01*
X102547024Y-125212579D01*
X102542640Y-125206668D01*
X102538856Y-125200355D01*
X102535709Y-125193701D01*
X102533229Y-125186771D01*
X102531441Y-125179632D01*
X102530361Y-125172351D01*
X102530000Y-125165000D01*
X102530000Y-123840000D01*
X102530361Y-123832649D01*
X102531441Y-123825368D01*
X102533229Y-123818229D01*
X102535709Y-123811299D01*
X102538856Y-123804645D01*
X102542640Y-123798332D01*
X102547024Y-123792421D01*
X102551967Y-123786967D01*
X102557421Y-123782024D01*
X102563332Y-123777640D01*
X102569645Y-123773856D01*
X102576299Y-123770709D01*
X102583229Y-123768229D01*
X102590368Y-123766441D01*
X102597649Y-123765361D01*
X102605000Y-123765000D01*
X102755000Y-123765000D01*
X102762351Y-123765361D01*
X102762351Y-123765361D01*
G37*
D11*
X102680000Y-124502500D03*
D10*
G36*
X103262351Y-123765361D02*
X103269632Y-123766441D01*
X103276771Y-123768229D01*
X103283701Y-123770709D01*
X103290355Y-123773856D01*
X103296668Y-123777640D01*
X103302579Y-123782024D01*
X103308033Y-123786967D01*
X103312976Y-123792421D01*
X103317360Y-123798332D01*
X103321144Y-123804645D01*
X103324291Y-123811299D01*
X103326771Y-123818229D01*
X103328559Y-123825368D01*
X103329639Y-123832649D01*
X103330000Y-123840000D01*
X103330000Y-125165000D01*
X103329639Y-125172351D01*
X103328559Y-125179632D01*
X103326771Y-125186771D01*
X103324291Y-125193701D01*
X103321144Y-125200355D01*
X103317360Y-125206668D01*
X103312976Y-125212579D01*
X103308033Y-125218033D01*
X103302579Y-125222976D01*
X103296668Y-125227360D01*
X103290355Y-125231144D01*
X103283701Y-125234291D01*
X103276771Y-125236771D01*
X103269632Y-125238559D01*
X103262351Y-125239639D01*
X103255000Y-125240000D01*
X103105000Y-125240000D01*
X103097649Y-125239639D01*
X103090368Y-125238559D01*
X103083229Y-125236771D01*
X103076299Y-125234291D01*
X103069645Y-125231144D01*
X103063332Y-125227360D01*
X103057421Y-125222976D01*
X103051967Y-125218033D01*
X103047024Y-125212579D01*
X103042640Y-125206668D01*
X103038856Y-125200355D01*
X103035709Y-125193701D01*
X103033229Y-125186771D01*
X103031441Y-125179632D01*
X103030361Y-125172351D01*
X103030000Y-125165000D01*
X103030000Y-123840000D01*
X103030361Y-123832649D01*
X103031441Y-123825368D01*
X103033229Y-123818229D01*
X103035709Y-123811299D01*
X103038856Y-123804645D01*
X103042640Y-123798332D01*
X103047024Y-123792421D01*
X103051967Y-123786967D01*
X103057421Y-123782024D01*
X103063332Y-123777640D01*
X103069645Y-123773856D01*
X103076299Y-123770709D01*
X103083229Y-123768229D01*
X103090368Y-123766441D01*
X103097649Y-123765361D01*
X103105000Y-123765000D01*
X103255000Y-123765000D01*
X103262351Y-123765361D01*
X103262351Y-123765361D01*
G37*
D11*
X103180000Y-124502500D03*
D10*
G36*
X103762351Y-123765361D02*
X103769632Y-123766441D01*
X103776771Y-123768229D01*
X103783701Y-123770709D01*
X103790355Y-123773856D01*
X103796668Y-123777640D01*
X103802579Y-123782024D01*
X103808033Y-123786967D01*
X103812976Y-123792421D01*
X103817360Y-123798332D01*
X103821144Y-123804645D01*
X103824291Y-123811299D01*
X103826771Y-123818229D01*
X103828559Y-123825368D01*
X103829639Y-123832649D01*
X103830000Y-123840000D01*
X103830000Y-125165000D01*
X103829639Y-125172351D01*
X103828559Y-125179632D01*
X103826771Y-125186771D01*
X103824291Y-125193701D01*
X103821144Y-125200355D01*
X103817360Y-125206668D01*
X103812976Y-125212579D01*
X103808033Y-125218033D01*
X103802579Y-125222976D01*
X103796668Y-125227360D01*
X103790355Y-125231144D01*
X103783701Y-125234291D01*
X103776771Y-125236771D01*
X103769632Y-125238559D01*
X103762351Y-125239639D01*
X103755000Y-125240000D01*
X103605000Y-125240000D01*
X103597649Y-125239639D01*
X103590368Y-125238559D01*
X103583229Y-125236771D01*
X103576299Y-125234291D01*
X103569645Y-125231144D01*
X103563332Y-125227360D01*
X103557421Y-125222976D01*
X103551967Y-125218033D01*
X103547024Y-125212579D01*
X103542640Y-125206668D01*
X103538856Y-125200355D01*
X103535709Y-125193701D01*
X103533229Y-125186771D01*
X103531441Y-125179632D01*
X103530361Y-125172351D01*
X103530000Y-125165000D01*
X103530000Y-123840000D01*
X103530361Y-123832649D01*
X103531441Y-123825368D01*
X103533229Y-123818229D01*
X103535709Y-123811299D01*
X103538856Y-123804645D01*
X103542640Y-123798332D01*
X103547024Y-123792421D01*
X103551967Y-123786967D01*
X103557421Y-123782024D01*
X103563332Y-123777640D01*
X103569645Y-123773856D01*
X103576299Y-123770709D01*
X103583229Y-123768229D01*
X103590368Y-123766441D01*
X103597649Y-123765361D01*
X103605000Y-123765000D01*
X103755000Y-123765000D01*
X103762351Y-123765361D01*
X103762351Y-123765361D01*
G37*
D11*
X103680000Y-124502500D03*
D10*
G36*
X104262351Y-123765361D02*
X104269632Y-123766441D01*
X104276771Y-123768229D01*
X104283701Y-123770709D01*
X104290355Y-123773856D01*
X104296668Y-123777640D01*
X104302579Y-123782024D01*
X104308033Y-123786967D01*
X104312976Y-123792421D01*
X104317360Y-123798332D01*
X104321144Y-123804645D01*
X104324291Y-123811299D01*
X104326771Y-123818229D01*
X104328559Y-123825368D01*
X104329639Y-123832649D01*
X104330000Y-123840000D01*
X104330000Y-125165000D01*
X104329639Y-125172351D01*
X104328559Y-125179632D01*
X104326771Y-125186771D01*
X104324291Y-125193701D01*
X104321144Y-125200355D01*
X104317360Y-125206668D01*
X104312976Y-125212579D01*
X104308033Y-125218033D01*
X104302579Y-125222976D01*
X104296668Y-125227360D01*
X104290355Y-125231144D01*
X104283701Y-125234291D01*
X104276771Y-125236771D01*
X104269632Y-125238559D01*
X104262351Y-125239639D01*
X104255000Y-125240000D01*
X104105000Y-125240000D01*
X104097649Y-125239639D01*
X104090368Y-125238559D01*
X104083229Y-125236771D01*
X104076299Y-125234291D01*
X104069645Y-125231144D01*
X104063332Y-125227360D01*
X104057421Y-125222976D01*
X104051967Y-125218033D01*
X104047024Y-125212579D01*
X104042640Y-125206668D01*
X104038856Y-125200355D01*
X104035709Y-125193701D01*
X104033229Y-125186771D01*
X104031441Y-125179632D01*
X104030361Y-125172351D01*
X104030000Y-125165000D01*
X104030000Y-123840000D01*
X104030361Y-123832649D01*
X104031441Y-123825368D01*
X104033229Y-123818229D01*
X104035709Y-123811299D01*
X104038856Y-123804645D01*
X104042640Y-123798332D01*
X104047024Y-123792421D01*
X104051967Y-123786967D01*
X104057421Y-123782024D01*
X104063332Y-123777640D01*
X104069645Y-123773856D01*
X104076299Y-123770709D01*
X104083229Y-123768229D01*
X104090368Y-123766441D01*
X104097649Y-123765361D01*
X104105000Y-123765000D01*
X104255000Y-123765000D01*
X104262351Y-123765361D01*
X104262351Y-123765361D01*
G37*
D11*
X104180000Y-124502500D03*
D10*
G36*
X104762351Y-123765361D02*
X104769632Y-123766441D01*
X104776771Y-123768229D01*
X104783701Y-123770709D01*
X104790355Y-123773856D01*
X104796668Y-123777640D01*
X104802579Y-123782024D01*
X104808033Y-123786967D01*
X104812976Y-123792421D01*
X104817360Y-123798332D01*
X104821144Y-123804645D01*
X104824291Y-123811299D01*
X104826771Y-123818229D01*
X104828559Y-123825368D01*
X104829639Y-123832649D01*
X104830000Y-123840000D01*
X104830000Y-125165000D01*
X104829639Y-125172351D01*
X104828559Y-125179632D01*
X104826771Y-125186771D01*
X104824291Y-125193701D01*
X104821144Y-125200355D01*
X104817360Y-125206668D01*
X104812976Y-125212579D01*
X104808033Y-125218033D01*
X104802579Y-125222976D01*
X104796668Y-125227360D01*
X104790355Y-125231144D01*
X104783701Y-125234291D01*
X104776771Y-125236771D01*
X104769632Y-125238559D01*
X104762351Y-125239639D01*
X104755000Y-125240000D01*
X104605000Y-125240000D01*
X104597649Y-125239639D01*
X104590368Y-125238559D01*
X104583229Y-125236771D01*
X104576299Y-125234291D01*
X104569645Y-125231144D01*
X104563332Y-125227360D01*
X104557421Y-125222976D01*
X104551967Y-125218033D01*
X104547024Y-125212579D01*
X104542640Y-125206668D01*
X104538856Y-125200355D01*
X104535709Y-125193701D01*
X104533229Y-125186771D01*
X104531441Y-125179632D01*
X104530361Y-125172351D01*
X104530000Y-125165000D01*
X104530000Y-123840000D01*
X104530361Y-123832649D01*
X104531441Y-123825368D01*
X104533229Y-123818229D01*
X104535709Y-123811299D01*
X104538856Y-123804645D01*
X104542640Y-123798332D01*
X104547024Y-123792421D01*
X104551967Y-123786967D01*
X104557421Y-123782024D01*
X104563332Y-123777640D01*
X104569645Y-123773856D01*
X104576299Y-123770709D01*
X104583229Y-123768229D01*
X104590368Y-123766441D01*
X104597649Y-123765361D01*
X104605000Y-123765000D01*
X104755000Y-123765000D01*
X104762351Y-123765361D01*
X104762351Y-123765361D01*
G37*
D11*
X104680000Y-124502500D03*
D10*
G36*
X105262351Y-123765361D02*
X105269632Y-123766441D01*
X105276771Y-123768229D01*
X105283701Y-123770709D01*
X105290355Y-123773856D01*
X105296668Y-123777640D01*
X105302579Y-123782024D01*
X105308033Y-123786967D01*
X105312976Y-123792421D01*
X105317360Y-123798332D01*
X105321144Y-123804645D01*
X105324291Y-123811299D01*
X105326771Y-123818229D01*
X105328559Y-123825368D01*
X105329639Y-123832649D01*
X105330000Y-123840000D01*
X105330000Y-125165000D01*
X105329639Y-125172351D01*
X105328559Y-125179632D01*
X105326771Y-125186771D01*
X105324291Y-125193701D01*
X105321144Y-125200355D01*
X105317360Y-125206668D01*
X105312976Y-125212579D01*
X105308033Y-125218033D01*
X105302579Y-125222976D01*
X105296668Y-125227360D01*
X105290355Y-125231144D01*
X105283701Y-125234291D01*
X105276771Y-125236771D01*
X105269632Y-125238559D01*
X105262351Y-125239639D01*
X105255000Y-125240000D01*
X105105000Y-125240000D01*
X105097649Y-125239639D01*
X105090368Y-125238559D01*
X105083229Y-125236771D01*
X105076299Y-125234291D01*
X105069645Y-125231144D01*
X105063332Y-125227360D01*
X105057421Y-125222976D01*
X105051967Y-125218033D01*
X105047024Y-125212579D01*
X105042640Y-125206668D01*
X105038856Y-125200355D01*
X105035709Y-125193701D01*
X105033229Y-125186771D01*
X105031441Y-125179632D01*
X105030361Y-125172351D01*
X105030000Y-125165000D01*
X105030000Y-123840000D01*
X105030361Y-123832649D01*
X105031441Y-123825368D01*
X105033229Y-123818229D01*
X105035709Y-123811299D01*
X105038856Y-123804645D01*
X105042640Y-123798332D01*
X105047024Y-123792421D01*
X105051967Y-123786967D01*
X105057421Y-123782024D01*
X105063332Y-123777640D01*
X105069645Y-123773856D01*
X105076299Y-123770709D01*
X105083229Y-123768229D01*
X105090368Y-123766441D01*
X105097649Y-123765361D01*
X105105000Y-123765000D01*
X105255000Y-123765000D01*
X105262351Y-123765361D01*
X105262351Y-123765361D01*
G37*
D11*
X105180000Y-124502500D03*
D10*
G36*
X105762351Y-123765361D02*
X105769632Y-123766441D01*
X105776771Y-123768229D01*
X105783701Y-123770709D01*
X105790355Y-123773856D01*
X105796668Y-123777640D01*
X105802579Y-123782024D01*
X105808033Y-123786967D01*
X105812976Y-123792421D01*
X105817360Y-123798332D01*
X105821144Y-123804645D01*
X105824291Y-123811299D01*
X105826771Y-123818229D01*
X105828559Y-123825368D01*
X105829639Y-123832649D01*
X105830000Y-123840000D01*
X105830000Y-125165000D01*
X105829639Y-125172351D01*
X105828559Y-125179632D01*
X105826771Y-125186771D01*
X105824291Y-125193701D01*
X105821144Y-125200355D01*
X105817360Y-125206668D01*
X105812976Y-125212579D01*
X105808033Y-125218033D01*
X105802579Y-125222976D01*
X105796668Y-125227360D01*
X105790355Y-125231144D01*
X105783701Y-125234291D01*
X105776771Y-125236771D01*
X105769632Y-125238559D01*
X105762351Y-125239639D01*
X105755000Y-125240000D01*
X105605000Y-125240000D01*
X105597649Y-125239639D01*
X105590368Y-125238559D01*
X105583229Y-125236771D01*
X105576299Y-125234291D01*
X105569645Y-125231144D01*
X105563332Y-125227360D01*
X105557421Y-125222976D01*
X105551967Y-125218033D01*
X105547024Y-125212579D01*
X105542640Y-125206668D01*
X105538856Y-125200355D01*
X105535709Y-125193701D01*
X105533229Y-125186771D01*
X105531441Y-125179632D01*
X105530361Y-125172351D01*
X105530000Y-125165000D01*
X105530000Y-123840000D01*
X105530361Y-123832649D01*
X105531441Y-123825368D01*
X105533229Y-123818229D01*
X105535709Y-123811299D01*
X105538856Y-123804645D01*
X105542640Y-123798332D01*
X105547024Y-123792421D01*
X105551967Y-123786967D01*
X105557421Y-123782024D01*
X105563332Y-123777640D01*
X105569645Y-123773856D01*
X105576299Y-123770709D01*
X105583229Y-123768229D01*
X105590368Y-123766441D01*
X105597649Y-123765361D01*
X105605000Y-123765000D01*
X105755000Y-123765000D01*
X105762351Y-123765361D01*
X105762351Y-123765361D01*
G37*
D11*
X105680000Y-124502500D03*
D10*
G36*
X106262351Y-123765361D02*
X106269632Y-123766441D01*
X106276771Y-123768229D01*
X106283701Y-123770709D01*
X106290355Y-123773856D01*
X106296668Y-123777640D01*
X106302579Y-123782024D01*
X106308033Y-123786967D01*
X106312976Y-123792421D01*
X106317360Y-123798332D01*
X106321144Y-123804645D01*
X106324291Y-123811299D01*
X106326771Y-123818229D01*
X106328559Y-123825368D01*
X106329639Y-123832649D01*
X106330000Y-123840000D01*
X106330000Y-125165000D01*
X106329639Y-125172351D01*
X106328559Y-125179632D01*
X106326771Y-125186771D01*
X106324291Y-125193701D01*
X106321144Y-125200355D01*
X106317360Y-125206668D01*
X106312976Y-125212579D01*
X106308033Y-125218033D01*
X106302579Y-125222976D01*
X106296668Y-125227360D01*
X106290355Y-125231144D01*
X106283701Y-125234291D01*
X106276771Y-125236771D01*
X106269632Y-125238559D01*
X106262351Y-125239639D01*
X106255000Y-125240000D01*
X106105000Y-125240000D01*
X106097649Y-125239639D01*
X106090368Y-125238559D01*
X106083229Y-125236771D01*
X106076299Y-125234291D01*
X106069645Y-125231144D01*
X106063332Y-125227360D01*
X106057421Y-125222976D01*
X106051967Y-125218033D01*
X106047024Y-125212579D01*
X106042640Y-125206668D01*
X106038856Y-125200355D01*
X106035709Y-125193701D01*
X106033229Y-125186771D01*
X106031441Y-125179632D01*
X106030361Y-125172351D01*
X106030000Y-125165000D01*
X106030000Y-123840000D01*
X106030361Y-123832649D01*
X106031441Y-123825368D01*
X106033229Y-123818229D01*
X106035709Y-123811299D01*
X106038856Y-123804645D01*
X106042640Y-123798332D01*
X106047024Y-123792421D01*
X106051967Y-123786967D01*
X106057421Y-123782024D01*
X106063332Y-123777640D01*
X106069645Y-123773856D01*
X106076299Y-123770709D01*
X106083229Y-123768229D01*
X106090368Y-123766441D01*
X106097649Y-123765361D01*
X106105000Y-123765000D01*
X106255000Y-123765000D01*
X106262351Y-123765361D01*
X106262351Y-123765361D01*
G37*
D11*
X106180000Y-124502500D03*
D10*
G36*
X106762351Y-123765361D02*
X106769632Y-123766441D01*
X106776771Y-123768229D01*
X106783701Y-123770709D01*
X106790355Y-123773856D01*
X106796668Y-123777640D01*
X106802579Y-123782024D01*
X106808033Y-123786967D01*
X106812976Y-123792421D01*
X106817360Y-123798332D01*
X106821144Y-123804645D01*
X106824291Y-123811299D01*
X106826771Y-123818229D01*
X106828559Y-123825368D01*
X106829639Y-123832649D01*
X106830000Y-123840000D01*
X106830000Y-125165000D01*
X106829639Y-125172351D01*
X106828559Y-125179632D01*
X106826771Y-125186771D01*
X106824291Y-125193701D01*
X106821144Y-125200355D01*
X106817360Y-125206668D01*
X106812976Y-125212579D01*
X106808033Y-125218033D01*
X106802579Y-125222976D01*
X106796668Y-125227360D01*
X106790355Y-125231144D01*
X106783701Y-125234291D01*
X106776771Y-125236771D01*
X106769632Y-125238559D01*
X106762351Y-125239639D01*
X106755000Y-125240000D01*
X106605000Y-125240000D01*
X106597649Y-125239639D01*
X106590368Y-125238559D01*
X106583229Y-125236771D01*
X106576299Y-125234291D01*
X106569645Y-125231144D01*
X106563332Y-125227360D01*
X106557421Y-125222976D01*
X106551967Y-125218033D01*
X106547024Y-125212579D01*
X106542640Y-125206668D01*
X106538856Y-125200355D01*
X106535709Y-125193701D01*
X106533229Y-125186771D01*
X106531441Y-125179632D01*
X106530361Y-125172351D01*
X106530000Y-125165000D01*
X106530000Y-123840000D01*
X106530361Y-123832649D01*
X106531441Y-123825368D01*
X106533229Y-123818229D01*
X106535709Y-123811299D01*
X106538856Y-123804645D01*
X106542640Y-123798332D01*
X106547024Y-123792421D01*
X106551967Y-123786967D01*
X106557421Y-123782024D01*
X106563332Y-123777640D01*
X106569645Y-123773856D01*
X106576299Y-123770709D01*
X106583229Y-123768229D01*
X106590368Y-123766441D01*
X106597649Y-123765361D01*
X106605000Y-123765000D01*
X106755000Y-123765000D01*
X106762351Y-123765361D01*
X106762351Y-123765361D01*
G37*
D11*
X106680000Y-124502500D03*
D10*
G36*
X107262351Y-123765361D02*
X107269632Y-123766441D01*
X107276771Y-123768229D01*
X107283701Y-123770709D01*
X107290355Y-123773856D01*
X107296668Y-123777640D01*
X107302579Y-123782024D01*
X107308033Y-123786967D01*
X107312976Y-123792421D01*
X107317360Y-123798332D01*
X107321144Y-123804645D01*
X107324291Y-123811299D01*
X107326771Y-123818229D01*
X107328559Y-123825368D01*
X107329639Y-123832649D01*
X107330000Y-123840000D01*
X107330000Y-125165000D01*
X107329639Y-125172351D01*
X107328559Y-125179632D01*
X107326771Y-125186771D01*
X107324291Y-125193701D01*
X107321144Y-125200355D01*
X107317360Y-125206668D01*
X107312976Y-125212579D01*
X107308033Y-125218033D01*
X107302579Y-125222976D01*
X107296668Y-125227360D01*
X107290355Y-125231144D01*
X107283701Y-125234291D01*
X107276771Y-125236771D01*
X107269632Y-125238559D01*
X107262351Y-125239639D01*
X107255000Y-125240000D01*
X107105000Y-125240000D01*
X107097649Y-125239639D01*
X107090368Y-125238559D01*
X107083229Y-125236771D01*
X107076299Y-125234291D01*
X107069645Y-125231144D01*
X107063332Y-125227360D01*
X107057421Y-125222976D01*
X107051967Y-125218033D01*
X107047024Y-125212579D01*
X107042640Y-125206668D01*
X107038856Y-125200355D01*
X107035709Y-125193701D01*
X107033229Y-125186771D01*
X107031441Y-125179632D01*
X107030361Y-125172351D01*
X107030000Y-125165000D01*
X107030000Y-123840000D01*
X107030361Y-123832649D01*
X107031441Y-123825368D01*
X107033229Y-123818229D01*
X107035709Y-123811299D01*
X107038856Y-123804645D01*
X107042640Y-123798332D01*
X107047024Y-123792421D01*
X107051967Y-123786967D01*
X107057421Y-123782024D01*
X107063332Y-123777640D01*
X107069645Y-123773856D01*
X107076299Y-123770709D01*
X107083229Y-123768229D01*
X107090368Y-123766441D01*
X107097649Y-123765361D01*
X107105000Y-123765000D01*
X107255000Y-123765000D01*
X107262351Y-123765361D01*
X107262351Y-123765361D01*
G37*
D11*
X107180000Y-124502500D03*
D10*
G36*
X107762351Y-123765361D02*
X107769632Y-123766441D01*
X107776771Y-123768229D01*
X107783701Y-123770709D01*
X107790355Y-123773856D01*
X107796668Y-123777640D01*
X107802579Y-123782024D01*
X107808033Y-123786967D01*
X107812976Y-123792421D01*
X107817360Y-123798332D01*
X107821144Y-123804645D01*
X107824291Y-123811299D01*
X107826771Y-123818229D01*
X107828559Y-123825368D01*
X107829639Y-123832649D01*
X107830000Y-123840000D01*
X107830000Y-125165000D01*
X107829639Y-125172351D01*
X107828559Y-125179632D01*
X107826771Y-125186771D01*
X107824291Y-125193701D01*
X107821144Y-125200355D01*
X107817360Y-125206668D01*
X107812976Y-125212579D01*
X107808033Y-125218033D01*
X107802579Y-125222976D01*
X107796668Y-125227360D01*
X107790355Y-125231144D01*
X107783701Y-125234291D01*
X107776771Y-125236771D01*
X107769632Y-125238559D01*
X107762351Y-125239639D01*
X107755000Y-125240000D01*
X107605000Y-125240000D01*
X107597649Y-125239639D01*
X107590368Y-125238559D01*
X107583229Y-125236771D01*
X107576299Y-125234291D01*
X107569645Y-125231144D01*
X107563332Y-125227360D01*
X107557421Y-125222976D01*
X107551967Y-125218033D01*
X107547024Y-125212579D01*
X107542640Y-125206668D01*
X107538856Y-125200355D01*
X107535709Y-125193701D01*
X107533229Y-125186771D01*
X107531441Y-125179632D01*
X107530361Y-125172351D01*
X107530000Y-125165000D01*
X107530000Y-123840000D01*
X107530361Y-123832649D01*
X107531441Y-123825368D01*
X107533229Y-123818229D01*
X107535709Y-123811299D01*
X107538856Y-123804645D01*
X107542640Y-123798332D01*
X107547024Y-123792421D01*
X107551967Y-123786967D01*
X107557421Y-123782024D01*
X107563332Y-123777640D01*
X107569645Y-123773856D01*
X107576299Y-123770709D01*
X107583229Y-123768229D01*
X107590368Y-123766441D01*
X107597649Y-123765361D01*
X107605000Y-123765000D01*
X107755000Y-123765000D01*
X107762351Y-123765361D01*
X107762351Y-123765361D01*
G37*
D11*
X107680000Y-124502500D03*
D10*
G36*
X108262351Y-123765361D02*
X108269632Y-123766441D01*
X108276771Y-123768229D01*
X108283701Y-123770709D01*
X108290355Y-123773856D01*
X108296668Y-123777640D01*
X108302579Y-123782024D01*
X108308033Y-123786967D01*
X108312976Y-123792421D01*
X108317360Y-123798332D01*
X108321144Y-123804645D01*
X108324291Y-123811299D01*
X108326771Y-123818229D01*
X108328559Y-123825368D01*
X108329639Y-123832649D01*
X108330000Y-123840000D01*
X108330000Y-125165000D01*
X108329639Y-125172351D01*
X108328559Y-125179632D01*
X108326771Y-125186771D01*
X108324291Y-125193701D01*
X108321144Y-125200355D01*
X108317360Y-125206668D01*
X108312976Y-125212579D01*
X108308033Y-125218033D01*
X108302579Y-125222976D01*
X108296668Y-125227360D01*
X108290355Y-125231144D01*
X108283701Y-125234291D01*
X108276771Y-125236771D01*
X108269632Y-125238559D01*
X108262351Y-125239639D01*
X108255000Y-125240000D01*
X108105000Y-125240000D01*
X108097649Y-125239639D01*
X108090368Y-125238559D01*
X108083229Y-125236771D01*
X108076299Y-125234291D01*
X108069645Y-125231144D01*
X108063332Y-125227360D01*
X108057421Y-125222976D01*
X108051967Y-125218033D01*
X108047024Y-125212579D01*
X108042640Y-125206668D01*
X108038856Y-125200355D01*
X108035709Y-125193701D01*
X108033229Y-125186771D01*
X108031441Y-125179632D01*
X108030361Y-125172351D01*
X108030000Y-125165000D01*
X108030000Y-123840000D01*
X108030361Y-123832649D01*
X108031441Y-123825368D01*
X108033229Y-123818229D01*
X108035709Y-123811299D01*
X108038856Y-123804645D01*
X108042640Y-123798332D01*
X108047024Y-123792421D01*
X108051967Y-123786967D01*
X108057421Y-123782024D01*
X108063332Y-123777640D01*
X108069645Y-123773856D01*
X108076299Y-123770709D01*
X108083229Y-123768229D01*
X108090368Y-123766441D01*
X108097649Y-123765361D01*
X108105000Y-123765000D01*
X108255000Y-123765000D01*
X108262351Y-123765361D01*
X108262351Y-123765361D01*
G37*
D11*
X108180000Y-124502500D03*
D10*
G36*
X108762351Y-123765361D02*
X108769632Y-123766441D01*
X108776771Y-123768229D01*
X108783701Y-123770709D01*
X108790355Y-123773856D01*
X108796668Y-123777640D01*
X108802579Y-123782024D01*
X108808033Y-123786967D01*
X108812976Y-123792421D01*
X108817360Y-123798332D01*
X108821144Y-123804645D01*
X108824291Y-123811299D01*
X108826771Y-123818229D01*
X108828559Y-123825368D01*
X108829639Y-123832649D01*
X108830000Y-123840000D01*
X108830000Y-125165000D01*
X108829639Y-125172351D01*
X108828559Y-125179632D01*
X108826771Y-125186771D01*
X108824291Y-125193701D01*
X108821144Y-125200355D01*
X108817360Y-125206668D01*
X108812976Y-125212579D01*
X108808033Y-125218033D01*
X108802579Y-125222976D01*
X108796668Y-125227360D01*
X108790355Y-125231144D01*
X108783701Y-125234291D01*
X108776771Y-125236771D01*
X108769632Y-125238559D01*
X108762351Y-125239639D01*
X108755000Y-125240000D01*
X108605000Y-125240000D01*
X108597649Y-125239639D01*
X108590368Y-125238559D01*
X108583229Y-125236771D01*
X108576299Y-125234291D01*
X108569645Y-125231144D01*
X108563332Y-125227360D01*
X108557421Y-125222976D01*
X108551967Y-125218033D01*
X108547024Y-125212579D01*
X108542640Y-125206668D01*
X108538856Y-125200355D01*
X108535709Y-125193701D01*
X108533229Y-125186771D01*
X108531441Y-125179632D01*
X108530361Y-125172351D01*
X108530000Y-125165000D01*
X108530000Y-123840000D01*
X108530361Y-123832649D01*
X108531441Y-123825368D01*
X108533229Y-123818229D01*
X108535709Y-123811299D01*
X108538856Y-123804645D01*
X108542640Y-123798332D01*
X108547024Y-123792421D01*
X108551967Y-123786967D01*
X108557421Y-123782024D01*
X108563332Y-123777640D01*
X108569645Y-123773856D01*
X108576299Y-123770709D01*
X108583229Y-123768229D01*
X108590368Y-123766441D01*
X108597649Y-123765361D01*
X108605000Y-123765000D01*
X108755000Y-123765000D01*
X108762351Y-123765361D01*
X108762351Y-123765361D01*
G37*
D11*
X108680000Y-124502500D03*
D10*
G36*
X109262351Y-123765361D02*
X109269632Y-123766441D01*
X109276771Y-123768229D01*
X109283701Y-123770709D01*
X109290355Y-123773856D01*
X109296668Y-123777640D01*
X109302579Y-123782024D01*
X109308033Y-123786967D01*
X109312976Y-123792421D01*
X109317360Y-123798332D01*
X109321144Y-123804645D01*
X109324291Y-123811299D01*
X109326771Y-123818229D01*
X109328559Y-123825368D01*
X109329639Y-123832649D01*
X109330000Y-123840000D01*
X109330000Y-125165000D01*
X109329639Y-125172351D01*
X109328559Y-125179632D01*
X109326771Y-125186771D01*
X109324291Y-125193701D01*
X109321144Y-125200355D01*
X109317360Y-125206668D01*
X109312976Y-125212579D01*
X109308033Y-125218033D01*
X109302579Y-125222976D01*
X109296668Y-125227360D01*
X109290355Y-125231144D01*
X109283701Y-125234291D01*
X109276771Y-125236771D01*
X109269632Y-125238559D01*
X109262351Y-125239639D01*
X109255000Y-125240000D01*
X109105000Y-125240000D01*
X109097649Y-125239639D01*
X109090368Y-125238559D01*
X109083229Y-125236771D01*
X109076299Y-125234291D01*
X109069645Y-125231144D01*
X109063332Y-125227360D01*
X109057421Y-125222976D01*
X109051967Y-125218033D01*
X109047024Y-125212579D01*
X109042640Y-125206668D01*
X109038856Y-125200355D01*
X109035709Y-125193701D01*
X109033229Y-125186771D01*
X109031441Y-125179632D01*
X109030361Y-125172351D01*
X109030000Y-125165000D01*
X109030000Y-123840000D01*
X109030361Y-123832649D01*
X109031441Y-123825368D01*
X109033229Y-123818229D01*
X109035709Y-123811299D01*
X109038856Y-123804645D01*
X109042640Y-123798332D01*
X109047024Y-123792421D01*
X109051967Y-123786967D01*
X109057421Y-123782024D01*
X109063332Y-123777640D01*
X109069645Y-123773856D01*
X109076299Y-123770709D01*
X109083229Y-123768229D01*
X109090368Y-123766441D01*
X109097649Y-123765361D01*
X109105000Y-123765000D01*
X109255000Y-123765000D01*
X109262351Y-123765361D01*
X109262351Y-123765361D01*
G37*
D11*
X109180000Y-124502500D03*
D10*
G36*
X109762351Y-123765361D02*
X109769632Y-123766441D01*
X109776771Y-123768229D01*
X109783701Y-123770709D01*
X109790355Y-123773856D01*
X109796668Y-123777640D01*
X109802579Y-123782024D01*
X109808033Y-123786967D01*
X109812976Y-123792421D01*
X109817360Y-123798332D01*
X109821144Y-123804645D01*
X109824291Y-123811299D01*
X109826771Y-123818229D01*
X109828559Y-123825368D01*
X109829639Y-123832649D01*
X109830000Y-123840000D01*
X109830000Y-125165000D01*
X109829639Y-125172351D01*
X109828559Y-125179632D01*
X109826771Y-125186771D01*
X109824291Y-125193701D01*
X109821144Y-125200355D01*
X109817360Y-125206668D01*
X109812976Y-125212579D01*
X109808033Y-125218033D01*
X109802579Y-125222976D01*
X109796668Y-125227360D01*
X109790355Y-125231144D01*
X109783701Y-125234291D01*
X109776771Y-125236771D01*
X109769632Y-125238559D01*
X109762351Y-125239639D01*
X109755000Y-125240000D01*
X109605000Y-125240000D01*
X109597649Y-125239639D01*
X109590368Y-125238559D01*
X109583229Y-125236771D01*
X109576299Y-125234291D01*
X109569645Y-125231144D01*
X109563332Y-125227360D01*
X109557421Y-125222976D01*
X109551967Y-125218033D01*
X109547024Y-125212579D01*
X109542640Y-125206668D01*
X109538856Y-125200355D01*
X109535709Y-125193701D01*
X109533229Y-125186771D01*
X109531441Y-125179632D01*
X109530361Y-125172351D01*
X109530000Y-125165000D01*
X109530000Y-123840000D01*
X109530361Y-123832649D01*
X109531441Y-123825368D01*
X109533229Y-123818229D01*
X109535709Y-123811299D01*
X109538856Y-123804645D01*
X109542640Y-123798332D01*
X109547024Y-123792421D01*
X109551967Y-123786967D01*
X109557421Y-123782024D01*
X109563332Y-123777640D01*
X109569645Y-123773856D01*
X109576299Y-123770709D01*
X109583229Y-123768229D01*
X109590368Y-123766441D01*
X109597649Y-123765361D01*
X109605000Y-123765000D01*
X109755000Y-123765000D01*
X109762351Y-123765361D01*
X109762351Y-123765361D01*
G37*
D11*
X109680000Y-124502500D03*
D10*
G36*
X110262351Y-123765361D02*
X110269632Y-123766441D01*
X110276771Y-123768229D01*
X110283701Y-123770709D01*
X110290355Y-123773856D01*
X110296668Y-123777640D01*
X110302579Y-123782024D01*
X110308033Y-123786967D01*
X110312976Y-123792421D01*
X110317360Y-123798332D01*
X110321144Y-123804645D01*
X110324291Y-123811299D01*
X110326771Y-123818229D01*
X110328559Y-123825368D01*
X110329639Y-123832649D01*
X110330000Y-123840000D01*
X110330000Y-125165000D01*
X110329639Y-125172351D01*
X110328559Y-125179632D01*
X110326771Y-125186771D01*
X110324291Y-125193701D01*
X110321144Y-125200355D01*
X110317360Y-125206668D01*
X110312976Y-125212579D01*
X110308033Y-125218033D01*
X110302579Y-125222976D01*
X110296668Y-125227360D01*
X110290355Y-125231144D01*
X110283701Y-125234291D01*
X110276771Y-125236771D01*
X110269632Y-125238559D01*
X110262351Y-125239639D01*
X110255000Y-125240000D01*
X110105000Y-125240000D01*
X110097649Y-125239639D01*
X110090368Y-125238559D01*
X110083229Y-125236771D01*
X110076299Y-125234291D01*
X110069645Y-125231144D01*
X110063332Y-125227360D01*
X110057421Y-125222976D01*
X110051967Y-125218033D01*
X110047024Y-125212579D01*
X110042640Y-125206668D01*
X110038856Y-125200355D01*
X110035709Y-125193701D01*
X110033229Y-125186771D01*
X110031441Y-125179632D01*
X110030361Y-125172351D01*
X110030000Y-125165000D01*
X110030000Y-123840000D01*
X110030361Y-123832649D01*
X110031441Y-123825368D01*
X110033229Y-123818229D01*
X110035709Y-123811299D01*
X110038856Y-123804645D01*
X110042640Y-123798332D01*
X110047024Y-123792421D01*
X110051967Y-123786967D01*
X110057421Y-123782024D01*
X110063332Y-123777640D01*
X110069645Y-123773856D01*
X110076299Y-123770709D01*
X110083229Y-123768229D01*
X110090368Y-123766441D01*
X110097649Y-123765361D01*
X110105000Y-123765000D01*
X110255000Y-123765000D01*
X110262351Y-123765361D01*
X110262351Y-123765361D01*
G37*
D11*
X110180000Y-124502500D03*
D10*
G36*
X110762351Y-123765361D02*
X110769632Y-123766441D01*
X110776771Y-123768229D01*
X110783701Y-123770709D01*
X110790355Y-123773856D01*
X110796668Y-123777640D01*
X110802579Y-123782024D01*
X110808033Y-123786967D01*
X110812976Y-123792421D01*
X110817360Y-123798332D01*
X110821144Y-123804645D01*
X110824291Y-123811299D01*
X110826771Y-123818229D01*
X110828559Y-123825368D01*
X110829639Y-123832649D01*
X110830000Y-123840000D01*
X110830000Y-125165000D01*
X110829639Y-125172351D01*
X110828559Y-125179632D01*
X110826771Y-125186771D01*
X110824291Y-125193701D01*
X110821144Y-125200355D01*
X110817360Y-125206668D01*
X110812976Y-125212579D01*
X110808033Y-125218033D01*
X110802579Y-125222976D01*
X110796668Y-125227360D01*
X110790355Y-125231144D01*
X110783701Y-125234291D01*
X110776771Y-125236771D01*
X110769632Y-125238559D01*
X110762351Y-125239639D01*
X110755000Y-125240000D01*
X110605000Y-125240000D01*
X110597649Y-125239639D01*
X110590368Y-125238559D01*
X110583229Y-125236771D01*
X110576299Y-125234291D01*
X110569645Y-125231144D01*
X110563332Y-125227360D01*
X110557421Y-125222976D01*
X110551967Y-125218033D01*
X110547024Y-125212579D01*
X110542640Y-125206668D01*
X110538856Y-125200355D01*
X110535709Y-125193701D01*
X110533229Y-125186771D01*
X110531441Y-125179632D01*
X110530361Y-125172351D01*
X110530000Y-125165000D01*
X110530000Y-123840000D01*
X110530361Y-123832649D01*
X110531441Y-123825368D01*
X110533229Y-123818229D01*
X110535709Y-123811299D01*
X110538856Y-123804645D01*
X110542640Y-123798332D01*
X110547024Y-123792421D01*
X110551967Y-123786967D01*
X110557421Y-123782024D01*
X110563332Y-123777640D01*
X110569645Y-123773856D01*
X110576299Y-123770709D01*
X110583229Y-123768229D01*
X110590368Y-123766441D01*
X110597649Y-123765361D01*
X110605000Y-123765000D01*
X110755000Y-123765000D01*
X110762351Y-123765361D01*
X110762351Y-123765361D01*
G37*
D11*
X110680000Y-124502500D03*
D10*
G36*
X111262351Y-123765361D02*
X111269632Y-123766441D01*
X111276771Y-123768229D01*
X111283701Y-123770709D01*
X111290355Y-123773856D01*
X111296668Y-123777640D01*
X111302579Y-123782024D01*
X111308033Y-123786967D01*
X111312976Y-123792421D01*
X111317360Y-123798332D01*
X111321144Y-123804645D01*
X111324291Y-123811299D01*
X111326771Y-123818229D01*
X111328559Y-123825368D01*
X111329639Y-123832649D01*
X111330000Y-123840000D01*
X111330000Y-125165000D01*
X111329639Y-125172351D01*
X111328559Y-125179632D01*
X111326771Y-125186771D01*
X111324291Y-125193701D01*
X111321144Y-125200355D01*
X111317360Y-125206668D01*
X111312976Y-125212579D01*
X111308033Y-125218033D01*
X111302579Y-125222976D01*
X111296668Y-125227360D01*
X111290355Y-125231144D01*
X111283701Y-125234291D01*
X111276771Y-125236771D01*
X111269632Y-125238559D01*
X111262351Y-125239639D01*
X111255000Y-125240000D01*
X111105000Y-125240000D01*
X111097649Y-125239639D01*
X111090368Y-125238559D01*
X111083229Y-125236771D01*
X111076299Y-125234291D01*
X111069645Y-125231144D01*
X111063332Y-125227360D01*
X111057421Y-125222976D01*
X111051967Y-125218033D01*
X111047024Y-125212579D01*
X111042640Y-125206668D01*
X111038856Y-125200355D01*
X111035709Y-125193701D01*
X111033229Y-125186771D01*
X111031441Y-125179632D01*
X111030361Y-125172351D01*
X111030000Y-125165000D01*
X111030000Y-123840000D01*
X111030361Y-123832649D01*
X111031441Y-123825368D01*
X111033229Y-123818229D01*
X111035709Y-123811299D01*
X111038856Y-123804645D01*
X111042640Y-123798332D01*
X111047024Y-123792421D01*
X111051967Y-123786967D01*
X111057421Y-123782024D01*
X111063332Y-123777640D01*
X111069645Y-123773856D01*
X111076299Y-123770709D01*
X111083229Y-123768229D01*
X111090368Y-123766441D01*
X111097649Y-123765361D01*
X111105000Y-123765000D01*
X111255000Y-123765000D01*
X111262351Y-123765361D01*
X111262351Y-123765361D01*
G37*
D11*
X111180000Y-124502500D03*
D10*
G36*
X111762351Y-123765361D02*
X111769632Y-123766441D01*
X111776771Y-123768229D01*
X111783701Y-123770709D01*
X111790355Y-123773856D01*
X111796668Y-123777640D01*
X111802579Y-123782024D01*
X111808033Y-123786967D01*
X111812976Y-123792421D01*
X111817360Y-123798332D01*
X111821144Y-123804645D01*
X111824291Y-123811299D01*
X111826771Y-123818229D01*
X111828559Y-123825368D01*
X111829639Y-123832649D01*
X111830000Y-123840000D01*
X111830000Y-125165000D01*
X111829639Y-125172351D01*
X111828559Y-125179632D01*
X111826771Y-125186771D01*
X111824291Y-125193701D01*
X111821144Y-125200355D01*
X111817360Y-125206668D01*
X111812976Y-125212579D01*
X111808033Y-125218033D01*
X111802579Y-125222976D01*
X111796668Y-125227360D01*
X111790355Y-125231144D01*
X111783701Y-125234291D01*
X111776771Y-125236771D01*
X111769632Y-125238559D01*
X111762351Y-125239639D01*
X111755000Y-125240000D01*
X111605000Y-125240000D01*
X111597649Y-125239639D01*
X111590368Y-125238559D01*
X111583229Y-125236771D01*
X111576299Y-125234291D01*
X111569645Y-125231144D01*
X111563332Y-125227360D01*
X111557421Y-125222976D01*
X111551967Y-125218033D01*
X111547024Y-125212579D01*
X111542640Y-125206668D01*
X111538856Y-125200355D01*
X111535709Y-125193701D01*
X111533229Y-125186771D01*
X111531441Y-125179632D01*
X111530361Y-125172351D01*
X111530000Y-125165000D01*
X111530000Y-123840000D01*
X111530361Y-123832649D01*
X111531441Y-123825368D01*
X111533229Y-123818229D01*
X111535709Y-123811299D01*
X111538856Y-123804645D01*
X111542640Y-123798332D01*
X111547024Y-123792421D01*
X111551967Y-123786967D01*
X111557421Y-123782024D01*
X111563332Y-123777640D01*
X111569645Y-123773856D01*
X111576299Y-123770709D01*
X111583229Y-123768229D01*
X111590368Y-123766441D01*
X111597649Y-123765361D01*
X111605000Y-123765000D01*
X111755000Y-123765000D01*
X111762351Y-123765361D01*
X111762351Y-123765361D01*
G37*
D11*
X111680000Y-124502500D03*
D10*
G36*
X112262351Y-123765361D02*
X112269632Y-123766441D01*
X112276771Y-123768229D01*
X112283701Y-123770709D01*
X112290355Y-123773856D01*
X112296668Y-123777640D01*
X112302579Y-123782024D01*
X112308033Y-123786967D01*
X112312976Y-123792421D01*
X112317360Y-123798332D01*
X112321144Y-123804645D01*
X112324291Y-123811299D01*
X112326771Y-123818229D01*
X112328559Y-123825368D01*
X112329639Y-123832649D01*
X112330000Y-123840000D01*
X112330000Y-125165000D01*
X112329639Y-125172351D01*
X112328559Y-125179632D01*
X112326771Y-125186771D01*
X112324291Y-125193701D01*
X112321144Y-125200355D01*
X112317360Y-125206668D01*
X112312976Y-125212579D01*
X112308033Y-125218033D01*
X112302579Y-125222976D01*
X112296668Y-125227360D01*
X112290355Y-125231144D01*
X112283701Y-125234291D01*
X112276771Y-125236771D01*
X112269632Y-125238559D01*
X112262351Y-125239639D01*
X112255000Y-125240000D01*
X112105000Y-125240000D01*
X112097649Y-125239639D01*
X112090368Y-125238559D01*
X112083229Y-125236771D01*
X112076299Y-125234291D01*
X112069645Y-125231144D01*
X112063332Y-125227360D01*
X112057421Y-125222976D01*
X112051967Y-125218033D01*
X112047024Y-125212579D01*
X112042640Y-125206668D01*
X112038856Y-125200355D01*
X112035709Y-125193701D01*
X112033229Y-125186771D01*
X112031441Y-125179632D01*
X112030361Y-125172351D01*
X112030000Y-125165000D01*
X112030000Y-123840000D01*
X112030361Y-123832649D01*
X112031441Y-123825368D01*
X112033229Y-123818229D01*
X112035709Y-123811299D01*
X112038856Y-123804645D01*
X112042640Y-123798332D01*
X112047024Y-123792421D01*
X112051967Y-123786967D01*
X112057421Y-123782024D01*
X112063332Y-123777640D01*
X112069645Y-123773856D01*
X112076299Y-123770709D01*
X112083229Y-123768229D01*
X112090368Y-123766441D01*
X112097649Y-123765361D01*
X112105000Y-123765000D01*
X112255000Y-123765000D01*
X112262351Y-123765361D01*
X112262351Y-123765361D01*
G37*
D11*
X112180000Y-124502500D03*
D10*
G36*
X112762351Y-123765361D02*
X112769632Y-123766441D01*
X112776771Y-123768229D01*
X112783701Y-123770709D01*
X112790355Y-123773856D01*
X112796668Y-123777640D01*
X112802579Y-123782024D01*
X112808033Y-123786967D01*
X112812976Y-123792421D01*
X112817360Y-123798332D01*
X112821144Y-123804645D01*
X112824291Y-123811299D01*
X112826771Y-123818229D01*
X112828559Y-123825368D01*
X112829639Y-123832649D01*
X112830000Y-123840000D01*
X112830000Y-125165000D01*
X112829639Y-125172351D01*
X112828559Y-125179632D01*
X112826771Y-125186771D01*
X112824291Y-125193701D01*
X112821144Y-125200355D01*
X112817360Y-125206668D01*
X112812976Y-125212579D01*
X112808033Y-125218033D01*
X112802579Y-125222976D01*
X112796668Y-125227360D01*
X112790355Y-125231144D01*
X112783701Y-125234291D01*
X112776771Y-125236771D01*
X112769632Y-125238559D01*
X112762351Y-125239639D01*
X112755000Y-125240000D01*
X112605000Y-125240000D01*
X112597649Y-125239639D01*
X112590368Y-125238559D01*
X112583229Y-125236771D01*
X112576299Y-125234291D01*
X112569645Y-125231144D01*
X112563332Y-125227360D01*
X112557421Y-125222976D01*
X112551967Y-125218033D01*
X112547024Y-125212579D01*
X112542640Y-125206668D01*
X112538856Y-125200355D01*
X112535709Y-125193701D01*
X112533229Y-125186771D01*
X112531441Y-125179632D01*
X112530361Y-125172351D01*
X112530000Y-125165000D01*
X112530000Y-123840000D01*
X112530361Y-123832649D01*
X112531441Y-123825368D01*
X112533229Y-123818229D01*
X112535709Y-123811299D01*
X112538856Y-123804645D01*
X112542640Y-123798332D01*
X112547024Y-123792421D01*
X112551967Y-123786967D01*
X112557421Y-123782024D01*
X112563332Y-123777640D01*
X112569645Y-123773856D01*
X112576299Y-123770709D01*
X112583229Y-123768229D01*
X112590368Y-123766441D01*
X112597649Y-123765361D01*
X112605000Y-123765000D01*
X112755000Y-123765000D01*
X112762351Y-123765361D01*
X112762351Y-123765361D01*
G37*
D11*
X112680000Y-124502500D03*
D10*
G36*
X115012351Y-122690361D02*
X115019632Y-122691441D01*
X115026771Y-122693229D01*
X115033701Y-122695709D01*
X115040355Y-122698856D01*
X115046668Y-122702640D01*
X115052579Y-122707024D01*
X115058033Y-122711967D01*
X115062976Y-122717421D01*
X115067360Y-122723332D01*
X115071144Y-122729645D01*
X115074291Y-122736299D01*
X115076771Y-122743229D01*
X115078559Y-122750368D01*
X115079639Y-122757649D01*
X115080000Y-122765000D01*
X115080000Y-122915000D01*
X115079639Y-122922351D01*
X115078559Y-122929632D01*
X115076771Y-122936771D01*
X115074291Y-122943701D01*
X115071144Y-122950355D01*
X115067360Y-122956668D01*
X115062976Y-122962579D01*
X115058033Y-122968033D01*
X115052579Y-122972976D01*
X115046668Y-122977360D01*
X115040355Y-122981144D01*
X115033701Y-122984291D01*
X115026771Y-122986771D01*
X115019632Y-122988559D01*
X115012351Y-122989639D01*
X115005000Y-122990000D01*
X113680000Y-122990000D01*
X113672649Y-122989639D01*
X113665368Y-122988559D01*
X113658229Y-122986771D01*
X113651299Y-122984291D01*
X113644645Y-122981144D01*
X113638332Y-122977360D01*
X113632421Y-122972976D01*
X113626967Y-122968033D01*
X113622024Y-122962579D01*
X113617640Y-122956668D01*
X113613856Y-122950355D01*
X113610709Y-122943701D01*
X113608229Y-122936771D01*
X113606441Y-122929632D01*
X113605361Y-122922351D01*
X113605000Y-122915000D01*
X113605000Y-122765000D01*
X113605361Y-122757649D01*
X113606441Y-122750368D01*
X113608229Y-122743229D01*
X113610709Y-122736299D01*
X113613856Y-122729645D01*
X113617640Y-122723332D01*
X113622024Y-122717421D01*
X113626967Y-122711967D01*
X113632421Y-122707024D01*
X113638332Y-122702640D01*
X113644645Y-122698856D01*
X113651299Y-122695709D01*
X113658229Y-122693229D01*
X113665368Y-122691441D01*
X113672649Y-122690361D01*
X113680000Y-122690000D01*
X115005000Y-122690000D01*
X115012351Y-122690361D01*
X115012351Y-122690361D01*
G37*
D11*
X114342500Y-122840000D03*
D10*
G36*
X115012351Y-122190361D02*
X115019632Y-122191441D01*
X115026771Y-122193229D01*
X115033701Y-122195709D01*
X115040355Y-122198856D01*
X115046668Y-122202640D01*
X115052579Y-122207024D01*
X115058033Y-122211967D01*
X115062976Y-122217421D01*
X115067360Y-122223332D01*
X115071144Y-122229645D01*
X115074291Y-122236299D01*
X115076771Y-122243229D01*
X115078559Y-122250368D01*
X115079639Y-122257649D01*
X115080000Y-122265000D01*
X115080000Y-122415000D01*
X115079639Y-122422351D01*
X115078559Y-122429632D01*
X115076771Y-122436771D01*
X115074291Y-122443701D01*
X115071144Y-122450355D01*
X115067360Y-122456668D01*
X115062976Y-122462579D01*
X115058033Y-122468033D01*
X115052579Y-122472976D01*
X115046668Y-122477360D01*
X115040355Y-122481144D01*
X115033701Y-122484291D01*
X115026771Y-122486771D01*
X115019632Y-122488559D01*
X115012351Y-122489639D01*
X115005000Y-122490000D01*
X113680000Y-122490000D01*
X113672649Y-122489639D01*
X113665368Y-122488559D01*
X113658229Y-122486771D01*
X113651299Y-122484291D01*
X113644645Y-122481144D01*
X113638332Y-122477360D01*
X113632421Y-122472976D01*
X113626967Y-122468033D01*
X113622024Y-122462579D01*
X113617640Y-122456668D01*
X113613856Y-122450355D01*
X113610709Y-122443701D01*
X113608229Y-122436771D01*
X113606441Y-122429632D01*
X113605361Y-122422351D01*
X113605000Y-122415000D01*
X113605000Y-122265000D01*
X113605361Y-122257649D01*
X113606441Y-122250368D01*
X113608229Y-122243229D01*
X113610709Y-122236299D01*
X113613856Y-122229645D01*
X113617640Y-122223332D01*
X113622024Y-122217421D01*
X113626967Y-122211967D01*
X113632421Y-122207024D01*
X113638332Y-122202640D01*
X113644645Y-122198856D01*
X113651299Y-122195709D01*
X113658229Y-122193229D01*
X113665368Y-122191441D01*
X113672649Y-122190361D01*
X113680000Y-122190000D01*
X115005000Y-122190000D01*
X115012351Y-122190361D01*
X115012351Y-122190361D01*
G37*
D11*
X114342500Y-122340000D03*
D10*
G36*
X115012351Y-121690361D02*
X115019632Y-121691441D01*
X115026771Y-121693229D01*
X115033701Y-121695709D01*
X115040355Y-121698856D01*
X115046668Y-121702640D01*
X115052579Y-121707024D01*
X115058033Y-121711967D01*
X115062976Y-121717421D01*
X115067360Y-121723332D01*
X115071144Y-121729645D01*
X115074291Y-121736299D01*
X115076771Y-121743229D01*
X115078559Y-121750368D01*
X115079639Y-121757649D01*
X115080000Y-121765000D01*
X115080000Y-121915000D01*
X115079639Y-121922351D01*
X115078559Y-121929632D01*
X115076771Y-121936771D01*
X115074291Y-121943701D01*
X115071144Y-121950355D01*
X115067360Y-121956668D01*
X115062976Y-121962579D01*
X115058033Y-121968033D01*
X115052579Y-121972976D01*
X115046668Y-121977360D01*
X115040355Y-121981144D01*
X115033701Y-121984291D01*
X115026771Y-121986771D01*
X115019632Y-121988559D01*
X115012351Y-121989639D01*
X115005000Y-121990000D01*
X113680000Y-121990000D01*
X113672649Y-121989639D01*
X113665368Y-121988559D01*
X113658229Y-121986771D01*
X113651299Y-121984291D01*
X113644645Y-121981144D01*
X113638332Y-121977360D01*
X113632421Y-121972976D01*
X113626967Y-121968033D01*
X113622024Y-121962579D01*
X113617640Y-121956668D01*
X113613856Y-121950355D01*
X113610709Y-121943701D01*
X113608229Y-121936771D01*
X113606441Y-121929632D01*
X113605361Y-121922351D01*
X113605000Y-121915000D01*
X113605000Y-121765000D01*
X113605361Y-121757649D01*
X113606441Y-121750368D01*
X113608229Y-121743229D01*
X113610709Y-121736299D01*
X113613856Y-121729645D01*
X113617640Y-121723332D01*
X113622024Y-121717421D01*
X113626967Y-121711967D01*
X113632421Y-121707024D01*
X113638332Y-121702640D01*
X113644645Y-121698856D01*
X113651299Y-121695709D01*
X113658229Y-121693229D01*
X113665368Y-121691441D01*
X113672649Y-121690361D01*
X113680000Y-121690000D01*
X115005000Y-121690000D01*
X115012351Y-121690361D01*
X115012351Y-121690361D01*
G37*
D11*
X114342500Y-121840000D03*
D10*
G36*
X115012351Y-121190361D02*
X115019632Y-121191441D01*
X115026771Y-121193229D01*
X115033701Y-121195709D01*
X115040355Y-121198856D01*
X115046668Y-121202640D01*
X115052579Y-121207024D01*
X115058033Y-121211967D01*
X115062976Y-121217421D01*
X115067360Y-121223332D01*
X115071144Y-121229645D01*
X115074291Y-121236299D01*
X115076771Y-121243229D01*
X115078559Y-121250368D01*
X115079639Y-121257649D01*
X115080000Y-121265000D01*
X115080000Y-121415000D01*
X115079639Y-121422351D01*
X115078559Y-121429632D01*
X115076771Y-121436771D01*
X115074291Y-121443701D01*
X115071144Y-121450355D01*
X115067360Y-121456668D01*
X115062976Y-121462579D01*
X115058033Y-121468033D01*
X115052579Y-121472976D01*
X115046668Y-121477360D01*
X115040355Y-121481144D01*
X115033701Y-121484291D01*
X115026771Y-121486771D01*
X115019632Y-121488559D01*
X115012351Y-121489639D01*
X115005000Y-121490000D01*
X113680000Y-121490000D01*
X113672649Y-121489639D01*
X113665368Y-121488559D01*
X113658229Y-121486771D01*
X113651299Y-121484291D01*
X113644645Y-121481144D01*
X113638332Y-121477360D01*
X113632421Y-121472976D01*
X113626967Y-121468033D01*
X113622024Y-121462579D01*
X113617640Y-121456668D01*
X113613856Y-121450355D01*
X113610709Y-121443701D01*
X113608229Y-121436771D01*
X113606441Y-121429632D01*
X113605361Y-121422351D01*
X113605000Y-121415000D01*
X113605000Y-121265000D01*
X113605361Y-121257649D01*
X113606441Y-121250368D01*
X113608229Y-121243229D01*
X113610709Y-121236299D01*
X113613856Y-121229645D01*
X113617640Y-121223332D01*
X113622024Y-121217421D01*
X113626967Y-121211967D01*
X113632421Y-121207024D01*
X113638332Y-121202640D01*
X113644645Y-121198856D01*
X113651299Y-121195709D01*
X113658229Y-121193229D01*
X113665368Y-121191441D01*
X113672649Y-121190361D01*
X113680000Y-121190000D01*
X115005000Y-121190000D01*
X115012351Y-121190361D01*
X115012351Y-121190361D01*
G37*
D11*
X114342500Y-121340000D03*
D10*
G36*
X115012351Y-120690361D02*
X115019632Y-120691441D01*
X115026771Y-120693229D01*
X115033701Y-120695709D01*
X115040355Y-120698856D01*
X115046668Y-120702640D01*
X115052579Y-120707024D01*
X115058033Y-120711967D01*
X115062976Y-120717421D01*
X115067360Y-120723332D01*
X115071144Y-120729645D01*
X115074291Y-120736299D01*
X115076771Y-120743229D01*
X115078559Y-120750368D01*
X115079639Y-120757649D01*
X115080000Y-120765000D01*
X115080000Y-120915000D01*
X115079639Y-120922351D01*
X115078559Y-120929632D01*
X115076771Y-120936771D01*
X115074291Y-120943701D01*
X115071144Y-120950355D01*
X115067360Y-120956668D01*
X115062976Y-120962579D01*
X115058033Y-120968033D01*
X115052579Y-120972976D01*
X115046668Y-120977360D01*
X115040355Y-120981144D01*
X115033701Y-120984291D01*
X115026771Y-120986771D01*
X115019632Y-120988559D01*
X115012351Y-120989639D01*
X115005000Y-120990000D01*
X113680000Y-120990000D01*
X113672649Y-120989639D01*
X113665368Y-120988559D01*
X113658229Y-120986771D01*
X113651299Y-120984291D01*
X113644645Y-120981144D01*
X113638332Y-120977360D01*
X113632421Y-120972976D01*
X113626967Y-120968033D01*
X113622024Y-120962579D01*
X113617640Y-120956668D01*
X113613856Y-120950355D01*
X113610709Y-120943701D01*
X113608229Y-120936771D01*
X113606441Y-120929632D01*
X113605361Y-120922351D01*
X113605000Y-120915000D01*
X113605000Y-120765000D01*
X113605361Y-120757649D01*
X113606441Y-120750368D01*
X113608229Y-120743229D01*
X113610709Y-120736299D01*
X113613856Y-120729645D01*
X113617640Y-120723332D01*
X113622024Y-120717421D01*
X113626967Y-120711967D01*
X113632421Y-120707024D01*
X113638332Y-120702640D01*
X113644645Y-120698856D01*
X113651299Y-120695709D01*
X113658229Y-120693229D01*
X113665368Y-120691441D01*
X113672649Y-120690361D01*
X113680000Y-120690000D01*
X115005000Y-120690000D01*
X115012351Y-120690361D01*
X115012351Y-120690361D01*
G37*
D11*
X114342500Y-120840000D03*
D10*
G36*
X115012351Y-120190361D02*
X115019632Y-120191441D01*
X115026771Y-120193229D01*
X115033701Y-120195709D01*
X115040355Y-120198856D01*
X115046668Y-120202640D01*
X115052579Y-120207024D01*
X115058033Y-120211967D01*
X115062976Y-120217421D01*
X115067360Y-120223332D01*
X115071144Y-120229645D01*
X115074291Y-120236299D01*
X115076771Y-120243229D01*
X115078559Y-120250368D01*
X115079639Y-120257649D01*
X115080000Y-120265000D01*
X115080000Y-120415000D01*
X115079639Y-120422351D01*
X115078559Y-120429632D01*
X115076771Y-120436771D01*
X115074291Y-120443701D01*
X115071144Y-120450355D01*
X115067360Y-120456668D01*
X115062976Y-120462579D01*
X115058033Y-120468033D01*
X115052579Y-120472976D01*
X115046668Y-120477360D01*
X115040355Y-120481144D01*
X115033701Y-120484291D01*
X115026771Y-120486771D01*
X115019632Y-120488559D01*
X115012351Y-120489639D01*
X115005000Y-120490000D01*
X113680000Y-120490000D01*
X113672649Y-120489639D01*
X113665368Y-120488559D01*
X113658229Y-120486771D01*
X113651299Y-120484291D01*
X113644645Y-120481144D01*
X113638332Y-120477360D01*
X113632421Y-120472976D01*
X113626967Y-120468033D01*
X113622024Y-120462579D01*
X113617640Y-120456668D01*
X113613856Y-120450355D01*
X113610709Y-120443701D01*
X113608229Y-120436771D01*
X113606441Y-120429632D01*
X113605361Y-120422351D01*
X113605000Y-120415000D01*
X113605000Y-120265000D01*
X113605361Y-120257649D01*
X113606441Y-120250368D01*
X113608229Y-120243229D01*
X113610709Y-120236299D01*
X113613856Y-120229645D01*
X113617640Y-120223332D01*
X113622024Y-120217421D01*
X113626967Y-120211967D01*
X113632421Y-120207024D01*
X113638332Y-120202640D01*
X113644645Y-120198856D01*
X113651299Y-120195709D01*
X113658229Y-120193229D01*
X113665368Y-120191441D01*
X113672649Y-120190361D01*
X113680000Y-120190000D01*
X115005000Y-120190000D01*
X115012351Y-120190361D01*
X115012351Y-120190361D01*
G37*
D11*
X114342500Y-120340000D03*
D10*
G36*
X115012351Y-119690361D02*
X115019632Y-119691441D01*
X115026771Y-119693229D01*
X115033701Y-119695709D01*
X115040355Y-119698856D01*
X115046668Y-119702640D01*
X115052579Y-119707024D01*
X115058033Y-119711967D01*
X115062976Y-119717421D01*
X115067360Y-119723332D01*
X115071144Y-119729645D01*
X115074291Y-119736299D01*
X115076771Y-119743229D01*
X115078559Y-119750368D01*
X115079639Y-119757649D01*
X115080000Y-119765000D01*
X115080000Y-119915000D01*
X115079639Y-119922351D01*
X115078559Y-119929632D01*
X115076771Y-119936771D01*
X115074291Y-119943701D01*
X115071144Y-119950355D01*
X115067360Y-119956668D01*
X115062976Y-119962579D01*
X115058033Y-119968033D01*
X115052579Y-119972976D01*
X115046668Y-119977360D01*
X115040355Y-119981144D01*
X115033701Y-119984291D01*
X115026771Y-119986771D01*
X115019632Y-119988559D01*
X115012351Y-119989639D01*
X115005000Y-119990000D01*
X113680000Y-119990000D01*
X113672649Y-119989639D01*
X113665368Y-119988559D01*
X113658229Y-119986771D01*
X113651299Y-119984291D01*
X113644645Y-119981144D01*
X113638332Y-119977360D01*
X113632421Y-119972976D01*
X113626967Y-119968033D01*
X113622024Y-119962579D01*
X113617640Y-119956668D01*
X113613856Y-119950355D01*
X113610709Y-119943701D01*
X113608229Y-119936771D01*
X113606441Y-119929632D01*
X113605361Y-119922351D01*
X113605000Y-119915000D01*
X113605000Y-119765000D01*
X113605361Y-119757649D01*
X113606441Y-119750368D01*
X113608229Y-119743229D01*
X113610709Y-119736299D01*
X113613856Y-119729645D01*
X113617640Y-119723332D01*
X113622024Y-119717421D01*
X113626967Y-119711967D01*
X113632421Y-119707024D01*
X113638332Y-119702640D01*
X113644645Y-119698856D01*
X113651299Y-119695709D01*
X113658229Y-119693229D01*
X113665368Y-119691441D01*
X113672649Y-119690361D01*
X113680000Y-119690000D01*
X115005000Y-119690000D01*
X115012351Y-119690361D01*
X115012351Y-119690361D01*
G37*
D11*
X114342500Y-119840000D03*
D10*
G36*
X115012351Y-119190361D02*
X115019632Y-119191441D01*
X115026771Y-119193229D01*
X115033701Y-119195709D01*
X115040355Y-119198856D01*
X115046668Y-119202640D01*
X115052579Y-119207024D01*
X115058033Y-119211967D01*
X115062976Y-119217421D01*
X115067360Y-119223332D01*
X115071144Y-119229645D01*
X115074291Y-119236299D01*
X115076771Y-119243229D01*
X115078559Y-119250368D01*
X115079639Y-119257649D01*
X115080000Y-119265000D01*
X115080000Y-119415000D01*
X115079639Y-119422351D01*
X115078559Y-119429632D01*
X115076771Y-119436771D01*
X115074291Y-119443701D01*
X115071144Y-119450355D01*
X115067360Y-119456668D01*
X115062976Y-119462579D01*
X115058033Y-119468033D01*
X115052579Y-119472976D01*
X115046668Y-119477360D01*
X115040355Y-119481144D01*
X115033701Y-119484291D01*
X115026771Y-119486771D01*
X115019632Y-119488559D01*
X115012351Y-119489639D01*
X115005000Y-119490000D01*
X113680000Y-119490000D01*
X113672649Y-119489639D01*
X113665368Y-119488559D01*
X113658229Y-119486771D01*
X113651299Y-119484291D01*
X113644645Y-119481144D01*
X113638332Y-119477360D01*
X113632421Y-119472976D01*
X113626967Y-119468033D01*
X113622024Y-119462579D01*
X113617640Y-119456668D01*
X113613856Y-119450355D01*
X113610709Y-119443701D01*
X113608229Y-119436771D01*
X113606441Y-119429632D01*
X113605361Y-119422351D01*
X113605000Y-119415000D01*
X113605000Y-119265000D01*
X113605361Y-119257649D01*
X113606441Y-119250368D01*
X113608229Y-119243229D01*
X113610709Y-119236299D01*
X113613856Y-119229645D01*
X113617640Y-119223332D01*
X113622024Y-119217421D01*
X113626967Y-119211967D01*
X113632421Y-119207024D01*
X113638332Y-119202640D01*
X113644645Y-119198856D01*
X113651299Y-119195709D01*
X113658229Y-119193229D01*
X113665368Y-119191441D01*
X113672649Y-119190361D01*
X113680000Y-119190000D01*
X115005000Y-119190000D01*
X115012351Y-119190361D01*
X115012351Y-119190361D01*
G37*
D11*
X114342500Y-119340000D03*
D10*
G36*
X115012351Y-118690361D02*
X115019632Y-118691441D01*
X115026771Y-118693229D01*
X115033701Y-118695709D01*
X115040355Y-118698856D01*
X115046668Y-118702640D01*
X115052579Y-118707024D01*
X115058033Y-118711967D01*
X115062976Y-118717421D01*
X115067360Y-118723332D01*
X115071144Y-118729645D01*
X115074291Y-118736299D01*
X115076771Y-118743229D01*
X115078559Y-118750368D01*
X115079639Y-118757649D01*
X115080000Y-118765000D01*
X115080000Y-118915000D01*
X115079639Y-118922351D01*
X115078559Y-118929632D01*
X115076771Y-118936771D01*
X115074291Y-118943701D01*
X115071144Y-118950355D01*
X115067360Y-118956668D01*
X115062976Y-118962579D01*
X115058033Y-118968033D01*
X115052579Y-118972976D01*
X115046668Y-118977360D01*
X115040355Y-118981144D01*
X115033701Y-118984291D01*
X115026771Y-118986771D01*
X115019632Y-118988559D01*
X115012351Y-118989639D01*
X115005000Y-118990000D01*
X113680000Y-118990000D01*
X113672649Y-118989639D01*
X113665368Y-118988559D01*
X113658229Y-118986771D01*
X113651299Y-118984291D01*
X113644645Y-118981144D01*
X113638332Y-118977360D01*
X113632421Y-118972976D01*
X113626967Y-118968033D01*
X113622024Y-118962579D01*
X113617640Y-118956668D01*
X113613856Y-118950355D01*
X113610709Y-118943701D01*
X113608229Y-118936771D01*
X113606441Y-118929632D01*
X113605361Y-118922351D01*
X113605000Y-118915000D01*
X113605000Y-118765000D01*
X113605361Y-118757649D01*
X113606441Y-118750368D01*
X113608229Y-118743229D01*
X113610709Y-118736299D01*
X113613856Y-118729645D01*
X113617640Y-118723332D01*
X113622024Y-118717421D01*
X113626967Y-118711967D01*
X113632421Y-118707024D01*
X113638332Y-118702640D01*
X113644645Y-118698856D01*
X113651299Y-118695709D01*
X113658229Y-118693229D01*
X113665368Y-118691441D01*
X113672649Y-118690361D01*
X113680000Y-118690000D01*
X115005000Y-118690000D01*
X115012351Y-118690361D01*
X115012351Y-118690361D01*
G37*
D11*
X114342500Y-118840000D03*
D10*
G36*
X115012351Y-118190361D02*
X115019632Y-118191441D01*
X115026771Y-118193229D01*
X115033701Y-118195709D01*
X115040355Y-118198856D01*
X115046668Y-118202640D01*
X115052579Y-118207024D01*
X115058033Y-118211967D01*
X115062976Y-118217421D01*
X115067360Y-118223332D01*
X115071144Y-118229645D01*
X115074291Y-118236299D01*
X115076771Y-118243229D01*
X115078559Y-118250368D01*
X115079639Y-118257649D01*
X115080000Y-118265000D01*
X115080000Y-118415000D01*
X115079639Y-118422351D01*
X115078559Y-118429632D01*
X115076771Y-118436771D01*
X115074291Y-118443701D01*
X115071144Y-118450355D01*
X115067360Y-118456668D01*
X115062976Y-118462579D01*
X115058033Y-118468033D01*
X115052579Y-118472976D01*
X115046668Y-118477360D01*
X115040355Y-118481144D01*
X115033701Y-118484291D01*
X115026771Y-118486771D01*
X115019632Y-118488559D01*
X115012351Y-118489639D01*
X115005000Y-118490000D01*
X113680000Y-118490000D01*
X113672649Y-118489639D01*
X113665368Y-118488559D01*
X113658229Y-118486771D01*
X113651299Y-118484291D01*
X113644645Y-118481144D01*
X113638332Y-118477360D01*
X113632421Y-118472976D01*
X113626967Y-118468033D01*
X113622024Y-118462579D01*
X113617640Y-118456668D01*
X113613856Y-118450355D01*
X113610709Y-118443701D01*
X113608229Y-118436771D01*
X113606441Y-118429632D01*
X113605361Y-118422351D01*
X113605000Y-118415000D01*
X113605000Y-118265000D01*
X113605361Y-118257649D01*
X113606441Y-118250368D01*
X113608229Y-118243229D01*
X113610709Y-118236299D01*
X113613856Y-118229645D01*
X113617640Y-118223332D01*
X113622024Y-118217421D01*
X113626967Y-118211967D01*
X113632421Y-118207024D01*
X113638332Y-118202640D01*
X113644645Y-118198856D01*
X113651299Y-118195709D01*
X113658229Y-118193229D01*
X113665368Y-118191441D01*
X113672649Y-118190361D01*
X113680000Y-118190000D01*
X115005000Y-118190000D01*
X115012351Y-118190361D01*
X115012351Y-118190361D01*
G37*
D11*
X114342500Y-118340000D03*
D10*
G36*
X115012351Y-117690361D02*
X115019632Y-117691441D01*
X115026771Y-117693229D01*
X115033701Y-117695709D01*
X115040355Y-117698856D01*
X115046668Y-117702640D01*
X115052579Y-117707024D01*
X115058033Y-117711967D01*
X115062976Y-117717421D01*
X115067360Y-117723332D01*
X115071144Y-117729645D01*
X115074291Y-117736299D01*
X115076771Y-117743229D01*
X115078559Y-117750368D01*
X115079639Y-117757649D01*
X115080000Y-117765000D01*
X115080000Y-117915000D01*
X115079639Y-117922351D01*
X115078559Y-117929632D01*
X115076771Y-117936771D01*
X115074291Y-117943701D01*
X115071144Y-117950355D01*
X115067360Y-117956668D01*
X115062976Y-117962579D01*
X115058033Y-117968033D01*
X115052579Y-117972976D01*
X115046668Y-117977360D01*
X115040355Y-117981144D01*
X115033701Y-117984291D01*
X115026771Y-117986771D01*
X115019632Y-117988559D01*
X115012351Y-117989639D01*
X115005000Y-117990000D01*
X113680000Y-117990000D01*
X113672649Y-117989639D01*
X113665368Y-117988559D01*
X113658229Y-117986771D01*
X113651299Y-117984291D01*
X113644645Y-117981144D01*
X113638332Y-117977360D01*
X113632421Y-117972976D01*
X113626967Y-117968033D01*
X113622024Y-117962579D01*
X113617640Y-117956668D01*
X113613856Y-117950355D01*
X113610709Y-117943701D01*
X113608229Y-117936771D01*
X113606441Y-117929632D01*
X113605361Y-117922351D01*
X113605000Y-117915000D01*
X113605000Y-117765000D01*
X113605361Y-117757649D01*
X113606441Y-117750368D01*
X113608229Y-117743229D01*
X113610709Y-117736299D01*
X113613856Y-117729645D01*
X113617640Y-117723332D01*
X113622024Y-117717421D01*
X113626967Y-117711967D01*
X113632421Y-117707024D01*
X113638332Y-117702640D01*
X113644645Y-117698856D01*
X113651299Y-117695709D01*
X113658229Y-117693229D01*
X113665368Y-117691441D01*
X113672649Y-117690361D01*
X113680000Y-117690000D01*
X115005000Y-117690000D01*
X115012351Y-117690361D01*
X115012351Y-117690361D01*
G37*
D11*
X114342500Y-117840000D03*
D10*
G36*
X115012351Y-117190361D02*
X115019632Y-117191441D01*
X115026771Y-117193229D01*
X115033701Y-117195709D01*
X115040355Y-117198856D01*
X115046668Y-117202640D01*
X115052579Y-117207024D01*
X115058033Y-117211967D01*
X115062976Y-117217421D01*
X115067360Y-117223332D01*
X115071144Y-117229645D01*
X115074291Y-117236299D01*
X115076771Y-117243229D01*
X115078559Y-117250368D01*
X115079639Y-117257649D01*
X115080000Y-117265000D01*
X115080000Y-117415000D01*
X115079639Y-117422351D01*
X115078559Y-117429632D01*
X115076771Y-117436771D01*
X115074291Y-117443701D01*
X115071144Y-117450355D01*
X115067360Y-117456668D01*
X115062976Y-117462579D01*
X115058033Y-117468033D01*
X115052579Y-117472976D01*
X115046668Y-117477360D01*
X115040355Y-117481144D01*
X115033701Y-117484291D01*
X115026771Y-117486771D01*
X115019632Y-117488559D01*
X115012351Y-117489639D01*
X115005000Y-117490000D01*
X113680000Y-117490000D01*
X113672649Y-117489639D01*
X113665368Y-117488559D01*
X113658229Y-117486771D01*
X113651299Y-117484291D01*
X113644645Y-117481144D01*
X113638332Y-117477360D01*
X113632421Y-117472976D01*
X113626967Y-117468033D01*
X113622024Y-117462579D01*
X113617640Y-117456668D01*
X113613856Y-117450355D01*
X113610709Y-117443701D01*
X113608229Y-117436771D01*
X113606441Y-117429632D01*
X113605361Y-117422351D01*
X113605000Y-117415000D01*
X113605000Y-117265000D01*
X113605361Y-117257649D01*
X113606441Y-117250368D01*
X113608229Y-117243229D01*
X113610709Y-117236299D01*
X113613856Y-117229645D01*
X113617640Y-117223332D01*
X113622024Y-117217421D01*
X113626967Y-117211967D01*
X113632421Y-117207024D01*
X113638332Y-117202640D01*
X113644645Y-117198856D01*
X113651299Y-117195709D01*
X113658229Y-117193229D01*
X113665368Y-117191441D01*
X113672649Y-117190361D01*
X113680000Y-117190000D01*
X115005000Y-117190000D01*
X115012351Y-117190361D01*
X115012351Y-117190361D01*
G37*
D11*
X114342500Y-117340000D03*
D10*
G36*
X115012351Y-116690361D02*
X115019632Y-116691441D01*
X115026771Y-116693229D01*
X115033701Y-116695709D01*
X115040355Y-116698856D01*
X115046668Y-116702640D01*
X115052579Y-116707024D01*
X115058033Y-116711967D01*
X115062976Y-116717421D01*
X115067360Y-116723332D01*
X115071144Y-116729645D01*
X115074291Y-116736299D01*
X115076771Y-116743229D01*
X115078559Y-116750368D01*
X115079639Y-116757649D01*
X115080000Y-116765000D01*
X115080000Y-116915000D01*
X115079639Y-116922351D01*
X115078559Y-116929632D01*
X115076771Y-116936771D01*
X115074291Y-116943701D01*
X115071144Y-116950355D01*
X115067360Y-116956668D01*
X115062976Y-116962579D01*
X115058033Y-116968033D01*
X115052579Y-116972976D01*
X115046668Y-116977360D01*
X115040355Y-116981144D01*
X115033701Y-116984291D01*
X115026771Y-116986771D01*
X115019632Y-116988559D01*
X115012351Y-116989639D01*
X115005000Y-116990000D01*
X113680000Y-116990000D01*
X113672649Y-116989639D01*
X113665368Y-116988559D01*
X113658229Y-116986771D01*
X113651299Y-116984291D01*
X113644645Y-116981144D01*
X113638332Y-116977360D01*
X113632421Y-116972976D01*
X113626967Y-116968033D01*
X113622024Y-116962579D01*
X113617640Y-116956668D01*
X113613856Y-116950355D01*
X113610709Y-116943701D01*
X113608229Y-116936771D01*
X113606441Y-116929632D01*
X113605361Y-116922351D01*
X113605000Y-116915000D01*
X113605000Y-116765000D01*
X113605361Y-116757649D01*
X113606441Y-116750368D01*
X113608229Y-116743229D01*
X113610709Y-116736299D01*
X113613856Y-116729645D01*
X113617640Y-116723332D01*
X113622024Y-116717421D01*
X113626967Y-116711967D01*
X113632421Y-116707024D01*
X113638332Y-116702640D01*
X113644645Y-116698856D01*
X113651299Y-116695709D01*
X113658229Y-116693229D01*
X113665368Y-116691441D01*
X113672649Y-116690361D01*
X113680000Y-116690000D01*
X115005000Y-116690000D01*
X115012351Y-116690361D01*
X115012351Y-116690361D01*
G37*
D11*
X114342500Y-116840000D03*
D10*
G36*
X115012351Y-116190361D02*
X115019632Y-116191441D01*
X115026771Y-116193229D01*
X115033701Y-116195709D01*
X115040355Y-116198856D01*
X115046668Y-116202640D01*
X115052579Y-116207024D01*
X115058033Y-116211967D01*
X115062976Y-116217421D01*
X115067360Y-116223332D01*
X115071144Y-116229645D01*
X115074291Y-116236299D01*
X115076771Y-116243229D01*
X115078559Y-116250368D01*
X115079639Y-116257649D01*
X115080000Y-116265000D01*
X115080000Y-116415000D01*
X115079639Y-116422351D01*
X115078559Y-116429632D01*
X115076771Y-116436771D01*
X115074291Y-116443701D01*
X115071144Y-116450355D01*
X115067360Y-116456668D01*
X115062976Y-116462579D01*
X115058033Y-116468033D01*
X115052579Y-116472976D01*
X115046668Y-116477360D01*
X115040355Y-116481144D01*
X115033701Y-116484291D01*
X115026771Y-116486771D01*
X115019632Y-116488559D01*
X115012351Y-116489639D01*
X115005000Y-116490000D01*
X113680000Y-116490000D01*
X113672649Y-116489639D01*
X113665368Y-116488559D01*
X113658229Y-116486771D01*
X113651299Y-116484291D01*
X113644645Y-116481144D01*
X113638332Y-116477360D01*
X113632421Y-116472976D01*
X113626967Y-116468033D01*
X113622024Y-116462579D01*
X113617640Y-116456668D01*
X113613856Y-116450355D01*
X113610709Y-116443701D01*
X113608229Y-116436771D01*
X113606441Y-116429632D01*
X113605361Y-116422351D01*
X113605000Y-116415000D01*
X113605000Y-116265000D01*
X113605361Y-116257649D01*
X113606441Y-116250368D01*
X113608229Y-116243229D01*
X113610709Y-116236299D01*
X113613856Y-116229645D01*
X113617640Y-116223332D01*
X113622024Y-116217421D01*
X113626967Y-116211967D01*
X113632421Y-116207024D01*
X113638332Y-116202640D01*
X113644645Y-116198856D01*
X113651299Y-116195709D01*
X113658229Y-116193229D01*
X113665368Y-116191441D01*
X113672649Y-116190361D01*
X113680000Y-116190000D01*
X115005000Y-116190000D01*
X115012351Y-116190361D01*
X115012351Y-116190361D01*
G37*
D11*
X114342500Y-116340000D03*
D10*
G36*
X115012351Y-115690361D02*
X115019632Y-115691441D01*
X115026771Y-115693229D01*
X115033701Y-115695709D01*
X115040355Y-115698856D01*
X115046668Y-115702640D01*
X115052579Y-115707024D01*
X115058033Y-115711967D01*
X115062976Y-115717421D01*
X115067360Y-115723332D01*
X115071144Y-115729645D01*
X115074291Y-115736299D01*
X115076771Y-115743229D01*
X115078559Y-115750368D01*
X115079639Y-115757649D01*
X115080000Y-115765000D01*
X115080000Y-115915000D01*
X115079639Y-115922351D01*
X115078559Y-115929632D01*
X115076771Y-115936771D01*
X115074291Y-115943701D01*
X115071144Y-115950355D01*
X115067360Y-115956668D01*
X115062976Y-115962579D01*
X115058033Y-115968033D01*
X115052579Y-115972976D01*
X115046668Y-115977360D01*
X115040355Y-115981144D01*
X115033701Y-115984291D01*
X115026771Y-115986771D01*
X115019632Y-115988559D01*
X115012351Y-115989639D01*
X115005000Y-115990000D01*
X113680000Y-115990000D01*
X113672649Y-115989639D01*
X113665368Y-115988559D01*
X113658229Y-115986771D01*
X113651299Y-115984291D01*
X113644645Y-115981144D01*
X113638332Y-115977360D01*
X113632421Y-115972976D01*
X113626967Y-115968033D01*
X113622024Y-115962579D01*
X113617640Y-115956668D01*
X113613856Y-115950355D01*
X113610709Y-115943701D01*
X113608229Y-115936771D01*
X113606441Y-115929632D01*
X113605361Y-115922351D01*
X113605000Y-115915000D01*
X113605000Y-115765000D01*
X113605361Y-115757649D01*
X113606441Y-115750368D01*
X113608229Y-115743229D01*
X113610709Y-115736299D01*
X113613856Y-115729645D01*
X113617640Y-115723332D01*
X113622024Y-115717421D01*
X113626967Y-115711967D01*
X113632421Y-115707024D01*
X113638332Y-115702640D01*
X113644645Y-115698856D01*
X113651299Y-115695709D01*
X113658229Y-115693229D01*
X113665368Y-115691441D01*
X113672649Y-115690361D01*
X113680000Y-115690000D01*
X115005000Y-115690000D01*
X115012351Y-115690361D01*
X115012351Y-115690361D01*
G37*
D11*
X114342500Y-115840000D03*
D10*
G36*
X115012351Y-115190361D02*
X115019632Y-115191441D01*
X115026771Y-115193229D01*
X115033701Y-115195709D01*
X115040355Y-115198856D01*
X115046668Y-115202640D01*
X115052579Y-115207024D01*
X115058033Y-115211967D01*
X115062976Y-115217421D01*
X115067360Y-115223332D01*
X115071144Y-115229645D01*
X115074291Y-115236299D01*
X115076771Y-115243229D01*
X115078559Y-115250368D01*
X115079639Y-115257649D01*
X115080000Y-115265000D01*
X115080000Y-115415000D01*
X115079639Y-115422351D01*
X115078559Y-115429632D01*
X115076771Y-115436771D01*
X115074291Y-115443701D01*
X115071144Y-115450355D01*
X115067360Y-115456668D01*
X115062976Y-115462579D01*
X115058033Y-115468033D01*
X115052579Y-115472976D01*
X115046668Y-115477360D01*
X115040355Y-115481144D01*
X115033701Y-115484291D01*
X115026771Y-115486771D01*
X115019632Y-115488559D01*
X115012351Y-115489639D01*
X115005000Y-115490000D01*
X113680000Y-115490000D01*
X113672649Y-115489639D01*
X113665368Y-115488559D01*
X113658229Y-115486771D01*
X113651299Y-115484291D01*
X113644645Y-115481144D01*
X113638332Y-115477360D01*
X113632421Y-115472976D01*
X113626967Y-115468033D01*
X113622024Y-115462579D01*
X113617640Y-115456668D01*
X113613856Y-115450355D01*
X113610709Y-115443701D01*
X113608229Y-115436771D01*
X113606441Y-115429632D01*
X113605361Y-115422351D01*
X113605000Y-115415000D01*
X113605000Y-115265000D01*
X113605361Y-115257649D01*
X113606441Y-115250368D01*
X113608229Y-115243229D01*
X113610709Y-115236299D01*
X113613856Y-115229645D01*
X113617640Y-115223332D01*
X113622024Y-115217421D01*
X113626967Y-115211967D01*
X113632421Y-115207024D01*
X113638332Y-115202640D01*
X113644645Y-115198856D01*
X113651299Y-115195709D01*
X113658229Y-115193229D01*
X113665368Y-115191441D01*
X113672649Y-115190361D01*
X113680000Y-115190000D01*
X115005000Y-115190000D01*
X115012351Y-115190361D01*
X115012351Y-115190361D01*
G37*
D11*
X114342500Y-115340000D03*
D10*
G36*
X115012351Y-114690361D02*
X115019632Y-114691441D01*
X115026771Y-114693229D01*
X115033701Y-114695709D01*
X115040355Y-114698856D01*
X115046668Y-114702640D01*
X115052579Y-114707024D01*
X115058033Y-114711967D01*
X115062976Y-114717421D01*
X115067360Y-114723332D01*
X115071144Y-114729645D01*
X115074291Y-114736299D01*
X115076771Y-114743229D01*
X115078559Y-114750368D01*
X115079639Y-114757649D01*
X115080000Y-114765000D01*
X115080000Y-114915000D01*
X115079639Y-114922351D01*
X115078559Y-114929632D01*
X115076771Y-114936771D01*
X115074291Y-114943701D01*
X115071144Y-114950355D01*
X115067360Y-114956668D01*
X115062976Y-114962579D01*
X115058033Y-114968033D01*
X115052579Y-114972976D01*
X115046668Y-114977360D01*
X115040355Y-114981144D01*
X115033701Y-114984291D01*
X115026771Y-114986771D01*
X115019632Y-114988559D01*
X115012351Y-114989639D01*
X115005000Y-114990000D01*
X113680000Y-114990000D01*
X113672649Y-114989639D01*
X113665368Y-114988559D01*
X113658229Y-114986771D01*
X113651299Y-114984291D01*
X113644645Y-114981144D01*
X113638332Y-114977360D01*
X113632421Y-114972976D01*
X113626967Y-114968033D01*
X113622024Y-114962579D01*
X113617640Y-114956668D01*
X113613856Y-114950355D01*
X113610709Y-114943701D01*
X113608229Y-114936771D01*
X113606441Y-114929632D01*
X113605361Y-114922351D01*
X113605000Y-114915000D01*
X113605000Y-114765000D01*
X113605361Y-114757649D01*
X113606441Y-114750368D01*
X113608229Y-114743229D01*
X113610709Y-114736299D01*
X113613856Y-114729645D01*
X113617640Y-114723332D01*
X113622024Y-114717421D01*
X113626967Y-114711967D01*
X113632421Y-114707024D01*
X113638332Y-114702640D01*
X113644645Y-114698856D01*
X113651299Y-114695709D01*
X113658229Y-114693229D01*
X113665368Y-114691441D01*
X113672649Y-114690361D01*
X113680000Y-114690000D01*
X115005000Y-114690000D01*
X115012351Y-114690361D01*
X115012351Y-114690361D01*
G37*
D11*
X114342500Y-114840000D03*
D10*
G36*
X115012351Y-114190361D02*
X115019632Y-114191441D01*
X115026771Y-114193229D01*
X115033701Y-114195709D01*
X115040355Y-114198856D01*
X115046668Y-114202640D01*
X115052579Y-114207024D01*
X115058033Y-114211967D01*
X115062976Y-114217421D01*
X115067360Y-114223332D01*
X115071144Y-114229645D01*
X115074291Y-114236299D01*
X115076771Y-114243229D01*
X115078559Y-114250368D01*
X115079639Y-114257649D01*
X115080000Y-114265000D01*
X115080000Y-114415000D01*
X115079639Y-114422351D01*
X115078559Y-114429632D01*
X115076771Y-114436771D01*
X115074291Y-114443701D01*
X115071144Y-114450355D01*
X115067360Y-114456668D01*
X115062976Y-114462579D01*
X115058033Y-114468033D01*
X115052579Y-114472976D01*
X115046668Y-114477360D01*
X115040355Y-114481144D01*
X115033701Y-114484291D01*
X115026771Y-114486771D01*
X115019632Y-114488559D01*
X115012351Y-114489639D01*
X115005000Y-114490000D01*
X113680000Y-114490000D01*
X113672649Y-114489639D01*
X113665368Y-114488559D01*
X113658229Y-114486771D01*
X113651299Y-114484291D01*
X113644645Y-114481144D01*
X113638332Y-114477360D01*
X113632421Y-114472976D01*
X113626967Y-114468033D01*
X113622024Y-114462579D01*
X113617640Y-114456668D01*
X113613856Y-114450355D01*
X113610709Y-114443701D01*
X113608229Y-114436771D01*
X113606441Y-114429632D01*
X113605361Y-114422351D01*
X113605000Y-114415000D01*
X113605000Y-114265000D01*
X113605361Y-114257649D01*
X113606441Y-114250368D01*
X113608229Y-114243229D01*
X113610709Y-114236299D01*
X113613856Y-114229645D01*
X113617640Y-114223332D01*
X113622024Y-114217421D01*
X113626967Y-114211967D01*
X113632421Y-114207024D01*
X113638332Y-114202640D01*
X113644645Y-114198856D01*
X113651299Y-114195709D01*
X113658229Y-114193229D01*
X113665368Y-114191441D01*
X113672649Y-114190361D01*
X113680000Y-114190000D01*
X115005000Y-114190000D01*
X115012351Y-114190361D01*
X115012351Y-114190361D01*
G37*
D11*
X114342500Y-114340000D03*
D10*
G36*
X115012351Y-113690361D02*
X115019632Y-113691441D01*
X115026771Y-113693229D01*
X115033701Y-113695709D01*
X115040355Y-113698856D01*
X115046668Y-113702640D01*
X115052579Y-113707024D01*
X115058033Y-113711967D01*
X115062976Y-113717421D01*
X115067360Y-113723332D01*
X115071144Y-113729645D01*
X115074291Y-113736299D01*
X115076771Y-113743229D01*
X115078559Y-113750368D01*
X115079639Y-113757649D01*
X115080000Y-113765000D01*
X115080000Y-113915000D01*
X115079639Y-113922351D01*
X115078559Y-113929632D01*
X115076771Y-113936771D01*
X115074291Y-113943701D01*
X115071144Y-113950355D01*
X115067360Y-113956668D01*
X115062976Y-113962579D01*
X115058033Y-113968033D01*
X115052579Y-113972976D01*
X115046668Y-113977360D01*
X115040355Y-113981144D01*
X115033701Y-113984291D01*
X115026771Y-113986771D01*
X115019632Y-113988559D01*
X115012351Y-113989639D01*
X115005000Y-113990000D01*
X113680000Y-113990000D01*
X113672649Y-113989639D01*
X113665368Y-113988559D01*
X113658229Y-113986771D01*
X113651299Y-113984291D01*
X113644645Y-113981144D01*
X113638332Y-113977360D01*
X113632421Y-113972976D01*
X113626967Y-113968033D01*
X113622024Y-113962579D01*
X113617640Y-113956668D01*
X113613856Y-113950355D01*
X113610709Y-113943701D01*
X113608229Y-113936771D01*
X113606441Y-113929632D01*
X113605361Y-113922351D01*
X113605000Y-113915000D01*
X113605000Y-113765000D01*
X113605361Y-113757649D01*
X113606441Y-113750368D01*
X113608229Y-113743229D01*
X113610709Y-113736299D01*
X113613856Y-113729645D01*
X113617640Y-113723332D01*
X113622024Y-113717421D01*
X113626967Y-113711967D01*
X113632421Y-113707024D01*
X113638332Y-113702640D01*
X113644645Y-113698856D01*
X113651299Y-113695709D01*
X113658229Y-113693229D01*
X113665368Y-113691441D01*
X113672649Y-113690361D01*
X113680000Y-113690000D01*
X115005000Y-113690000D01*
X115012351Y-113690361D01*
X115012351Y-113690361D01*
G37*
D11*
X114342500Y-113840000D03*
D10*
G36*
X115012351Y-113190361D02*
X115019632Y-113191441D01*
X115026771Y-113193229D01*
X115033701Y-113195709D01*
X115040355Y-113198856D01*
X115046668Y-113202640D01*
X115052579Y-113207024D01*
X115058033Y-113211967D01*
X115062976Y-113217421D01*
X115067360Y-113223332D01*
X115071144Y-113229645D01*
X115074291Y-113236299D01*
X115076771Y-113243229D01*
X115078559Y-113250368D01*
X115079639Y-113257649D01*
X115080000Y-113265000D01*
X115080000Y-113415000D01*
X115079639Y-113422351D01*
X115078559Y-113429632D01*
X115076771Y-113436771D01*
X115074291Y-113443701D01*
X115071144Y-113450355D01*
X115067360Y-113456668D01*
X115062976Y-113462579D01*
X115058033Y-113468033D01*
X115052579Y-113472976D01*
X115046668Y-113477360D01*
X115040355Y-113481144D01*
X115033701Y-113484291D01*
X115026771Y-113486771D01*
X115019632Y-113488559D01*
X115012351Y-113489639D01*
X115005000Y-113490000D01*
X113680000Y-113490000D01*
X113672649Y-113489639D01*
X113665368Y-113488559D01*
X113658229Y-113486771D01*
X113651299Y-113484291D01*
X113644645Y-113481144D01*
X113638332Y-113477360D01*
X113632421Y-113472976D01*
X113626967Y-113468033D01*
X113622024Y-113462579D01*
X113617640Y-113456668D01*
X113613856Y-113450355D01*
X113610709Y-113443701D01*
X113608229Y-113436771D01*
X113606441Y-113429632D01*
X113605361Y-113422351D01*
X113605000Y-113415000D01*
X113605000Y-113265000D01*
X113605361Y-113257649D01*
X113606441Y-113250368D01*
X113608229Y-113243229D01*
X113610709Y-113236299D01*
X113613856Y-113229645D01*
X113617640Y-113223332D01*
X113622024Y-113217421D01*
X113626967Y-113211967D01*
X113632421Y-113207024D01*
X113638332Y-113202640D01*
X113644645Y-113198856D01*
X113651299Y-113195709D01*
X113658229Y-113193229D01*
X113665368Y-113191441D01*
X113672649Y-113190361D01*
X113680000Y-113190000D01*
X115005000Y-113190000D01*
X115012351Y-113190361D01*
X115012351Y-113190361D01*
G37*
D11*
X114342500Y-113340000D03*
D10*
G36*
X115012351Y-112690361D02*
X115019632Y-112691441D01*
X115026771Y-112693229D01*
X115033701Y-112695709D01*
X115040355Y-112698856D01*
X115046668Y-112702640D01*
X115052579Y-112707024D01*
X115058033Y-112711967D01*
X115062976Y-112717421D01*
X115067360Y-112723332D01*
X115071144Y-112729645D01*
X115074291Y-112736299D01*
X115076771Y-112743229D01*
X115078559Y-112750368D01*
X115079639Y-112757649D01*
X115080000Y-112765000D01*
X115080000Y-112915000D01*
X115079639Y-112922351D01*
X115078559Y-112929632D01*
X115076771Y-112936771D01*
X115074291Y-112943701D01*
X115071144Y-112950355D01*
X115067360Y-112956668D01*
X115062976Y-112962579D01*
X115058033Y-112968033D01*
X115052579Y-112972976D01*
X115046668Y-112977360D01*
X115040355Y-112981144D01*
X115033701Y-112984291D01*
X115026771Y-112986771D01*
X115019632Y-112988559D01*
X115012351Y-112989639D01*
X115005000Y-112990000D01*
X113680000Y-112990000D01*
X113672649Y-112989639D01*
X113665368Y-112988559D01*
X113658229Y-112986771D01*
X113651299Y-112984291D01*
X113644645Y-112981144D01*
X113638332Y-112977360D01*
X113632421Y-112972976D01*
X113626967Y-112968033D01*
X113622024Y-112962579D01*
X113617640Y-112956668D01*
X113613856Y-112950355D01*
X113610709Y-112943701D01*
X113608229Y-112936771D01*
X113606441Y-112929632D01*
X113605361Y-112922351D01*
X113605000Y-112915000D01*
X113605000Y-112765000D01*
X113605361Y-112757649D01*
X113606441Y-112750368D01*
X113608229Y-112743229D01*
X113610709Y-112736299D01*
X113613856Y-112729645D01*
X113617640Y-112723332D01*
X113622024Y-112717421D01*
X113626967Y-112711967D01*
X113632421Y-112707024D01*
X113638332Y-112702640D01*
X113644645Y-112698856D01*
X113651299Y-112695709D01*
X113658229Y-112693229D01*
X113665368Y-112691441D01*
X113672649Y-112690361D01*
X113680000Y-112690000D01*
X115005000Y-112690000D01*
X115012351Y-112690361D01*
X115012351Y-112690361D01*
G37*
D11*
X114342500Y-112840000D03*
D10*
G36*
X115012351Y-112190361D02*
X115019632Y-112191441D01*
X115026771Y-112193229D01*
X115033701Y-112195709D01*
X115040355Y-112198856D01*
X115046668Y-112202640D01*
X115052579Y-112207024D01*
X115058033Y-112211967D01*
X115062976Y-112217421D01*
X115067360Y-112223332D01*
X115071144Y-112229645D01*
X115074291Y-112236299D01*
X115076771Y-112243229D01*
X115078559Y-112250368D01*
X115079639Y-112257649D01*
X115080000Y-112265000D01*
X115080000Y-112415000D01*
X115079639Y-112422351D01*
X115078559Y-112429632D01*
X115076771Y-112436771D01*
X115074291Y-112443701D01*
X115071144Y-112450355D01*
X115067360Y-112456668D01*
X115062976Y-112462579D01*
X115058033Y-112468033D01*
X115052579Y-112472976D01*
X115046668Y-112477360D01*
X115040355Y-112481144D01*
X115033701Y-112484291D01*
X115026771Y-112486771D01*
X115019632Y-112488559D01*
X115012351Y-112489639D01*
X115005000Y-112490000D01*
X113680000Y-112490000D01*
X113672649Y-112489639D01*
X113665368Y-112488559D01*
X113658229Y-112486771D01*
X113651299Y-112484291D01*
X113644645Y-112481144D01*
X113638332Y-112477360D01*
X113632421Y-112472976D01*
X113626967Y-112468033D01*
X113622024Y-112462579D01*
X113617640Y-112456668D01*
X113613856Y-112450355D01*
X113610709Y-112443701D01*
X113608229Y-112436771D01*
X113606441Y-112429632D01*
X113605361Y-112422351D01*
X113605000Y-112415000D01*
X113605000Y-112265000D01*
X113605361Y-112257649D01*
X113606441Y-112250368D01*
X113608229Y-112243229D01*
X113610709Y-112236299D01*
X113613856Y-112229645D01*
X113617640Y-112223332D01*
X113622024Y-112217421D01*
X113626967Y-112211967D01*
X113632421Y-112207024D01*
X113638332Y-112202640D01*
X113644645Y-112198856D01*
X113651299Y-112195709D01*
X113658229Y-112193229D01*
X113665368Y-112191441D01*
X113672649Y-112190361D01*
X113680000Y-112190000D01*
X115005000Y-112190000D01*
X115012351Y-112190361D01*
X115012351Y-112190361D01*
G37*
D11*
X114342500Y-112340000D03*
D10*
G36*
X115012351Y-111690361D02*
X115019632Y-111691441D01*
X115026771Y-111693229D01*
X115033701Y-111695709D01*
X115040355Y-111698856D01*
X115046668Y-111702640D01*
X115052579Y-111707024D01*
X115058033Y-111711967D01*
X115062976Y-111717421D01*
X115067360Y-111723332D01*
X115071144Y-111729645D01*
X115074291Y-111736299D01*
X115076771Y-111743229D01*
X115078559Y-111750368D01*
X115079639Y-111757649D01*
X115080000Y-111765000D01*
X115080000Y-111915000D01*
X115079639Y-111922351D01*
X115078559Y-111929632D01*
X115076771Y-111936771D01*
X115074291Y-111943701D01*
X115071144Y-111950355D01*
X115067360Y-111956668D01*
X115062976Y-111962579D01*
X115058033Y-111968033D01*
X115052579Y-111972976D01*
X115046668Y-111977360D01*
X115040355Y-111981144D01*
X115033701Y-111984291D01*
X115026771Y-111986771D01*
X115019632Y-111988559D01*
X115012351Y-111989639D01*
X115005000Y-111990000D01*
X113680000Y-111990000D01*
X113672649Y-111989639D01*
X113665368Y-111988559D01*
X113658229Y-111986771D01*
X113651299Y-111984291D01*
X113644645Y-111981144D01*
X113638332Y-111977360D01*
X113632421Y-111972976D01*
X113626967Y-111968033D01*
X113622024Y-111962579D01*
X113617640Y-111956668D01*
X113613856Y-111950355D01*
X113610709Y-111943701D01*
X113608229Y-111936771D01*
X113606441Y-111929632D01*
X113605361Y-111922351D01*
X113605000Y-111915000D01*
X113605000Y-111765000D01*
X113605361Y-111757649D01*
X113606441Y-111750368D01*
X113608229Y-111743229D01*
X113610709Y-111736299D01*
X113613856Y-111729645D01*
X113617640Y-111723332D01*
X113622024Y-111717421D01*
X113626967Y-111711967D01*
X113632421Y-111707024D01*
X113638332Y-111702640D01*
X113644645Y-111698856D01*
X113651299Y-111695709D01*
X113658229Y-111693229D01*
X113665368Y-111691441D01*
X113672649Y-111690361D01*
X113680000Y-111690000D01*
X115005000Y-111690000D01*
X115012351Y-111690361D01*
X115012351Y-111690361D01*
G37*
D11*
X114342500Y-111840000D03*
D10*
G36*
X115012351Y-111190361D02*
X115019632Y-111191441D01*
X115026771Y-111193229D01*
X115033701Y-111195709D01*
X115040355Y-111198856D01*
X115046668Y-111202640D01*
X115052579Y-111207024D01*
X115058033Y-111211967D01*
X115062976Y-111217421D01*
X115067360Y-111223332D01*
X115071144Y-111229645D01*
X115074291Y-111236299D01*
X115076771Y-111243229D01*
X115078559Y-111250368D01*
X115079639Y-111257649D01*
X115080000Y-111265000D01*
X115080000Y-111415000D01*
X115079639Y-111422351D01*
X115078559Y-111429632D01*
X115076771Y-111436771D01*
X115074291Y-111443701D01*
X115071144Y-111450355D01*
X115067360Y-111456668D01*
X115062976Y-111462579D01*
X115058033Y-111468033D01*
X115052579Y-111472976D01*
X115046668Y-111477360D01*
X115040355Y-111481144D01*
X115033701Y-111484291D01*
X115026771Y-111486771D01*
X115019632Y-111488559D01*
X115012351Y-111489639D01*
X115005000Y-111490000D01*
X113680000Y-111490000D01*
X113672649Y-111489639D01*
X113665368Y-111488559D01*
X113658229Y-111486771D01*
X113651299Y-111484291D01*
X113644645Y-111481144D01*
X113638332Y-111477360D01*
X113632421Y-111472976D01*
X113626967Y-111468033D01*
X113622024Y-111462579D01*
X113617640Y-111456668D01*
X113613856Y-111450355D01*
X113610709Y-111443701D01*
X113608229Y-111436771D01*
X113606441Y-111429632D01*
X113605361Y-111422351D01*
X113605000Y-111415000D01*
X113605000Y-111265000D01*
X113605361Y-111257649D01*
X113606441Y-111250368D01*
X113608229Y-111243229D01*
X113610709Y-111236299D01*
X113613856Y-111229645D01*
X113617640Y-111223332D01*
X113622024Y-111217421D01*
X113626967Y-111211967D01*
X113632421Y-111207024D01*
X113638332Y-111202640D01*
X113644645Y-111198856D01*
X113651299Y-111195709D01*
X113658229Y-111193229D01*
X113665368Y-111191441D01*
X113672649Y-111190361D01*
X113680000Y-111190000D01*
X115005000Y-111190000D01*
X115012351Y-111190361D01*
X115012351Y-111190361D01*
G37*
D11*
X114342500Y-111340000D03*
D10*
G36*
X115012351Y-110690361D02*
X115019632Y-110691441D01*
X115026771Y-110693229D01*
X115033701Y-110695709D01*
X115040355Y-110698856D01*
X115046668Y-110702640D01*
X115052579Y-110707024D01*
X115058033Y-110711967D01*
X115062976Y-110717421D01*
X115067360Y-110723332D01*
X115071144Y-110729645D01*
X115074291Y-110736299D01*
X115076771Y-110743229D01*
X115078559Y-110750368D01*
X115079639Y-110757649D01*
X115080000Y-110765000D01*
X115080000Y-110915000D01*
X115079639Y-110922351D01*
X115078559Y-110929632D01*
X115076771Y-110936771D01*
X115074291Y-110943701D01*
X115071144Y-110950355D01*
X115067360Y-110956668D01*
X115062976Y-110962579D01*
X115058033Y-110968033D01*
X115052579Y-110972976D01*
X115046668Y-110977360D01*
X115040355Y-110981144D01*
X115033701Y-110984291D01*
X115026771Y-110986771D01*
X115019632Y-110988559D01*
X115012351Y-110989639D01*
X115005000Y-110990000D01*
X113680000Y-110990000D01*
X113672649Y-110989639D01*
X113665368Y-110988559D01*
X113658229Y-110986771D01*
X113651299Y-110984291D01*
X113644645Y-110981144D01*
X113638332Y-110977360D01*
X113632421Y-110972976D01*
X113626967Y-110968033D01*
X113622024Y-110962579D01*
X113617640Y-110956668D01*
X113613856Y-110950355D01*
X113610709Y-110943701D01*
X113608229Y-110936771D01*
X113606441Y-110929632D01*
X113605361Y-110922351D01*
X113605000Y-110915000D01*
X113605000Y-110765000D01*
X113605361Y-110757649D01*
X113606441Y-110750368D01*
X113608229Y-110743229D01*
X113610709Y-110736299D01*
X113613856Y-110729645D01*
X113617640Y-110723332D01*
X113622024Y-110717421D01*
X113626967Y-110711967D01*
X113632421Y-110707024D01*
X113638332Y-110702640D01*
X113644645Y-110698856D01*
X113651299Y-110695709D01*
X113658229Y-110693229D01*
X113665368Y-110691441D01*
X113672649Y-110690361D01*
X113680000Y-110690000D01*
X115005000Y-110690000D01*
X115012351Y-110690361D01*
X115012351Y-110690361D01*
G37*
D11*
X114342500Y-110840000D03*
D10*
G36*
X112762351Y-108440361D02*
X112769632Y-108441441D01*
X112776771Y-108443229D01*
X112783701Y-108445709D01*
X112790355Y-108448856D01*
X112796668Y-108452640D01*
X112802579Y-108457024D01*
X112808033Y-108461967D01*
X112812976Y-108467421D01*
X112817360Y-108473332D01*
X112821144Y-108479645D01*
X112824291Y-108486299D01*
X112826771Y-108493229D01*
X112828559Y-108500368D01*
X112829639Y-108507649D01*
X112830000Y-108515000D01*
X112830000Y-109840000D01*
X112829639Y-109847351D01*
X112828559Y-109854632D01*
X112826771Y-109861771D01*
X112824291Y-109868701D01*
X112821144Y-109875355D01*
X112817360Y-109881668D01*
X112812976Y-109887579D01*
X112808033Y-109893033D01*
X112802579Y-109897976D01*
X112796668Y-109902360D01*
X112790355Y-109906144D01*
X112783701Y-109909291D01*
X112776771Y-109911771D01*
X112769632Y-109913559D01*
X112762351Y-109914639D01*
X112755000Y-109915000D01*
X112605000Y-109915000D01*
X112597649Y-109914639D01*
X112590368Y-109913559D01*
X112583229Y-109911771D01*
X112576299Y-109909291D01*
X112569645Y-109906144D01*
X112563332Y-109902360D01*
X112557421Y-109897976D01*
X112551967Y-109893033D01*
X112547024Y-109887579D01*
X112542640Y-109881668D01*
X112538856Y-109875355D01*
X112535709Y-109868701D01*
X112533229Y-109861771D01*
X112531441Y-109854632D01*
X112530361Y-109847351D01*
X112530000Y-109840000D01*
X112530000Y-108515000D01*
X112530361Y-108507649D01*
X112531441Y-108500368D01*
X112533229Y-108493229D01*
X112535709Y-108486299D01*
X112538856Y-108479645D01*
X112542640Y-108473332D01*
X112547024Y-108467421D01*
X112551967Y-108461967D01*
X112557421Y-108457024D01*
X112563332Y-108452640D01*
X112569645Y-108448856D01*
X112576299Y-108445709D01*
X112583229Y-108443229D01*
X112590368Y-108441441D01*
X112597649Y-108440361D01*
X112605000Y-108440000D01*
X112755000Y-108440000D01*
X112762351Y-108440361D01*
X112762351Y-108440361D01*
G37*
D11*
X112680000Y-109177500D03*
D10*
G36*
X112262351Y-108440361D02*
X112269632Y-108441441D01*
X112276771Y-108443229D01*
X112283701Y-108445709D01*
X112290355Y-108448856D01*
X112296668Y-108452640D01*
X112302579Y-108457024D01*
X112308033Y-108461967D01*
X112312976Y-108467421D01*
X112317360Y-108473332D01*
X112321144Y-108479645D01*
X112324291Y-108486299D01*
X112326771Y-108493229D01*
X112328559Y-108500368D01*
X112329639Y-108507649D01*
X112330000Y-108515000D01*
X112330000Y-109840000D01*
X112329639Y-109847351D01*
X112328559Y-109854632D01*
X112326771Y-109861771D01*
X112324291Y-109868701D01*
X112321144Y-109875355D01*
X112317360Y-109881668D01*
X112312976Y-109887579D01*
X112308033Y-109893033D01*
X112302579Y-109897976D01*
X112296668Y-109902360D01*
X112290355Y-109906144D01*
X112283701Y-109909291D01*
X112276771Y-109911771D01*
X112269632Y-109913559D01*
X112262351Y-109914639D01*
X112255000Y-109915000D01*
X112105000Y-109915000D01*
X112097649Y-109914639D01*
X112090368Y-109913559D01*
X112083229Y-109911771D01*
X112076299Y-109909291D01*
X112069645Y-109906144D01*
X112063332Y-109902360D01*
X112057421Y-109897976D01*
X112051967Y-109893033D01*
X112047024Y-109887579D01*
X112042640Y-109881668D01*
X112038856Y-109875355D01*
X112035709Y-109868701D01*
X112033229Y-109861771D01*
X112031441Y-109854632D01*
X112030361Y-109847351D01*
X112030000Y-109840000D01*
X112030000Y-108515000D01*
X112030361Y-108507649D01*
X112031441Y-108500368D01*
X112033229Y-108493229D01*
X112035709Y-108486299D01*
X112038856Y-108479645D01*
X112042640Y-108473332D01*
X112047024Y-108467421D01*
X112051967Y-108461967D01*
X112057421Y-108457024D01*
X112063332Y-108452640D01*
X112069645Y-108448856D01*
X112076299Y-108445709D01*
X112083229Y-108443229D01*
X112090368Y-108441441D01*
X112097649Y-108440361D01*
X112105000Y-108440000D01*
X112255000Y-108440000D01*
X112262351Y-108440361D01*
X112262351Y-108440361D01*
G37*
D11*
X112180000Y-109177500D03*
D10*
G36*
X111762351Y-108440361D02*
X111769632Y-108441441D01*
X111776771Y-108443229D01*
X111783701Y-108445709D01*
X111790355Y-108448856D01*
X111796668Y-108452640D01*
X111802579Y-108457024D01*
X111808033Y-108461967D01*
X111812976Y-108467421D01*
X111817360Y-108473332D01*
X111821144Y-108479645D01*
X111824291Y-108486299D01*
X111826771Y-108493229D01*
X111828559Y-108500368D01*
X111829639Y-108507649D01*
X111830000Y-108515000D01*
X111830000Y-109840000D01*
X111829639Y-109847351D01*
X111828559Y-109854632D01*
X111826771Y-109861771D01*
X111824291Y-109868701D01*
X111821144Y-109875355D01*
X111817360Y-109881668D01*
X111812976Y-109887579D01*
X111808033Y-109893033D01*
X111802579Y-109897976D01*
X111796668Y-109902360D01*
X111790355Y-109906144D01*
X111783701Y-109909291D01*
X111776771Y-109911771D01*
X111769632Y-109913559D01*
X111762351Y-109914639D01*
X111755000Y-109915000D01*
X111605000Y-109915000D01*
X111597649Y-109914639D01*
X111590368Y-109913559D01*
X111583229Y-109911771D01*
X111576299Y-109909291D01*
X111569645Y-109906144D01*
X111563332Y-109902360D01*
X111557421Y-109897976D01*
X111551967Y-109893033D01*
X111547024Y-109887579D01*
X111542640Y-109881668D01*
X111538856Y-109875355D01*
X111535709Y-109868701D01*
X111533229Y-109861771D01*
X111531441Y-109854632D01*
X111530361Y-109847351D01*
X111530000Y-109840000D01*
X111530000Y-108515000D01*
X111530361Y-108507649D01*
X111531441Y-108500368D01*
X111533229Y-108493229D01*
X111535709Y-108486299D01*
X111538856Y-108479645D01*
X111542640Y-108473332D01*
X111547024Y-108467421D01*
X111551967Y-108461967D01*
X111557421Y-108457024D01*
X111563332Y-108452640D01*
X111569645Y-108448856D01*
X111576299Y-108445709D01*
X111583229Y-108443229D01*
X111590368Y-108441441D01*
X111597649Y-108440361D01*
X111605000Y-108440000D01*
X111755000Y-108440000D01*
X111762351Y-108440361D01*
X111762351Y-108440361D01*
G37*
D11*
X111680000Y-109177500D03*
D10*
G36*
X111262351Y-108440361D02*
X111269632Y-108441441D01*
X111276771Y-108443229D01*
X111283701Y-108445709D01*
X111290355Y-108448856D01*
X111296668Y-108452640D01*
X111302579Y-108457024D01*
X111308033Y-108461967D01*
X111312976Y-108467421D01*
X111317360Y-108473332D01*
X111321144Y-108479645D01*
X111324291Y-108486299D01*
X111326771Y-108493229D01*
X111328559Y-108500368D01*
X111329639Y-108507649D01*
X111330000Y-108515000D01*
X111330000Y-109840000D01*
X111329639Y-109847351D01*
X111328559Y-109854632D01*
X111326771Y-109861771D01*
X111324291Y-109868701D01*
X111321144Y-109875355D01*
X111317360Y-109881668D01*
X111312976Y-109887579D01*
X111308033Y-109893033D01*
X111302579Y-109897976D01*
X111296668Y-109902360D01*
X111290355Y-109906144D01*
X111283701Y-109909291D01*
X111276771Y-109911771D01*
X111269632Y-109913559D01*
X111262351Y-109914639D01*
X111255000Y-109915000D01*
X111105000Y-109915000D01*
X111097649Y-109914639D01*
X111090368Y-109913559D01*
X111083229Y-109911771D01*
X111076299Y-109909291D01*
X111069645Y-109906144D01*
X111063332Y-109902360D01*
X111057421Y-109897976D01*
X111051967Y-109893033D01*
X111047024Y-109887579D01*
X111042640Y-109881668D01*
X111038856Y-109875355D01*
X111035709Y-109868701D01*
X111033229Y-109861771D01*
X111031441Y-109854632D01*
X111030361Y-109847351D01*
X111030000Y-109840000D01*
X111030000Y-108515000D01*
X111030361Y-108507649D01*
X111031441Y-108500368D01*
X111033229Y-108493229D01*
X111035709Y-108486299D01*
X111038856Y-108479645D01*
X111042640Y-108473332D01*
X111047024Y-108467421D01*
X111051967Y-108461967D01*
X111057421Y-108457024D01*
X111063332Y-108452640D01*
X111069645Y-108448856D01*
X111076299Y-108445709D01*
X111083229Y-108443229D01*
X111090368Y-108441441D01*
X111097649Y-108440361D01*
X111105000Y-108440000D01*
X111255000Y-108440000D01*
X111262351Y-108440361D01*
X111262351Y-108440361D01*
G37*
D11*
X111180000Y-109177500D03*
D10*
G36*
X110762351Y-108440361D02*
X110769632Y-108441441D01*
X110776771Y-108443229D01*
X110783701Y-108445709D01*
X110790355Y-108448856D01*
X110796668Y-108452640D01*
X110802579Y-108457024D01*
X110808033Y-108461967D01*
X110812976Y-108467421D01*
X110817360Y-108473332D01*
X110821144Y-108479645D01*
X110824291Y-108486299D01*
X110826771Y-108493229D01*
X110828559Y-108500368D01*
X110829639Y-108507649D01*
X110830000Y-108515000D01*
X110830000Y-109840000D01*
X110829639Y-109847351D01*
X110828559Y-109854632D01*
X110826771Y-109861771D01*
X110824291Y-109868701D01*
X110821144Y-109875355D01*
X110817360Y-109881668D01*
X110812976Y-109887579D01*
X110808033Y-109893033D01*
X110802579Y-109897976D01*
X110796668Y-109902360D01*
X110790355Y-109906144D01*
X110783701Y-109909291D01*
X110776771Y-109911771D01*
X110769632Y-109913559D01*
X110762351Y-109914639D01*
X110755000Y-109915000D01*
X110605000Y-109915000D01*
X110597649Y-109914639D01*
X110590368Y-109913559D01*
X110583229Y-109911771D01*
X110576299Y-109909291D01*
X110569645Y-109906144D01*
X110563332Y-109902360D01*
X110557421Y-109897976D01*
X110551967Y-109893033D01*
X110547024Y-109887579D01*
X110542640Y-109881668D01*
X110538856Y-109875355D01*
X110535709Y-109868701D01*
X110533229Y-109861771D01*
X110531441Y-109854632D01*
X110530361Y-109847351D01*
X110530000Y-109840000D01*
X110530000Y-108515000D01*
X110530361Y-108507649D01*
X110531441Y-108500368D01*
X110533229Y-108493229D01*
X110535709Y-108486299D01*
X110538856Y-108479645D01*
X110542640Y-108473332D01*
X110547024Y-108467421D01*
X110551967Y-108461967D01*
X110557421Y-108457024D01*
X110563332Y-108452640D01*
X110569645Y-108448856D01*
X110576299Y-108445709D01*
X110583229Y-108443229D01*
X110590368Y-108441441D01*
X110597649Y-108440361D01*
X110605000Y-108440000D01*
X110755000Y-108440000D01*
X110762351Y-108440361D01*
X110762351Y-108440361D01*
G37*
D11*
X110680000Y-109177500D03*
D10*
G36*
X110262351Y-108440361D02*
X110269632Y-108441441D01*
X110276771Y-108443229D01*
X110283701Y-108445709D01*
X110290355Y-108448856D01*
X110296668Y-108452640D01*
X110302579Y-108457024D01*
X110308033Y-108461967D01*
X110312976Y-108467421D01*
X110317360Y-108473332D01*
X110321144Y-108479645D01*
X110324291Y-108486299D01*
X110326771Y-108493229D01*
X110328559Y-108500368D01*
X110329639Y-108507649D01*
X110330000Y-108515000D01*
X110330000Y-109840000D01*
X110329639Y-109847351D01*
X110328559Y-109854632D01*
X110326771Y-109861771D01*
X110324291Y-109868701D01*
X110321144Y-109875355D01*
X110317360Y-109881668D01*
X110312976Y-109887579D01*
X110308033Y-109893033D01*
X110302579Y-109897976D01*
X110296668Y-109902360D01*
X110290355Y-109906144D01*
X110283701Y-109909291D01*
X110276771Y-109911771D01*
X110269632Y-109913559D01*
X110262351Y-109914639D01*
X110255000Y-109915000D01*
X110105000Y-109915000D01*
X110097649Y-109914639D01*
X110090368Y-109913559D01*
X110083229Y-109911771D01*
X110076299Y-109909291D01*
X110069645Y-109906144D01*
X110063332Y-109902360D01*
X110057421Y-109897976D01*
X110051967Y-109893033D01*
X110047024Y-109887579D01*
X110042640Y-109881668D01*
X110038856Y-109875355D01*
X110035709Y-109868701D01*
X110033229Y-109861771D01*
X110031441Y-109854632D01*
X110030361Y-109847351D01*
X110030000Y-109840000D01*
X110030000Y-108515000D01*
X110030361Y-108507649D01*
X110031441Y-108500368D01*
X110033229Y-108493229D01*
X110035709Y-108486299D01*
X110038856Y-108479645D01*
X110042640Y-108473332D01*
X110047024Y-108467421D01*
X110051967Y-108461967D01*
X110057421Y-108457024D01*
X110063332Y-108452640D01*
X110069645Y-108448856D01*
X110076299Y-108445709D01*
X110083229Y-108443229D01*
X110090368Y-108441441D01*
X110097649Y-108440361D01*
X110105000Y-108440000D01*
X110255000Y-108440000D01*
X110262351Y-108440361D01*
X110262351Y-108440361D01*
G37*
D11*
X110180000Y-109177500D03*
D10*
G36*
X109762351Y-108440361D02*
X109769632Y-108441441D01*
X109776771Y-108443229D01*
X109783701Y-108445709D01*
X109790355Y-108448856D01*
X109796668Y-108452640D01*
X109802579Y-108457024D01*
X109808033Y-108461967D01*
X109812976Y-108467421D01*
X109817360Y-108473332D01*
X109821144Y-108479645D01*
X109824291Y-108486299D01*
X109826771Y-108493229D01*
X109828559Y-108500368D01*
X109829639Y-108507649D01*
X109830000Y-108515000D01*
X109830000Y-109840000D01*
X109829639Y-109847351D01*
X109828559Y-109854632D01*
X109826771Y-109861771D01*
X109824291Y-109868701D01*
X109821144Y-109875355D01*
X109817360Y-109881668D01*
X109812976Y-109887579D01*
X109808033Y-109893033D01*
X109802579Y-109897976D01*
X109796668Y-109902360D01*
X109790355Y-109906144D01*
X109783701Y-109909291D01*
X109776771Y-109911771D01*
X109769632Y-109913559D01*
X109762351Y-109914639D01*
X109755000Y-109915000D01*
X109605000Y-109915000D01*
X109597649Y-109914639D01*
X109590368Y-109913559D01*
X109583229Y-109911771D01*
X109576299Y-109909291D01*
X109569645Y-109906144D01*
X109563332Y-109902360D01*
X109557421Y-109897976D01*
X109551967Y-109893033D01*
X109547024Y-109887579D01*
X109542640Y-109881668D01*
X109538856Y-109875355D01*
X109535709Y-109868701D01*
X109533229Y-109861771D01*
X109531441Y-109854632D01*
X109530361Y-109847351D01*
X109530000Y-109840000D01*
X109530000Y-108515000D01*
X109530361Y-108507649D01*
X109531441Y-108500368D01*
X109533229Y-108493229D01*
X109535709Y-108486299D01*
X109538856Y-108479645D01*
X109542640Y-108473332D01*
X109547024Y-108467421D01*
X109551967Y-108461967D01*
X109557421Y-108457024D01*
X109563332Y-108452640D01*
X109569645Y-108448856D01*
X109576299Y-108445709D01*
X109583229Y-108443229D01*
X109590368Y-108441441D01*
X109597649Y-108440361D01*
X109605000Y-108440000D01*
X109755000Y-108440000D01*
X109762351Y-108440361D01*
X109762351Y-108440361D01*
G37*
D11*
X109680000Y-109177500D03*
D10*
G36*
X109262351Y-108440361D02*
X109269632Y-108441441D01*
X109276771Y-108443229D01*
X109283701Y-108445709D01*
X109290355Y-108448856D01*
X109296668Y-108452640D01*
X109302579Y-108457024D01*
X109308033Y-108461967D01*
X109312976Y-108467421D01*
X109317360Y-108473332D01*
X109321144Y-108479645D01*
X109324291Y-108486299D01*
X109326771Y-108493229D01*
X109328559Y-108500368D01*
X109329639Y-108507649D01*
X109330000Y-108515000D01*
X109330000Y-109840000D01*
X109329639Y-109847351D01*
X109328559Y-109854632D01*
X109326771Y-109861771D01*
X109324291Y-109868701D01*
X109321144Y-109875355D01*
X109317360Y-109881668D01*
X109312976Y-109887579D01*
X109308033Y-109893033D01*
X109302579Y-109897976D01*
X109296668Y-109902360D01*
X109290355Y-109906144D01*
X109283701Y-109909291D01*
X109276771Y-109911771D01*
X109269632Y-109913559D01*
X109262351Y-109914639D01*
X109255000Y-109915000D01*
X109105000Y-109915000D01*
X109097649Y-109914639D01*
X109090368Y-109913559D01*
X109083229Y-109911771D01*
X109076299Y-109909291D01*
X109069645Y-109906144D01*
X109063332Y-109902360D01*
X109057421Y-109897976D01*
X109051967Y-109893033D01*
X109047024Y-109887579D01*
X109042640Y-109881668D01*
X109038856Y-109875355D01*
X109035709Y-109868701D01*
X109033229Y-109861771D01*
X109031441Y-109854632D01*
X109030361Y-109847351D01*
X109030000Y-109840000D01*
X109030000Y-108515000D01*
X109030361Y-108507649D01*
X109031441Y-108500368D01*
X109033229Y-108493229D01*
X109035709Y-108486299D01*
X109038856Y-108479645D01*
X109042640Y-108473332D01*
X109047024Y-108467421D01*
X109051967Y-108461967D01*
X109057421Y-108457024D01*
X109063332Y-108452640D01*
X109069645Y-108448856D01*
X109076299Y-108445709D01*
X109083229Y-108443229D01*
X109090368Y-108441441D01*
X109097649Y-108440361D01*
X109105000Y-108440000D01*
X109255000Y-108440000D01*
X109262351Y-108440361D01*
X109262351Y-108440361D01*
G37*
D11*
X109180000Y-109177500D03*
D10*
G36*
X108762351Y-108440361D02*
X108769632Y-108441441D01*
X108776771Y-108443229D01*
X108783701Y-108445709D01*
X108790355Y-108448856D01*
X108796668Y-108452640D01*
X108802579Y-108457024D01*
X108808033Y-108461967D01*
X108812976Y-108467421D01*
X108817360Y-108473332D01*
X108821144Y-108479645D01*
X108824291Y-108486299D01*
X108826771Y-108493229D01*
X108828559Y-108500368D01*
X108829639Y-108507649D01*
X108830000Y-108515000D01*
X108830000Y-109840000D01*
X108829639Y-109847351D01*
X108828559Y-109854632D01*
X108826771Y-109861771D01*
X108824291Y-109868701D01*
X108821144Y-109875355D01*
X108817360Y-109881668D01*
X108812976Y-109887579D01*
X108808033Y-109893033D01*
X108802579Y-109897976D01*
X108796668Y-109902360D01*
X108790355Y-109906144D01*
X108783701Y-109909291D01*
X108776771Y-109911771D01*
X108769632Y-109913559D01*
X108762351Y-109914639D01*
X108755000Y-109915000D01*
X108605000Y-109915000D01*
X108597649Y-109914639D01*
X108590368Y-109913559D01*
X108583229Y-109911771D01*
X108576299Y-109909291D01*
X108569645Y-109906144D01*
X108563332Y-109902360D01*
X108557421Y-109897976D01*
X108551967Y-109893033D01*
X108547024Y-109887579D01*
X108542640Y-109881668D01*
X108538856Y-109875355D01*
X108535709Y-109868701D01*
X108533229Y-109861771D01*
X108531441Y-109854632D01*
X108530361Y-109847351D01*
X108530000Y-109840000D01*
X108530000Y-108515000D01*
X108530361Y-108507649D01*
X108531441Y-108500368D01*
X108533229Y-108493229D01*
X108535709Y-108486299D01*
X108538856Y-108479645D01*
X108542640Y-108473332D01*
X108547024Y-108467421D01*
X108551967Y-108461967D01*
X108557421Y-108457024D01*
X108563332Y-108452640D01*
X108569645Y-108448856D01*
X108576299Y-108445709D01*
X108583229Y-108443229D01*
X108590368Y-108441441D01*
X108597649Y-108440361D01*
X108605000Y-108440000D01*
X108755000Y-108440000D01*
X108762351Y-108440361D01*
X108762351Y-108440361D01*
G37*
D11*
X108680000Y-109177500D03*
D10*
G36*
X108262351Y-108440361D02*
X108269632Y-108441441D01*
X108276771Y-108443229D01*
X108283701Y-108445709D01*
X108290355Y-108448856D01*
X108296668Y-108452640D01*
X108302579Y-108457024D01*
X108308033Y-108461967D01*
X108312976Y-108467421D01*
X108317360Y-108473332D01*
X108321144Y-108479645D01*
X108324291Y-108486299D01*
X108326771Y-108493229D01*
X108328559Y-108500368D01*
X108329639Y-108507649D01*
X108330000Y-108515000D01*
X108330000Y-109840000D01*
X108329639Y-109847351D01*
X108328559Y-109854632D01*
X108326771Y-109861771D01*
X108324291Y-109868701D01*
X108321144Y-109875355D01*
X108317360Y-109881668D01*
X108312976Y-109887579D01*
X108308033Y-109893033D01*
X108302579Y-109897976D01*
X108296668Y-109902360D01*
X108290355Y-109906144D01*
X108283701Y-109909291D01*
X108276771Y-109911771D01*
X108269632Y-109913559D01*
X108262351Y-109914639D01*
X108255000Y-109915000D01*
X108105000Y-109915000D01*
X108097649Y-109914639D01*
X108090368Y-109913559D01*
X108083229Y-109911771D01*
X108076299Y-109909291D01*
X108069645Y-109906144D01*
X108063332Y-109902360D01*
X108057421Y-109897976D01*
X108051967Y-109893033D01*
X108047024Y-109887579D01*
X108042640Y-109881668D01*
X108038856Y-109875355D01*
X108035709Y-109868701D01*
X108033229Y-109861771D01*
X108031441Y-109854632D01*
X108030361Y-109847351D01*
X108030000Y-109840000D01*
X108030000Y-108515000D01*
X108030361Y-108507649D01*
X108031441Y-108500368D01*
X108033229Y-108493229D01*
X108035709Y-108486299D01*
X108038856Y-108479645D01*
X108042640Y-108473332D01*
X108047024Y-108467421D01*
X108051967Y-108461967D01*
X108057421Y-108457024D01*
X108063332Y-108452640D01*
X108069645Y-108448856D01*
X108076299Y-108445709D01*
X108083229Y-108443229D01*
X108090368Y-108441441D01*
X108097649Y-108440361D01*
X108105000Y-108440000D01*
X108255000Y-108440000D01*
X108262351Y-108440361D01*
X108262351Y-108440361D01*
G37*
D11*
X108180000Y-109177500D03*
D10*
G36*
X107762351Y-108440361D02*
X107769632Y-108441441D01*
X107776771Y-108443229D01*
X107783701Y-108445709D01*
X107790355Y-108448856D01*
X107796668Y-108452640D01*
X107802579Y-108457024D01*
X107808033Y-108461967D01*
X107812976Y-108467421D01*
X107817360Y-108473332D01*
X107821144Y-108479645D01*
X107824291Y-108486299D01*
X107826771Y-108493229D01*
X107828559Y-108500368D01*
X107829639Y-108507649D01*
X107830000Y-108515000D01*
X107830000Y-109840000D01*
X107829639Y-109847351D01*
X107828559Y-109854632D01*
X107826771Y-109861771D01*
X107824291Y-109868701D01*
X107821144Y-109875355D01*
X107817360Y-109881668D01*
X107812976Y-109887579D01*
X107808033Y-109893033D01*
X107802579Y-109897976D01*
X107796668Y-109902360D01*
X107790355Y-109906144D01*
X107783701Y-109909291D01*
X107776771Y-109911771D01*
X107769632Y-109913559D01*
X107762351Y-109914639D01*
X107755000Y-109915000D01*
X107605000Y-109915000D01*
X107597649Y-109914639D01*
X107590368Y-109913559D01*
X107583229Y-109911771D01*
X107576299Y-109909291D01*
X107569645Y-109906144D01*
X107563332Y-109902360D01*
X107557421Y-109897976D01*
X107551967Y-109893033D01*
X107547024Y-109887579D01*
X107542640Y-109881668D01*
X107538856Y-109875355D01*
X107535709Y-109868701D01*
X107533229Y-109861771D01*
X107531441Y-109854632D01*
X107530361Y-109847351D01*
X107530000Y-109840000D01*
X107530000Y-108515000D01*
X107530361Y-108507649D01*
X107531441Y-108500368D01*
X107533229Y-108493229D01*
X107535709Y-108486299D01*
X107538856Y-108479645D01*
X107542640Y-108473332D01*
X107547024Y-108467421D01*
X107551967Y-108461967D01*
X107557421Y-108457024D01*
X107563332Y-108452640D01*
X107569645Y-108448856D01*
X107576299Y-108445709D01*
X107583229Y-108443229D01*
X107590368Y-108441441D01*
X107597649Y-108440361D01*
X107605000Y-108440000D01*
X107755000Y-108440000D01*
X107762351Y-108440361D01*
X107762351Y-108440361D01*
G37*
D11*
X107680000Y-109177500D03*
D10*
G36*
X107262351Y-108440361D02*
X107269632Y-108441441D01*
X107276771Y-108443229D01*
X107283701Y-108445709D01*
X107290355Y-108448856D01*
X107296668Y-108452640D01*
X107302579Y-108457024D01*
X107308033Y-108461967D01*
X107312976Y-108467421D01*
X107317360Y-108473332D01*
X107321144Y-108479645D01*
X107324291Y-108486299D01*
X107326771Y-108493229D01*
X107328559Y-108500368D01*
X107329639Y-108507649D01*
X107330000Y-108515000D01*
X107330000Y-109840000D01*
X107329639Y-109847351D01*
X107328559Y-109854632D01*
X107326771Y-109861771D01*
X107324291Y-109868701D01*
X107321144Y-109875355D01*
X107317360Y-109881668D01*
X107312976Y-109887579D01*
X107308033Y-109893033D01*
X107302579Y-109897976D01*
X107296668Y-109902360D01*
X107290355Y-109906144D01*
X107283701Y-109909291D01*
X107276771Y-109911771D01*
X107269632Y-109913559D01*
X107262351Y-109914639D01*
X107255000Y-109915000D01*
X107105000Y-109915000D01*
X107097649Y-109914639D01*
X107090368Y-109913559D01*
X107083229Y-109911771D01*
X107076299Y-109909291D01*
X107069645Y-109906144D01*
X107063332Y-109902360D01*
X107057421Y-109897976D01*
X107051967Y-109893033D01*
X107047024Y-109887579D01*
X107042640Y-109881668D01*
X107038856Y-109875355D01*
X107035709Y-109868701D01*
X107033229Y-109861771D01*
X107031441Y-109854632D01*
X107030361Y-109847351D01*
X107030000Y-109840000D01*
X107030000Y-108515000D01*
X107030361Y-108507649D01*
X107031441Y-108500368D01*
X107033229Y-108493229D01*
X107035709Y-108486299D01*
X107038856Y-108479645D01*
X107042640Y-108473332D01*
X107047024Y-108467421D01*
X107051967Y-108461967D01*
X107057421Y-108457024D01*
X107063332Y-108452640D01*
X107069645Y-108448856D01*
X107076299Y-108445709D01*
X107083229Y-108443229D01*
X107090368Y-108441441D01*
X107097649Y-108440361D01*
X107105000Y-108440000D01*
X107255000Y-108440000D01*
X107262351Y-108440361D01*
X107262351Y-108440361D01*
G37*
D11*
X107180000Y-109177500D03*
D10*
G36*
X106762351Y-108440361D02*
X106769632Y-108441441D01*
X106776771Y-108443229D01*
X106783701Y-108445709D01*
X106790355Y-108448856D01*
X106796668Y-108452640D01*
X106802579Y-108457024D01*
X106808033Y-108461967D01*
X106812976Y-108467421D01*
X106817360Y-108473332D01*
X106821144Y-108479645D01*
X106824291Y-108486299D01*
X106826771Y-108493229D01*
X106828559Y-108500368D01*
X106829639Y-108507649D01*
X106830000Y-108515000D01*
X106830000Y-109840000D01*
X106829639Y-109847351D01*
X106828559Y-109854632D01*
X106826771Y-109861771D01*
X106824291Y-109868701D01*
X106821144Y-109875355D01*
X106817360Y-109881668D01*
X106812976Y-109887579D01*
X106808033Y-109893033D01*
X106802579Y-109897976D01*
X106796668Y-109902360D01*
X106790355Y-109906144D01*
X106783701Y-109909291D01*
X106776771Y-109911771D01*
X106769632Y-109913559D01*
X106762351Y-109914639D01*
X106755000Y-109915000D01*
X106605000Y-109915000D01*
X106597649Y-109914639D01*
X106590368Y-109913559D01*
X106583229Y-109911771D01*
X106576299Y-109909291D01*
X106569645Y-109906144D01*
X106563332Y-109902360D01*
X106557421Y-109897976D01*
X106551967Y-109893033D01*
X106547024Y-109887579D01*
X106542640Y-109881668D01*
X106538856Y-109875355D01*
X106535709Y-109868701D01*
X106533229Y-109861771D01*
X106531441Y-109854632D01*
X106530361Y-109847351D01*
X106530000Y-109840000D01*
X106530000Y-108515000D01*
X106530361Y-108507649D01*
X106531441Y-108500368D01*
X106533229Y-108493229D01*
X106535709Y-108486299D01*
X106538856Y-108479645D01*
X106542640Y-108473332D01*
X106547024Y-108467421D01*
X106551967Y-108461967D01*
X106557421Y-108457024D01*
X106563332Y-108452640D01*
X106569645Y-108448856D01*
X106576299Y-108445709D01*
X106583229Y-108443229D01*
X106590368Y-108441441D01*
X106597649Y-108440361D01*
X106605000Y-108440000D01*
X106755000Y-108440000D01*
X106762351Y-108440361D01*
X106762351Y-108440361D01*
G37*
D11*
X106680000Y-109177500D03*
D10*
G36*
X106262351Y-108440361D02*
X106269632Y-108441441D01*
X106276771Y-108443229D01*
X106283701Y-108445709D01*
X106290355Y-108448856D01*
X106296668Y-108452640D01*
X106302579Y-108457024D01*
X106308033Y-108461967D01*
X106312976Y-108467421D01*
X106317360Y-108473332D01*
X106321144Y-108479645D01*
X106324291Y-108486299D01*
X106326771Y-108493229D01*
X106328559Y-108500368D01*
X106329639Y-108507649D01*
X106330000Y-108515000D01*
X106330000Y-109840000D01*
X106329639Y-109847351D01*
X106328559Y-109854632D01*
X106326771Y-109861771D01*
X106324291Y-109868701D01*
X106321144Y-109875355D01*
X106317360Y-109881668D01*
X106312976Y-109887579D01*
X106308033Y-109893033D01*
X106302579Y-109897976D01*
X106296668Y-109902360D01*
X106290355Y-109906144D01*
X106283701Y-109909291D01*
X106276771Y-109911771D01*
X106269632Y-109913559D01*
X106262351Y-109914639D01*
X106255000Y-109915000D01*
X106105000Y-109915000D01*
X106097649Y-109914639D01*
X106090368Y-109913559D01*
X106083229Y-109911771D01*
X106076299Y-109909291D01*
X106069645Y-109906144D01*
X106063332Y-109902360D01*
X106057421Y-109897976D01*
X106051967Y-109893033D01*
X106047024Y-109887579D01*
X106042640Y-109881668D01*
X106038856Y-109875355D01*
X106035709Y-109868701D01*
X106033229Y-109861771D01*
X106031441Y-109854632D01*
X106030361Y-109847351D01*
X106030000Y-109840000D01*
X106030000Y-108515000D01*
X106030361Y-108507649D01*
X106031441Y-108500368D01*
X106033229Y-108493229D01*
X106035709Y-108486299D01*
X106038856Y-108479645D01*
X106042640Y-108473332D01*
X106047024Y-108467421D01*
X106051967Y-108461967D01*
X106057421Y-108457024D01*
X106063332Y-108452640D01*
X106069645Y-108448856D01*
X106076299Y-108445709D01*
X106083229Y-108443229D01*
X106090368Y-108441441D01*
X106097649Y-108440361D01*
X106105000Y-108440000D01*
X106255000Y-108440000D01*
X106262351Y-108440361D01*
X106262351Y-108440361D01*
G37*
D11*
X106180000Y-109177500D03*
D10*
G36*
X105762351Y-108440361D02*
X105769632Y-108441441D01*
X105776771Y-108443229D01*
X105783701Y-108445709D01*
X105790355Y-108448856D01*
X105796668Y-108452640D01*
X105802579Y-108457024D01*
X105808033Y-108461967D01*
X105812976Y-108467421D01*
X105817360Y-108473332D01*
X105821144Y-108479645D01*
X105824291Y-108486299D01*
X105826771Y-108493229D01*
X105828559Y-108500368D01*
X105829639Y-108507649D01*
X105830000Y-108515000D01*
X105830000Y-109840000D01*
X105829639Y-109847351D01*
X105828559Y-109854632D01*
X105826771Y-109861771D01*
X105824291Y-109868701D01*
X105821144Y-109875355D01*
X105817360Y-109881668D01*
X105812976Y-109887579D01*
X105808033Y-109893033D01*
X105802579Y-109897976D01*
X105796668Y-109902360D01*
X105790355Y-109906144D01*
X105783701Y-109909291D01*
X105776771Y-109911771D01*
X105769632Y-109913559D01*
X105762351Y-109914639D01*
X105755000Y-109915000D01*
X105605000Y-109915000D01*
X105597649Y-109914639D01*
X105590368Y-109913559D01*
X105583229Y-109911771D01*
X105576299Y-109909291D01*
X105569645Y-109906144D01*
X105563332Y-109902360D01*
X105557421Y-109897976D01*
X105551967Y-109893033D01*
X105547024Y-109887579D01*
X105542640Y-109881668D01*
X105538856Y-109875355D01*
X105535709Y-109868701D01*
X105533229Y-109861771D01*
X105531441Y-109854632D01*
X105530361Y-109847351D01*
X105530000Y-109840000D01*
X105530000Y-108515000D01*
X105530361Y-108507649D01*
X105531441Y-108500368D01*
X105533229Y-108493229D01*
X105535709Y-108486299D01*
X105538856Y-108479645D01*
X105542640Y-108473332D01*
X105547024Y-108467421D01*
X105551967Y-108461967D01*
X105557421Y-108457024D01*
X105563332Y-108452640D01*
X105569645Y-108448856D01*
X105576299Y-108445709D01*
X105583229Y-108443229D01*
X105590368Y-108441441D01*
X105597649Y-108440361D01*
X105605000Y-108440000D01*
X105755000Y-108440000D01*
X105762351Y-108440361D01*
X105762351Y-108440361D01*
G37*
D11*
X105680000Y-109177500D03*
D10*
G36*
X105262351Y-108440361D02*
X105269632Y-108441441D01*
X105276771Y-108443229D01*
X105283701Y-108445709D01*
X105290355Y-108448856D01*
X105296668Y-108452640D01*
X105302579Y-108457024D01*
X105308033Y-108461967D01*
X105312976Y-108467421D01*
X105317360Y-108473332D01*
X105321144Y-108479645D01*
X105324291Y-108486299D01*
X105326771Y-108493229D01*
X105328559Y-108500368D01*
X105329639Y-108507649D01*
X105330000Y-108515000D01*
X105330000Y-109840000D01*
X105329639Y-109847351D01*
X105328559Y-109854632D01*
X105326771Y-109861771D01*
X105324291Y-109868701D01*
X105321144Y-109875355D01*
X105317360Y-109881668D01*
X105312976Y-109887579D01*
X105308033Y-109893033D01*
X105302579Y-109897976D01*
X105296668Y-109902360D01*
X105290355Y-109906144D01*
X105283701Y-109909291D01*
X105276771Y-109911771D01*
X105269632Y-109913559D01*
X105262351Y-109914639D01*
X105255000Y-109915000D01*
X105105000Y-109915000D01*
X105097649Y-109914639D01*
X105090368Y-109913559D01*
X105083229Y-109911771D01*
X105076299Y-109909291D01*
X105069645Y-109906144D01*
X105063332Y-109902360D01*
X105057421Y-109897976D01*
X105051967Y-109893033D01*
X105047024Y-109887579D01*
X105042640Y-109881668D01*
X105038856Y-109875355D01*
X105035709Y-109868701D01*
X105033229Y-109861771D01*
X105031441Y-109854632D01*
X105030361Y-109847351D01*
X105030000Y-109840000D01*
X105030000Y-108515000D01*
X105030361Y-108507649D01*
X105031441Y-108500368D01*
X105033229Y-108493229D01*
X105035709Y-108486299D01*
X105038856Y-108479645D01*
X105042640Y-108473332D01*
X105047024Y-108467421D01*
X105051967Y-108461967D01*
X105057421Y-108457024D01*
X105063332Y-108452640D01*
X105069645Y-108448856D01*
X105076299Y-108445709D01*
X105083229Y-108443229D01*
X105090368Y-108441441D01*
X105097649Y-108440361D01*
X105105000Y-108440000D01*
X105255000Y-108440000D01*
X105262351Y-108440361D01*
X105262351Y-108440361D01*
G37*
D11*
X105180000Y-109177500D03*
D10*
G36*
X104762351Y-108440361D02*
X104769632Y-108441441D01*
X104776771Y-108443229D01*
X104783701Y-108445709D01*
X104790355Y-108448856D01*
X104796668Y-108452640D01*
X104802579Y-108457024D01*
X104808033Y-108461967D01*
X104812976Y-108467421D01*
X104817360Y-108473332D01*
X104821144Y-108479645D01*
X104824291Y-108486299D01*
X104826771Y-108493229D01*
X104828559Y-108500368D01*
X104829639Y-108507649D01*
X104830000Y-108515000D01*
X104830000Y-109840000D01*
X104829639Y-109847351D01*
X104828559Y-109854632D01*
X104826771Y-109861771D01*
X104824291Y-109868701D01*
X104821144Y-109875355D01*
X104817360Y-109881668D01*
X104812976Y-109887579D01*
X104808033Y-109893033D01*
X104802579Y-109897976D01*
X104796668Y-109902360D01*
X104790355Y-109906144D01*
X104783701Y-109909291D01*
X104776771Y-109911771D01*
X104769632Y-109913559D01*
X104762351Y-109914639D01*
X104755000Y-109915000D01*
X104605000Y-109915000D01*
X104597649Y-109914639D01*
X104590368Y-109913559D01*
X104583229Y-109911771D01*
X104576299Y-109909291D01*
X104569645Y-109906144D01*
X104563332Y-109902360D01*
X104557421Y-109897976D01*
X104551967Y-109893033D01*
X104547024Y-109887579D01*
X104542640Y-109881668D01*
X104538856Y-109875355D01*
X104535709Y-109868701D01*
X104533229Y-109861771D01*
X104531441Y-109854632D01*
X104530361Y-109847351D01*
X104530000Y-109840000D01*
X104530000Y-108515000D01*
X104530361Y-108507649D01*
X104531441Y-108500368D01*
X104533229Y-108493229D01*
X104535709Y-108486299D01*
X104538856Y-108479645D01*
X104542640Y-108473332D01*
X104547024Y-108467421D01*
X104551967Y-108461967D01*
X104557421Y-108457024D01*
X104563332Y-108452640D01*
X104569645Y-108448856D01*
X104576299Y-108445709D01*
X104583229Y-108443229D01*
X104590368Y-108441441D01*
X104597649Y-108440361D01*
X104605000Y-108440000D01*
X104755000Y-108440000D01*
X104762351Y-108440361D01*
X104762351Y-108440361D01*
G37*
D11*
X104680000Y-109177500D03*
D10*
G36*
X104262351Y-108440361D02*
X104269632Y-108441441D01*
X104276771Y-108443229D01*
X104283701Y-108445709D01*
X104290355Y-108448856D01*
X104296668Y-108452640D01*
X104302579Y-108457024D01*
X104308033Y-108461967D01*
X104312976Y-108467421D01*
X104317360Y-108473332D01*
X104321144Y-108479645D01*
X104324291Y-108486299D01*
X104326771Y-108493229D01*
X104328559Y-108500368D01*
X104329639Y-108507649D01*
X104330000Y-108515000D01*
X104330000Y-109840000D01*
X104329639Y-109847351D01*
X104328559Y-109854632D01*
X104326771Y-109861771D01*
X104324291Y-109868701D01*
X104321144Y-109875355D01*
X104317360Y-109881668D01*
X104312976Y-109887579D01*
X104308033Y-109893033D01*
X104302579Y-109897976D01*
X104296668Y-109902360D01*
X104290355Y-109906144D01*
X104283701Y-109909291D01*
X104276771Y-109911771D01*
X104269632Y-109913559D01*
X104262351Y-109914639D01*
X104255000Y-109915000D01*
X104105000Y-109915000D01*
X104097649Y-109914639D01*
X104090368Y-109913559D01*
X104083229Y-109911771D01*
X104076299Y-109909291D01*
X104069645Y-109906144D01*
X104063332Y-109902360D01*
X104057421Y-109897976D01*
X104051967Y-109893033D01*
X104047024Y-109887579D01*
X104042640Y-109881668D01*
X104038856Y-109875355D01*
X104035709Y-109868701D01*
X104033229Y-109861771D01*
X104031441Y-109854632D01*
X104030361Y-109847351D01*
X104030000Y-109840000D01*
X104030000Y-108515000D01*
X104030361Y-108507649D01*
X104031441Y-108500368D01*
X104033229Y-108493229D01*
X104035709Y-108486299D01*
X104038856Y-108479645D01*
X104042640Y-108473332D01*
X104047024Y-108467421D01*
X104051967Y-108461967D01*
X104057421Y-108457024D01*
X104063332Y-108452640D01*
X104069645Y-108448856D01*
X104076299Y-108445709D01*
X104083229Y-108443229D01*
X104090368Y-108441441D01*
X104097649Y-108440361D01*
X104105000Y-108440000D01*
X104255000Y-108440000D01*
X104262351Y-108440361D01*
X104262351Y-108440361D01*
G37*
D11*
X104180000Y-109177500D03*
D10*
G36*
X103762351Y-108440361D02*
X103769632Y-108441441D01*
X103776771Y-108443229D01*
X103783701Y-108445709D01*
X103790355Y-108448856D01*
X103796668Y-108452640D01*
X103802579Y-108457024D01*
X103808033Y-108461967D01*
X103812976Y-108467421D01*
X103817360Y-108473332D01*
X103821144Y-108479645D01*
X103824291Y-108486299D01*
X103826771Y-108493229D01*
X103828559Y-108500368D01*
X103829639Y-108507649D01*
X103830000Y-108515000D01*
X103830000Y-109840000D01*
X103829639Y-109847351D01*
X103828559Y-109854632D01*
X103826771Y-109861771D01*
X103824291Y-109868701D01*
X103821144Y-109875355D01*
X103817360Y-109881668D01*
X103812976Y-109887579D01*
X103808033Y-109893033D01*
X103802579Y-109897976D01*
X103796668Y-109902360D01*
X103790355Y-109906144D01*
X103783701Y-109909291D01*
X103776771Y-109911771D01*
X103769632Y-109913559D01*
X103762351Y-109914639D01*
X103755000Y-109915000D01*
X103605000Y-109915000D01*
X103597649Y-109914639D01*
X103590368Y-109913559D01*
X103583229Y-109911771D01*
X103576299Y-109909291D01*
X103569645Y-109906144D01*
X103563332Y-109902360D01*
X103557421Y-109897976D01*
X103551967Y-109893033D01*
X103547024Y-109887579D01*
X103542640Y-109881668D01*
X103538856Y-109875355D01*
X103535709Y-109868701D01*
X103533229Y-109861771D01*
X103531441Y-109854632D01*
X103530361Y-109847351D01*
X103530000Y-109840000D01*
X103530000Y-108515000D01*
X103530361Y-108507649D01*
X103531441Y-108500368D01*
X103533229Y-108493229D01*
X103535709Y-108486299D01*
X103538856Y-108479645D01*
X103542640Y-108473332D01*
X103547024Y-108467421D01*
X103551967Y-108461967D01*
X103557421Y-108457024D01*
X103563332Y-108452640D01*
X103569645Y-108448856D01*
X103576299Y-108445709D01*
X103583229Y-108443229D01*
X103590368Y-108441441D01*
X103597649Y-108440361D01*
X103605000Y-108440000D01*
X103755000Y-108440000D01*
X103762351Y-108440361D01*
X103762351Y-108440361D01*
G37*
D11*
X103680000Y-109177500D03*
D10*
G36*
X103262351Y-108440361D02*
X103269632Y-108441441D01*
X103276771Y-108443229D01*
X103283701Y-108445709D01*
X103290355Y-108448856D01*
X103296668Y-108452640D01*
X103302579Y-108457024D01*
X103308033Y-108461967D01*
X103312976Y-108467421D01*
X103317360Y-108473332D01*
X103321144Y-108479645D01*
X103324291Y-108486299D01*
X103326771Y-108493229D01*
X103328559Y-108500368D01*
X103329639Y-108507649D01*
X103330000Y-108515000D01*
X103330000Y-109840000D01*
X103329639Y-109847351D01*
X103328559Y-109854632D01*
X103326771Y-109861771D01*
X103324291Y-109868701D01*
X103321144Y-109875355D01*
X103317360Y-109881668D01*
X103312976Y-109887579D01*
X103308033Y-109893033D01*
X103302579Y-109897976D01*
X103296668Y-109902360D01*
X103290355Y-109906144D01*
X103283701Y-109909291D01*
X103276771Y-109911771D01*
X103269632Y-109913559D01*
X103262351Y-109914639D01*
X103255000Y-109915000D01*
X103105000Y-109915000D01*
X103097649Y-109914639D01*
X103090368Y-109913559D01*
X103083229Y-109911771D01*
X103076299Y-109909291D01*
X103069645Y-109906144D01*
X103063332Y-109902360D01*
X103057421Y-109897976D01*
X103051967Y-109893033D01*
X103047024Y-109887579D01*
X103042640Y-109881668D01*
X103038856Y-109875355D01*
X103035709Y-109868701D01*
X103033229Y-109861771D01*
X103031441Y-109854632D01*
X103030361Y-109847351D01*
X103030000Y-109840000D01*
X103030000Y-108515000D01*
X103030361Y-108507649D01*
X103031441Y-108500368D01*
X103033229Y-108493229D01*
X103035709Y-108486299D01*
X103038856Y-108479645D01*
X103042640Y-108473332D01*
X103047024Y-108467421D01*
X103051967Y-108461967D01*
X103057421Y-108457024D01*
X103063332Y-108452640D01*
X103069645Y-108448856D01*
X103076299Y-108445709D01*
X103083229Y-108443229D01*
X103090368Y-108441441D01*
X103097649Y-108440361D01*
X103105000Y-108440000D01*
X103255000Y-108440000D01*
X103262351Y-108440361D01*
X103262351Y-108440361D01*
G37*
D11*
X103180000Y-109177500D03*
D10*
G36*
X102762351Y-108440361D02*
X102769632Y-108441441D01*
X102776771Y-108443229D01*
X102783701Y-108445709D01*
X102790355Y-108448856D01*
X102796668Y-108452640D01*
X102802579Y-108457024D01*
X102808033Y-108461967D01*
X102812976Y-108467421D01*
X102817360Y-108473332D01*
X102821144Y-108479645D01*
X102824291Y-108486299D01*
X102826771Y-108493229D01*
X102828559Y-108500368D01*
X102829639Y-108507649D01*
X102830000Y-108515000D01*
X102830000Y-109840000D01*
X102829639Y-109847351D01*
X102828559Y-109854632D01*
X102826771Y-109861771D01*
X102824291Y-109868701D01*
X102821144Y-109875355D01*
X102817360Y-109881668D01*
X102812976Y-109887579D01*
X102808033Y-109893033D01*
X102802579Y-109897976D01*
X102796668Y-109902360D01*
X102790355Y-109906144D01*
X102783701Y-109909291D01*
X102776771Y-109911771D01*
X102769632Y-109913559D01*
X102762351Y-109914639D01*
X102755000Y-109915000D01*
X102605000Y-109915000D01*
X102597649Y-109914639D01*
X102590368Y-109913559D01*
X102583229Y-109911771D01*
X102576299Y-109909291D01*
X102569645Y-109906144D01*
X102563332Y-109902360D01*
X102557421Y-109897976D01*
X102551967Y-109893033D01*
X102547024Y-109887579D01*
X102542640Y-109881668D01*
X102538856Y-109875355D01*
X102535709Y-109868701D01*
X102533229Y-109861771D01*
X102531441Y-109854632D01*
X102530361Y-109847351D01*
X102530000Y-109840000D01*
X102530000Y-108515000D01*
X102530361Y-108507649D01*
X102531441Y-108500368D01*
X102533229Y-108493229D01*
X102535709Y-108486299D01*
X102538856Y-108479645D01*
X102542640Y-108473332D01*
X102547024Y-108467421D01*
X102551967Y-108461967D01*
X102557421Y-108457024D01*
X102563332Y-108452640D01*
X102569645Y-108448856D01*
X102576299Y-108445709D01*
X102583229Y-108443229D01*
X102590368Y-108441441D01*
X102597649Y-108440361D01*
X102605000Y-108440000D01*
X102755000Y-108440000D01*
X102762351Y-108440361D01*
X102762351Y-108440361D01*
G37*
D11*
X102680000Y-109177500D03*
D10*
G36*
X102262351Y-108440361D02*
X102269632Y-108441441D01*
X102276771Y-108443229D01*
X102283701Y-108445709D01*
X102290355Y-108448856D01*
X102296668Y-108452640D01*
X102302579Y-108457024D01*
X102308033Y-108461967D01*
X102312976Y-108467421D01*
X102317360Y-108473332D01*
X102321144Y-108479645D01*
X102324291Y-108486299D01*
X102326771Y-108493229D01*
X102328559Y-108500368D01*
X102329639Y-108507649D01*
X102330000Y-108515000D01*
X102330000Y-109840000D01*
X102329639Y-109847351D01*
X102328559Y-109854632D01*
X102326771Y-109861771D01*
X102324291Y-109868701D01*
X102321144Y-109875355D01*
X102317360Y-109881668D01*
X102312976Y-109887579D01*
X102308033Y-109893033D01*
X102302579Y-109897976D01*
X102296668Y-109902360D01*
X102290355Y-109906144D01*
X102283701Y-109909291D01*
X102276771Y-109911771D01*
X102269632Y-109913559D01*
X102262351Y-109914639D01*
X102255000Y-109915000D01*
X102105000Y-109915000D01*
X102097649Y-109914639D01*
X102090368Y-109913559D01*
X102083229Y-109911771D01*
X102076299Y-109909291D01*
X102069645Y-109906144D01*
X102063332Y-109902360D01*
X102057421Y-109897976D01*
X102051967Y-109893033D01*
X102047024Y-109887579D01*
X102042640Y-109881668D01*
X102038856Y-109875355D01*
X102035709Y-109868701D01*
X102033229Y-109861771D01*
X102031441Y-109854632D01*
X102030361Y-109847351D01*
X102030000Y-109840000D01*
X102030000Y-108515000D01*
X102030361Y-108507649D01*
X102031441Y-108500368D01*
X102033229Y-108493229D01*
X102035709Y-108486299D01*
X102038856Y-108479645D01*
X102042640Y-108473332D01*
X102047024Y-108467421D01*
X102051967Y-108461967D01*
X102057421Y-108457024D01*
X102063332Y-108452640D01*
X102069645Y-108448856D01*
X102076299Y-108445709D01*
X102083229Y-108443229D01*
X102090368Y-108441441D01*
X102097649Y-108440361D01*
X102105000Y-108440000D01*
X102255000Y-108440000D01*
X102262351Y-108440361D01*
X102262351Y-108440361D01*
G37*
D11*
X102180000Y-109177500D03*
D10*
G36*
X101762351Y-108440361D02*
X101769632Y-108441441D01*
X101776771Y-108443229D01*
X101783701Y-108445709D01*
X101790355Y-108448856D01*
X101796668Y-108452640D01*
X101802579Y-108457024D01*
X101808033Y-108461967D01*
X101812976Y-108467421D01*
X101817360Y-108473332D01*
X101821144Y-108479645D01*
X101824291Y-108486299D01*
X101826771Y-108493229D01*
X101828559Y-108500368D01*
X101829639Y-108507649D01*
X101830000Y-108515000D01*
X101830000Y-109840000D01*
X101829639Y-109847351D01*
X101828559Y-109854632D01*
X101826771Y-109861771D01*
X101824291Y-109868701D01*
X101821144Y-109875355D01*
X101817360Y-109881668D01*
X101812976Y-109887579D01*
X101808033Y-109893033D01*
X101802579Y-109897976D01*
X101796668Y-109902360D01*
X101790355Y-109906144D01*
X101783701Y-109909291D01*
X101776771Y-109911771D01*
X101769632Y-109913559D01*
X101762351Y-109914639D01*
X101755000Y-109915000D01*
X101605000Y-109915000D01*
X101597649Y-109914639D01*
X101590368Y-109913559D01*
X101583229Y-109911771D01*
X101576299Y-109909291D01*
X101569645Y-109906144D01*
X101563332Y-109902360D01*
X101557421Y-109897976D01*
X101551967Y-109893033D01*
X101547024Y-109887579D01*
X101542640Y-109881668D01*
X101538856Y-109875355D01*
X101535709Y-109868701D01*
X101533229Y-109861771D01*
X101531441Y-109854632D01*
X101530361Y-109847351D01*
X101530000Y-109840000D01*
X101530000Y-108515000D01*
X101530361Y-108507649D01*
X101531441Y-108500368D01*
X101533229Y-108493229D01*
X101535709Y-108486299D01*
X101538856Y-108479645D01*
X101542640Y-108473332D01*
X101547024Y-108467421D01*
X101551967Y-108461967D01*
X101557421Y-108457024D01*
X101563332Y-108452640D01*
X101569645Y-108448856D01*
X101576299Y-108445709D01*
X101583229Y-108443229D01*
X101590368Y-108441441D01*
X101597649Y-108440361D01*
X101605000Y-108440000D01*
X101755000Y-108440000D01*
X101762351Y-108440361D01*
X101762351Y-108440361D01*
G37*
D11*
X101680000Y-109177500D03*
D10*
G36*
X101262351Y-108440361D02*
X101269632Y-108441441D01*
X101276771Y-108443229D01*
X101283701Y-108445709D01*
X101290355Y-108448856D01*
X101296668Y-108452640D01*
X101302579Y-108457024D01*
X101308033Y-108461967D01*
X101312976Y-108467421D01*
X101317360Y-108473332D01*
X101321144Y-108479645D01*
X101324291Y-108486299D01*
X101326771Y-108493229D01*
X101328559Y-108500368D01*
X101329639Y-108507649D01*
X101330000Y-108515000D01*
X101330000Y-109840000D01*
X101329639Y-109847351D01*
X101328559Y-109854632D01*
X101326771Y-109861771D01*
X101324291Y-109868701D01*
X101321144Y-109875355D01*
X101317360Y-109881668D01*
X101312976Y-109887579D01*
X101308033Y-109893033D01*
X101302579Y-109897976D01*
X101296668Y-109902360D01*
X101290355Y-109906144D01*
X101283701Y-109909291D01*
X101276771Y-109911771D01*
X101269632Y-109913559D01*
X101262351Y-109914639D01*
X101255000Y-109915000D01*
X101105000Y-109915000D01*
X101097649Y-109914639D01*
X101090368Y-109913559D01*
X101083229Y-109911771D01*
X101076299Y-109909291D01*
X101069645Y-109906144D01*
X101063332Y-109902360D01*
X101057421Y-109897976D01*
X101051967Y-109893033D01*
X101047024Y-109887579D01*
X101042640Y-109881668D01*
X101038856Y-109875355D01*
X101035709Y-109868701D01*
X101033229Y-109861771D01*
X101031441Y-109854632D01*
X101030361Y-109847351D01*
X101030000Y-109840000D01*
X101030000Y-108515000D01*
X101030361Y-108507649D01*
X101031441Y-108500368D01*
X101033229Y-108493229D01*
X101035709Y-108486299D01*
X101038856Y-108479645D01*
X101042640Y-108473332D01*
X101047024Y-108467421D01*
X101051967Y-108461967D01*
X101057421Y-108457024D01*
X101063332Y-108452640D01*
X101069645Y-108448856D01*
X101076299Y-108445709D01*
X101083229Y-108443229D01*
X101090368Y-108441441D01*
X101097649Y-108440361D01*
X101105000Y-108440000D01*
X101255000Y-108440000D01*
X101262351Y-108440361D01*
X101262351Y-108440361D01*
G37*
D11*
X101180000Y-109177500D03*
D10*
G36*
X100762351Y-108440361D02*
X100769632Y-108441441D01*
X100776771Y-108443229D01*
X100783701Y-108445709D01*
X100790355Y-108448856D01*
X100796668Y-108452640D01*
X100802579Y-108457024D01*
X100808033Y-108461967D01*
X100812976Y-108467421D01*
X100817360Y-108473332D01*
X100821144Y-108479645D01*
X100824291Y-108486299D01*
X100826771Y-108493229D01*
X100828559Y-108500368D01*
X100829639Y-108507649D01*
X100830000Y-108515000D01*
X100830000Y-109840000D01*
X100829639Y-109847351D01*
X100828559Y-109854632D01*
X100826771Y-109861771D01*
X100824291Y-109868701D01*
X100821144Y-109875355D01*
X100817360Y-109881668D01*
X100812976Y-109887579D01*
X100808033Y-109893033D01*
X100802579Y-109897976D01*
X100796668Y-109902360D01*
X100790355Y-109906144D01*
X100783701Y-109909291D01*
X100776771Y-109911771D01*
X100769632Y-109913559D01*
X100762351Y-109914639D01*
X100755000Y-109915000D01*
X100605000Y-109915000D01*
X100597649Y-109914639D01*
X100590368Y-109913559D01*
X100583229Y-109911771D01*
X100576299Y-109909291D01*
X100569645Y-109906144D01*
X100563332Y-109902360D01*
X100557421Y-109897976D01*
X100551967Y-109893033D01*
X100547024Y-109887579D01*
X100542640Y-109881668D01*
X100538856Y-109875355D01*
X100535709Y-109868701D01*
X100533229Y-109861771D01*
X100531441Y-109854632D01*
X100530361Y-109847351D01*
X100530000Y-109840000D01*
X100530000Y-108515000D01*
X100530361Y-108507649D01*
X100531441Y-108500368D01*
X100533229Y-108493229D01*
X100535709Y-108486299D01*
X100538856Y-108479645D01*
X100542640Y-108473332D01*
X100547024Y-108467421D01*
X100551967Y-108461967D01*
X100557421Y-108457024D01*
X100563332Y-108452640D01*
X100569645Y-108448856D01*
X100576299Y-108445709D01*
X100583229Y-108443229D01*
X100590368Y-108441441D01*
X100597649Y-108440361D01*
X100605000Y-108440000D01*
X100755000Y-108440000D01*
X100762351Y-108440361D01*
X100762351Y-108440361D01*
G37*
D11*
X100680000Y-109177500D03*
G04 #@! TD*
M02*
